<svg version="1.2" baseProfile="tiny-ps" xmlns="http://www.w3.org/2000/svg" viewBox="0 0 23 36" width="23" height="36">
	<title>index</title>
	<style>
		tspan { white-space:pre }
		.shp0 { fill: #262222 } 
	</style>
	<g id="index.v.1.3">
		<g id="menu default">
			<path id="compass" fill-rule="evenodd" class="shp0" d="M22.75 30.55C23.18 31.83 22.64 33.21 21.53 33.88L22 35.26C22.1 35.55 21.94 35.87 21.65 35.97C21.59 35.99 21.53 36 21.47 36C21.24 36 21.02 35.85 20.94 35.62L19.38 31.04C18.71 30.66 18.25 29.93 18.25 29.1C18.25 28.8 18.32 28.5 18.43 28.24L14.73 17.38L12.24 17.38L12.24 18.31C12.24 18.62 11.99 18.87 11.68 18.87C11.37 18.87 11.12 18.62 11.12 18.31L11.12 17.38L8.63 17.38L4.94 28.24C5.05 28.51 5.11 28.8 5.11 29.1C5.11 29.91 4.67 30.65 3.98 31.04L2.42 35.62C2.34 35.85 2.13 36 1.9 36C1.84 36 1.77 35.99 1.72 35.97C1.42 35.87 1.27 35.55 1.37 35.26L1.84 33.88C1.36 33.59 0.97 33.16 0.74 32.65C0.44 31.97 0.42 31.22 0.69 30.54L0.87 30C0.75 29.72 0.68 29.41 0.68 29.1C0.68 28.27 1.13 27.53 1.85 27.14L2.69 24.68C2.79 24.39 3.1 24.23 3.39 24.33C3.69 24.43 3.84 24.75 3.74 25.04L1.74 30.91C1.74 30.92 1.74 30.93 1.73 30.94C1.57 31.35 1.58 31.79 1.76 32.19C1.86 32.42 2.02 32.62 2.21 32.78L9.91 10.17C9.58 9.97 9.3 9.71 9.06 9.41L4.46 22.92C4.38 23.16 4.17 23.3 3.93 23.3C3.88 23.3 3.81 23.29 3.75 23.27C3.46 23.17 3.31 22.86 3.41 22.56L5.17 17.38L2.72 17.38L2.72 17.57C2.72 17.88 2.47 18.13 2.16 18.13C1.85 18.13 1.6 17.88 1.6 17.57L1.6 16.08C1.6 15.77 1.85 15.52 2.16 15.52C2.47 15.52 2.72 15.77 2.72 16.08L2.72 16.27L5.55 16.27L8.39 7.92C8.35 7.73 8.34 7.53 8.34 7.33C8.34 5.67 9.54 4.29 11.12 4.03L11.12 1.56C11.12 1.25 11.37 1 11.68 1C11.99 1 12.24 1.25 12.24 1.56L12.24 4.03C13.82 4.29 15.03 5.67 15.03 7.33C15.03 7.49 15.02 7.65 14.99 7.8C15.01 7.84 15.03 7.87 15.04 7.91L17.89 16.27L20.65 16.27L20.65 16.08C20.65 15.77 20.9 15.52 21.21 15.52C21.51 15.52 21.76 15.77 21.76 16.08L21.76 17.57C21.76 17.88 21.51 18.13 21.21 18.13C20.9 18.13 20.65 17.88 20.65 17.57L20.65 17.38L18.27 17.38L21.6 27.17C22.27 27.55 22.72 28.28 22.72 29.1C22.72 29.4 22.66 29.69 22.55 29.95L22.75 30.55ZM20.49 30.22C21.1 30.22 21.6 29.72 21.6 29.1C21.6 28.49 21.1 27.99 20.49 27.99C19.87 27.99 19.37 28.49 19.37 29.1C19.37 29.72 19.87 30.22 20.49 30.22ZM14.35 9.35C14.11 9.67 13.81 9.95 13.46 10.17L19.26 27.23C19.57 27.03 19.93 26.9 20.32 26.88L14.35 9.35ZM12.23 10.01C12.18 9.76 11.95 9.56 11.68 9.56C11.41 9.56 11.19 9.76 11.14 10.01C11.13 10.05 11.12 10.08 11.12 10.12C11.12 10.43 11.37 10.68 11.68 10.68C11.99 10.68 12.24 10.43 12.24 10.12C12.24 10.08 12.24 10.05 12.23 10.01ZM9.45 7.33C9.45 8.04 9.79 8.7 10.34 9.12C10.65 8.71 11.14 8.45 11.68 8.45C12.23 8.45 12.71 8.71 13.02 9.12C13.57 8.7 13.91 8.04 13.91 7.33C13.91 6.1 12.91 5.1 11.68 5.1C10.45 5.1 9.45 6.1 9.45 7.33ZM12.24 16.27L14.35 16.27L12.71 11.44C12.43 11.66 12.07 11.8 11.68 11.8C11.29 11.8 10.94 11.66 10.65 11.44L9.01 16.27L11.12 16.27L11.12 15.34C11.12 15.03 11.37 14.78 11.68 14.78C11.99 14.78 12.24 15.03 12.24 15.34L12.24 16.27ZM21.71 30.97C21.4 31.17 21.05 31.3 20.66 31.33L21.15 32.78C21.68 32.36 21.92 31.64 21.71 30.97Z" />
		</g>
	</g>
</svg>