<svg version="1.2" baseProfile="tiny-ps" xmlns="http://www.w3.org/2000/svg" viewBox="0 0 44 46" width="44" height="46">
	<title>index</title>
	<style>
		tspan { white-space:pre }
		.shp0 { fill: #015360 } 
	</style>
	<g id="index.v.1.3">
		<g id="icon-5">
			<g id="Group 206">
				<g id="Group 205">
					<path id="Path 458" fill-rule="evenodd" class="shp0" d="M34.7 0.76L34.7 44.31C34.7 44.65 34.35 45 34.01 45L1.69 45C1.35 45 1 44.65 1 44.31L1 0.76C1 0.41 1.35 0.07 1.69 0.07L34.01 0.07C34.44 0.07 34.7 0.33 34.7 0.76ZM33.32 1.45L2.38 1.45L2.38 43.53L33.32 43.53L33.32 1.45Z" />
				</g>
			</g>
			<g id="Group 208">
				<g id="Group 207">
					<path id="Path 459" class="shp0" d="M31.93 2.14C31.59 2.14 31.24 2.49 31.24 2.83L31.24 41.46L4.54 41.46L4.54 2.83C4.54 2.49 4.2 2.14 3.85 2.14C3.51 2.14 3.16 2.49 3.16 2.83L3.16 42.15C3.16 42.49 3.51 42.84 3.85 42.84L31.93 42.84C32.28 42.84 32.63 42.49 32.63 42.15L32.63 2.83C32.63 2.49 32.28 2.14 31.93 2.14Z" />
				</g>
			</g>
			<g id="Group 210">
				<g id="Group 209">
					<path id="Path 460" class="shp0" d="M13.61 3.26L12.23 0.5C12.06 0.15 11.63 -0.02 11.28 0.15C10.94 0.33 10.76 0.76 10.94 1.1L12.32 3.87C12.41 4.13 12.66 4.22 12.92 4.22C13.01 4.22 13.1 4.22 13.27 4.13C13.61 3.96 13.79 3.61 13.61 3.26Z" />
				</g>
			</g>
			<g id="Group 212">
				<g id="Group 211">
					<path id="Path 461" class="shp0" d="M24.5 0.07C24.16 -0.11 23.73 0.07 23.55 0.41L22.17 3.18C22 3.52 22.17 3.96 22.51 4.13C22.6 4.22 22.69 4.22 22.86 4.22C23.12 4.22 23.38 4.04 23.47 3.87L24.85 1.1C25.02 0.67 24.85 0.24 24.5 0.07Z" />
				</g>
			</g>
			<g id="Group 214">
				<g id="Group 213">
					<path id="Path 462" class="shp0" d="M22.77 2.83L12.92 2.83C12.58 2.83 12.23 3.18 12.23 3.52C12.23 3.87 12.58 4.22 12.92 4.22L22.77 4.22C23.12 4.22 23.47 3.87 23.47 3.52C23.47 3.18 23.21 2.83 22.77 2.83Z" />
				</g>
			</g>
			<g id="Group 216">
				<g id="Group 215">
					<path id="Path 463" class="shp0" d="M31.93 2.14L23.12 2.14C22.77 2.14 22.43 2.49 22.43 2.83C22.43 3.18 22.77 3.52 23.12 3.52L31.93 3.52C32.28 3.52 32.63 3.18 32.63 2.83C32.63 2.49 32.28 2.14 31.93 2.14Z" />
				</g>
			</g>
			<g id="Group 218">
				<g id="Group 217">
					<path id="Path 464" class="shp0" d="M12.58 2.14L3.76 2.14C3.42 2.14 3.07 2.49 3.07 2.83C3.07 3.18 3.42 3.52 3.76 3.52L12.58 3.52C12.92 3.52 13.27 3.18 13.27 2.83C13.27 2.49 13.01 2.14 12.58 2.14Z" />
				</g>
			</g>
			<g id="Group 220">
				<g id="Group 219">
					<path id="Path 465" class="shp0" d="M11.37 12.16L10.68 11.47C10.42 11.21 9.99 11.21 9.73 11.47C9.47 11.73 9.47 12.16 9.73 12.42L10.42 13.12C10.59 13.29 10.76 13.37 10.94 13.37C11.11 13.37 11.28 13.29 11.46 13.2C11.63 12.94 11.63 12.42 11.37 12.16Z" />
				</g>
			</g>
			<g id="Group 222">
				<g id="Group 221">
					<path id="Path 466" class="shp0" d="M12.75 10.78C12.49 10.52 12.06 10.52 11.8 10.78L10.42 12.16C10.16 12.42 10.16 12.86 10.42 13.12C10.59 13.29 10.76 13.29 10.94 13.29C11.11 13.29 11.28 13.2 11.46 13.12L12.84 11.73C13.01 11.47 13.01 11.04 12.75 10.78Z" />
				</g>
			</g>
			<g id="Group 224">
				<g id="Group 223">
					<path id="Path 467" fill-rule="evenodd" class="shp0" d="M15.78 11.65C15.78 14.15 13.7 16.23 11.2 16.23C8.69 16.23 6.62 14.15 6.62 11.65C6.62 9.14 8.69 7.07 11.2 7.07C13.7 7.07 15.78 9.14 15.78 11.65ZM14.39 11.56C14.39 9.75 13.01 8.36 11.2 8.36C9.38 8.36 8 9.75 8 11.56C8 13.37 9.47 14.76 11.2 14.76C12.92 14.76 14.39 13.37 14.39 11.56Z" />
				</g>
			</g>
			<g id="Group 226">
				<g id="Group 225">
					<path id="Path 468" class="shp0" d="M28.39 9.14L18.54 9.14C18.19 9.14 17.85 9.49 17.85 9.83C17.85 10.18 18.19 10.52 18.54 10.52L28.39 10.52C28.74 10.52 29.08 10.18 29.08 9.83C29.08 9.49 28.82 9.14 28.39 9.14Z" />
				</g>
			</g>
			<g id="Group 228">
				<g id="Group 227">
					<path id="Path 469" class="shp0" d="M23.47 11.99L18.54 11.99C18.19 11.99 17.85 12.34 17.85 12.68C17.85 13.03 18.19 13.37 18.54 13.37L23.47 13.37C23.81 13.37 24.16 13.03 24.16 12.68C24.16 12.34 23.9 11.99 23.47 11.99Z" />
				</g>
			</g>
			<g id="Group 230">
				<g id="Group 229">
					<path id="Path 470" class="shp0" d="M11.37 34.63L10.68 33.94C10.42 33.68 9.99 33.68 9.73 33.94C9.47 34.2 9.47 34.63 9.73 34.89L10.42 35.58C10.59 35.75 10.76 35.84 10.94 35.84C11.11 35.84 11.28 35.75 11.46 35.67C11.63 35.41 11.63 34.89 11.37 34.63Z" />
				</g>
			</g>
			<g id="Group 232">
				<g id="Group 231">
					<path id="Path 471" class="shp0" d="M12.75 33.25C12.49 32.99 12.06 32.99 11.8 33.25L10.42 34.63C10.16 34.89 10.16 35.32 10.42 35.58C10.59 35.75 10.76 35.75 10.94 35.75C11.11 35.75 11.28 35.67 11.46 35.58L12.84 34.2C13.01 33.94 13.01 33.51 12.75 33.25Z" />
				</g>
			</g>
			<g id="Group 234">
				<g id="Group 233">
					<path id="Path 472" fill-rule="evenodd" class="shp0" d="M15.78 34.11C15.78 36.62 13.7 38.69 11.2 38.69C8.69 38.69 6.62 36.62 6.62 34.11C6.62 31.61 8.69 29.53 11.2 29.53C13.7 29.53 15.78 31.61 15.78 34.11ZM14.39 34.03C14.39 32.21 13.01 30.83 11.2 30.83C9.38 30.83 8 32.21 8 34.03C8 35.84 9.47 37.22 11.2 37.22C12.92 37.22 14.39 35.84 14.39 34.03Z" />
				</g>
			</g>
			<g id="Group 236">
				<g id="Group 235">
					<path id="Path 473" class="shp0" d="M28.39 31.61L18.54 31.61C18.19 31.61 17.85 31.95 17.85 32.3C17.85 32.64 18.19 32.99 18.54 32.99L28.39 32.99C28.74 32.99 29.08 32.64 29.08 32.3C29.08 31.95 28.82 31.61 28.39 31.61Z" />
				</g>
			</g>
			<g id="Group 238">
				<g id="Group 237">
					<path id="Path 474" class="shp0" d="M23.47 34.46L18.54 34.46C18.19 34.46 17.85 34.8 17.85 35.15C17.85 35.49 18.19 35.84 18.54 35.84L23.47 35.84C23.81 35.84 24.16 35.49 24.16 35.15C24.16 34.8 23.9 34.46 23.47 34.46Z" />
				</g>
			</g>
			<g id="Group 240">
				<g id="Group 239">
					<path id="Path 475" class="shp0" d="M12.75 21.32C12.49 21.06 12.06 21.06 11.8 21.32L9.73 23.4C9.47 23.66 9.47 24.09 9.73 24.35C9.9 24.52 10.07 24.52 10.25 24.52C10.42 24.52 10.59 24.43 10.76 24.35L12.84 22.27C13.01 22.02 13.01 21.58 12.75 21.32Z" />
				</g>
			</g>
			<g id="Group 242">
				<g id="Group 241">
					<path id="Path 476" class="shp0" d="M12.75 23.4L10.59 21.32C10.33 21.06 9.9 21.06 9.64 21.32C9.38 21.58 9.38 22.02 9.64 22.27L11.71 24.35C11.89 24.52 12.06 24.52 12.23 24.52C12.41 24.52 12.58 24.43 12.75 24.35C13.01 24.09 13.01 23.66 12.75 23.4Z" />
				</g>
			</g>
			<g id="Group 244">
				<g id="Group 243">
					<path id="Path 477" fill-rule="evenodd" class="shp0" d="M15.78 22.88C15.78 25.39 13.7 27.46 11.2 27.46C8.69 27.46 6.62 25.39 6.62 22.88C6.62 20.37 8.69 18.3 11.2 18.3C13.7 18.3 15.78 20.37 15.78 22.88ZM14.39 22.79C14.39 20.98 13.01 19.6 11.2 19.6C9.38 19.6 8 20.98 8 22.79C8 24.61 9.47 25.99 11.2 25.99C12.92 25.99 14.39 24.61 14.39 22.79Z" />
				</g>
			</g>
			<g id="Group 246">
				<g id="Group 245">
					<path id="Path 478" class="shp0" d="M28.39 20.37L18.54 20.37C18.19 20.37 17.85 20.72 17.85 21.06C17.85 21.41 18.19 21.76 18.54 21.76L28.39 21.76C28.74 21.76 29.08 21.41 29.08 21.06C29.08 20.72 28.82 20.37 28.39 20.37Z" />
				</g>
			</g>
			<g id="Group 248">
				<g id="Group 247">
					<path id="Path 479" class="shp0" d="M23.47 23.23L18.54 23.23C18.19 23.23 17.85 23.57 17.85 23.92C17.85 24.26 18.19 24.61 18.54 24.61L23.47 24.61C23.81 24.61 24.16 24.26 24.16 23.92C24.16 23.57 23.9 23.23 23.47 23.23Z" />
				</g>
			</g>
			<g id="Group 250">
				<g id="Group 249">
					<path id="Path 480" class="shp0" d="M38.93 9.14C37.81 9.14 36.86 10.09 36.86 11.21C36.86 11.56 37.2 11.91 37.55 11.91C37.9 11.91 38.24 11.56 38.24 11.21C38.24 10.87 38.59 10.52 38.93 10.52C39.28 10.52 39.62 10.87 39.62 11.21C39.62 11.56 39.97 11.91 40.32 11.91C40.66 11.91 41.01 11.56 41.01 11.21C41.01 10.09 40.06 9.14 38.93 9.14Z" />
				</g>
			</g>
			<g id="Group 252">
				<g id="Group 251">
					<path id="Path 481" class="shp0" d="M37.55 10.52C37.2 10.52 36.86 10.87 36.86 11.21L36.86 35.15C36.86 35.49 37.2 35.84 37.55 35.84C37.9 35.84 38.24 35.49 38.24 35.15L38.24 11.3C38.24 10.87 37.9 10.52 37.55 10.52Z" />
				</g>
			</g>
			<g id="Group 254">
				<g id="Group 253">
					<path id="Path 482" class="shp0" d="M40.32 10.52C39.97 10.52 39.62 10.87 39.62 11.21L39.62 35.15C39.62 35.49 39.97 35.84 40.32 35.84C40.66 35.84 41.01 35.49 41.01 35.15L41.01 11.3C41.01 10.87 40.75 10.52 40.32 10.52Z" />
				</g>
			</g>
			<g id="Group 256">
				<g id="Group 255">
					<path id="Path 483" class="shp0" d="M39.54 36.88L38.16 34.8C37.98 34.46 37.46 34.37 37.2 34.63C36.86 34.8 36.77 35.32 37.03 35.58L38.41 37.66C38.59 37.83 38.76 38 39.02 38C39.19 38 39.28 38 39.45 37.91C39.62 37.57 39.71 37.14 39.54 36.88Z" />
				</g>
			</g>
			<g id="Group 258">
				<g id="Group 257">
					<path id="Path 484" class="shp0" d="M40.75 34.54C40.4 34.37 39.97 34.46 39.8 34.72L38.41 36.79C38.24 37.14 38.33 37.57 38.59 37.74C38.67 37.83 38.85 37.83 39.02 37.83C39.28 37.83 39.45 37.74 39.62 37.48L41.01 35.41C41.09 35.24 41.01 34.8 40.75 34.54Z" />
				</g>
			</g>
			<g id="Group 260">
				<g id="Group 259">
					<path id="Path 485" class="shp0" d="M38.93 36.53C38.59 36.53 38.24 36.88 38.24 37.22L38.24 37.91C38.24 38.26 38.59 38.61 38.93 38.61C39.28 38.61 39.62 38.26 39.62 37.91L39.62 37.22C39.62 36.88 39.28 36.53 38.93 36.53Z" />
				</g>
			</g>
			<g id="Group 262">
				<g id="Group 261">
					<path id="Path 486" class="shp0" d="M40.32 32.99L37.55 32.99C37.2 32.99 36.86 33.33 36.86 33.68C36.86 34.03 37.2 34.37 37.55 34.37L40.32 34.37C40.66 34.37 41.01 34.03 41.01 33.68C41.01 33.33 40.75 32.99 40.32 32.99Z" />
				</g>
			</g>
			<g id="Group 264">
				<g id="Group 263">
					<path id="Path 487" class="shp0" d="M41.01 11.3C40.66 11.3 40.32 11.65 40.32 11.99C40.32 12.34 40.66 12.68 41.01 12.68C41.35 12.68 41.7 13.03 41.7 13.37C41.7 13.72 42.04 14.07 42.39 14.07C42.73 14.07 43.08 13.72 43.08 13.37C43.17 12.25 42.22 11.3 41.01 11.3Z" />
				</g>
			</g>
			<g id="Group 266">
				<g id="Group 265">
					<path id="Path 488" class="shp0" d="M42.48 12.68C42.13 12.68 41.78 13.03 41.78 13.37L41.78 21.84C41.78 22.19 42.13 22.53 42.48 22.53C42.82 22.53 43.17 22.19 43.17 21.84L43.17 13.37C43.17 12.94 42.82 12.68 42.48 12.68Z" />
				</g>
			</g>
			<g id="Group 268">
				<g id="Group 267">
					<path id="Path 489" class="shp0" d="M41.01 11.3L40.32 11.3C39.97 11.3 39.62 11.65 39.62 11.99C39.62 12.34 39.97 12.68 40.32 12.68L41.01 12.68C41.35 12.68 41.7 12.34 41.7 11.99C41.7 11.65 41.44 11.3 41.01 11.3Z" />
				</g>
			</g>
			<g id="Group 270">
				<g id="Group 269">
					<path id="Path 490" class="shp0" d="M40.32 17.61L37.55 17.61C37.2 17.61 36.86 17.95 36.86 18.3C36.86 18.65 37.2 18.99 37.55 18.99L40.32 18.99C40.66 18.99 41.01 18.65 41.01 18.3C41.01 17.95 40.75 17.61 40.32 17.61Z" />
				</g>
			</g>
		</g>
	</g>
</svg>