<svg version="1.2" baseProfile="tiny-ps" xmlns="http://www.w3.org/2000/svg" viewBox="0 0 46 37" width="46" height="37">
	<title>index</title>
	<style>
		tspan { white-space:pre }
		.shp0 { fill: #015360 } 
	</style>
	<g id="index.v.1.3">
		<g id="icon-8">
			<g id="Group 274">
				<g id="Group 273">
					<path id="Path 500" fill-rule="evenodd" class="shp0" d="M45 4.5L45 15.02C45 17.24 43.41 19.11 41.26 19.45L41.26 21.74C41.26 21.95 41.19 22.15 41.05 22.29C40.78 22.57 40.29 22.57 40.02 22.29L37.25 19.52L28.52 19.52L28.52 28.52C28.52 31.02 26.52 33.02 24.02 33.02L7.82 33.02L5.05 35.79C4.92 35.93 4.71 36 4.5 36C4.08 36 3.74 35.65 3.74 35.24L3.74 32.95C1.59 32.61 0 30.74 0 28.52L0 18C0 15.51 2.01 13.5 4.5 13.5L16.48 13.5L16.48 4.5C16.48 2.01 18.48 0 20.98 0L40.5 0C42.99 0 45 2.01 45 4.5ZM27 28.45L27 17.93C27 16.27 25.68 14.95 24.02 14.95L4.5 14.95C2.84 14.95 1.52 16.27 1.52 17.93L1.52 28.45C1.52 30.12 2.84 31.43 4.5 31.43C4.92 31.43 5.26 31.78 5.26 32.19L5.26 33.37L6.99 31.64C7.13 31.5 7.34 31.43 7.55 31.43L24.02 31.43C25.68 31.43 27 30.12 27 28.45ZM43.41 14.95L43.41 4.43C43.41 2.77 42.09 1.45 40.43 1.45L20.91 1.45C19.25 1.45 17.93 2.77 17.93 4.43L17.93 13.43L23.95 13.43C26.45 13.43 28.45 15.44 28.45 17.93L37.45 17.93C37.66 17.93 37.87 18 38.01 18.14L39.74 19.87L39.74 18.69C39.74 18.28 40.08 17.93 40.5 17.93C42.16 17.93 43.48 16.62 43.48 14.95L43.41 14.95Z" />
				</g>
			</g>
			<g id="Group 276">
				<g id="Group 275">
					<path id="Path 501" fill-rule="evenodd" class="shp0" d="M10.52 23.19C10.52 24.44 9.48 25.48 8.24 25.48C6.99 25.48 5.95 24.44 5.95 23.19C5.95 22.02 6.99 20.98 8.24 20.98C9.48 20.98 10.52 21.95 10.52 23.19ZM9 23.19C9 22.78 8.65 22.43 8.24 22.43C7.82 22.43 7.48 22.78 7.48 23.19C7.48 23.61 7.82 23.95 8.24 23.95C8.65 23.95 9 23.61 9 23.19Z" />
				</g>
			</g>
			<g id="Group 278">
				<g id="Group 277">
					<path id="Path 502" fill-rule="evenodd" class="shp0" d="M16.48 23.19C16.48 24.44 15.51 25.48 14.26 25.48C13.02 25.48 11.98 24.44 11.98 23.19C11.98 22.02 13.02 20.98 14.26 20.98C15.51 20.98 16.48 21.95 16.48 23.19ZM15.02 23.19C15.02 22.78 14.68 22.43 14.26 22.43C13.85 22.43 13.5 22.78 13.5 23.19C13.5 23.61 13.85 23.95 14.26 23.95C14.68 23.95 15.02 23.61 15.02 23.19Z" />
				</g>
			</g>
			<g id="Group 280">
				<g id="Group 279">
					<path id="Path 503" fill-rule="evenodd" class="shp0" d="M22.43 23.19C22.43 24.44 21.46 25.48 20.22 25.48C18.97 25.48 17.93 24.44 17.93 23.19C17.93 22.02 18.97 20.98 20.22 20.98C21.46 20.98 22.5 21.95 22.43 23.19ZM20.98 23.19C20.98 22.78 20.63 22.43 20.22 22.43C19.8 22.43 19.45 22.78 19.45 23.19C19.45 23.61 19.8 23.95 20.22 23.95C20.63 23.95 20.98 23.61 20.98 23.19Z" />
				</g>
			</g>
			<g id="Group 282">
				<g id="Group 281">
					<path id="Rectangle 77" class="shp0" d="M20.98 4.5L34.48 4.5L34.48 6.02L20.98 6.02L20.98 4.5Z" />
				</g>
			</g>
			<g id="Group 284">
				<g id="Group 283">
					<path id="Rectangle 78" class="shp0" d="M36 4.5L40.5 4.5L40.5 6.02L36 6.02L36 4.5Z" />
				</g>
			</g>
			<g id="Group 286">
				<g id="Group 285">
					<path id="Rectangle 79" class="shp0" d="M20.98 7.48L25.48 7.48L25.48 9L20.98 9L20.98 7.48Z" />
				</g>
			</g>
			<g id="Group 288">
				<g id="Group 287">
					<path id="Rectangle 80" class="shp0" d="M27 7.48L36 7.48L36 9L27 9L27 7.48Z" />
				</g>
			</g>
			<g id="Group 290">
				<g id="Group 289">
					<path id="Rectangle 81" class="shp0" d="M20.98 10.45L40.5 10.45L40.5 11.98L20.98 11.98L20.98 10.45Z" />
				</g>
			</g>
			<g id="Group 292">
				<g id="Group 291">
					<path id="Rectangle 82" class="shp0" d="M28.52 13.5L34.55 13.5L34.55 15.02L28.52 15.02L28.52 13.5Z" />
				</g>
			</g>
			<g id="Group 294">
				<g id="Group 293">
					<path id="Rectangle 83" class="shp0" d="M36 13.5L40.5 13.5L40.5 15.02L36 15.02L36 13.5Z" />
				</g>
			</g>
			<g id="Group 296">
				<g id="Group 295">
					<path id="Rectangle 84" class="shp0" d="M37.52 7.48L40.5 7.48L40.5 9L37.52 9L37.52 7.48Z" />
				</g>
			</g>
		</g>
	</g>
</svg>