<svg version="1.2" baseProfile="tiny-ps" xmlns="http://www.w3.org/2000/svg" viewBox="0 0 46 37" width="46" height="37">
	<title>index</title>
	<style>
		tspan { white-space:pre }
		.shp0 { fill: #015360 } 
	</style>
	<g id="index.v.1.3">
		<g id="icon-2">
			<g id="Group 183">
				<path id="Path 448" fill-rule="evenodd" class="shp0" d="M45 24.78L45 33.78C45 34.2 44.65 34.55 44.24 34.55L36.76 34.55L36.76 35.31C36.76 35.72 36.42 36.07 36 36.07L33.02 36.07C32.61 36.07 32.26 35.72 32.26 35.31L32.26 34.55L12.74 34.55L12.74 35.31C12.74 35.72 12.39 36.07 11.98 36.07L9 36.07C8.58 36.07 8.24 35.72 8.24 35.31L0.76 35.31C0.35 35.31 0 34.96 0 34.55L0 24.78C0 24.37 0.35 24.02 0.76 24.02L8.24 24.02L8.24 23.26C8.24 22.85 8.58 22.5 9 22.5L11.98 22.5C12.39 22.5 12.74 22.85 12.74 23.26L12.74 24.02L17.24 24.02L17.24 19.52C17.24 19.11 17.58 18.76 18 18.76L18.76 18.76L18.76 16.55C18.76 16.13 19.11 15.78 19.52 15.78L20.22 15.78L20.22 14.26L19.52 14.26C19.11 14.26 18.76 13.92 18.76 13.5L18.76 10.52C18.76 10.11 19.11 9.76 19.52 9.76L20.22 9.76L20.22 7.55L15.44 7.55C14.95 7.55 14.47 7.75 14.12 8.1L13.43 8.79C12.81 9.42 11.91 9.76 11.01 9.76C9.14 9.76 7.62 8.24 7.62 6.37L7.62 4.15C7.62 3.25 7.96 2.35 8.58 1.73C9.9 0.42 12.05 0.42 13.36 1.73L14.05 2.42C14.4 2.77 14.88 2.98 15.37 2.98L20.15 2.98L20.15 0.76C20.15 0.35 20.49 0 20.91 0L23.88 0C24.3 0 24.65 0.35 24.65 0.76L24.65 2.98L28.8 2.98C29.28 2.98 29.77 2.77 30.12 2.42L30.81 1.73C31.43 1.11 32.33 0.76 33.23 0.76C35.1 0.76 36.62 2.28 36.62 4.15L36.62 6.37C36.62 7.27 36.28 8.17 35.65 8.79C34.34 10.11 32.19 10.11 30.88 8.79L30.18 8.1C29.84 7.75 29.35 7.55 28.87 7.55L24.72 7.55L24.72 9.76L25.48 9.76C25.89 9.76 26.24 10.11 26.24 10.52L26.24 13.5C26.24 13.92 25.89 14.26 25.48 14.26L24.72 14.26L24.72 15.78L25.48 15.78C25.89 15.78 26.24 16.13 26.24 16.55L26.24 18.76L27 18.76C27.42 18.76 27.76 19.11 27.76 19.52L27.76 24.02L32.26 24.02L32.26 23.26C32.26 22.85 32.61 22.5 33.02 22.5L36 22.5C36.42 22.5 36.76 22.85 36.76 23.26L36.76 24.02L44.24 24.02C44.65 24.02 45 24.37 45 24.78ZM8.31 33.78L8.31 25.55L1.52 25.55L1.52 33.78L8.31 33.78ZM11.22 24.02L9.69 24.02L9.69 34.55L11.22 34.55L11.22 24.02ZM21.74 3.05L23.26 3.05L23.26 1.52L21.74 1.52L21.74 3.05ZM15.37 6.02L28.94 6.02C29.84 6.02 30.74 6.37 31.36 6.99L32.05 7.68C32.4 8.03 32.88 8.24 33.37 8.24C34.41 8.24 35.24 7.41 35.24 6.37L35.24 4.15C35.24 3.67 35.03 3.18 34.68 2.84C33.92 2.08 32.75 2.08 31.98 2.84L31.29 3.53C30.67 4.15 29.77 4.5 28.87 4.5L15.3 4.5C14.4 4.5 13.5 4.15 12.88 3.53L12.18 2.84C11.84 2.49 11.35 2.28 10.87 2.28C9.83 2.28 9 3.12 9 4.15L9 6.37C9 6.85 9.21 7.34 9.55 7.68C10.32 8.45 11.49 8.45 12.25 7.68L12.95 6.99C13.57 6.37 14.47 6.02 15.37 6.02ZM21.74 7.55L21.74 9.76L23.26 9.76L23.26 7.55L21.74 7.55ZM20.22 12.81L24.72 12.81L24.72 11.28L20.22 11.28L20.22 12.81ZM21.74 14.26L21.74 15.78L23.26 15.78L23.26 14.26L21.74 14.26ZM20.22 18.83L24.72 18.83L24.72 17.31L20.22 17.31L20.22 18.83ZM32.26 33.02L32.26 25.55L27 25.55C26.58 25.55 26.24 25.2 26.24 24.78L26.24 20.28L18.76 20.28L18.76 24.78C18.76 25.2 18.42 25.55 18 25.55L12.74 25.55L12.74 33.02L32.26 33.02ZM35.24 24.02L33.72 24.02L33.72 34.55L35.24 34.55L35.24 24.02ZM43.48 25.55L36.69 25.55L36.69 33.02L43.48 33.02L43.48 25.55Z" />
			</g>
		</g>
	</g>
</svg>