<svg version="1.2" baseProfile="tiny-ps" xmlns="http://www.w3.org/2000/svg" viewBox="0 0 46 43" width="46" height="43">
	<title>index</title>
	<style>
		tspan { white-space:pre }
		.shp0 { fill: #015360 } 
	</style>
	<g id="index.v.1.3">
		<g id="icon-9">
			<path id="Path 491" class="shp0" d="M18.37 27.09L17.13 27.09L17.13 24.62C17.13 24.23 16.82 23.92 16.44 23.92C16.05 23.92 15.74 24.23 15.74 24.62L15.74 27.09L14.12 27.09L14.12 21.68C14.12 21.3 13.81 20.99 13.43 20.99C13.04 20.99 12.73 21.3 12.73 21.68L12.73 27.09L11.11 27.09L11.11 24.62C11.11 24.23 10.8 23.92 10.42 23.92C10.03 23.92 9.72 24.23 9.72 24.62L9.72 27.09L8.1 27.09L8.1 21.68C8.1 21.3 7.79 20.99 7.41 20.99C7.02 20.99 6.71 21.3 6.71 21.68L6.71 27.78C6.71 28.17 7.02 28.47 7.41 28.47L18.44 28.47C18.83 28.47 19.14 28.17 19.14 27.78C19.06 27.39 18.75 27.09 18.37 27.09Z" />
			<path id="Path 492" class="shp0" d="M18.37 3.86L7.33 3.86C6.94 3.86 6.64 4.17 6.64 4.55C6.64 4.94 6.94 5.25 7.33 5.25L18.37 5.25C18.75 5.25 19.06 4.94 19.06 4.55C19.06 4.17 18.75 3.86 18.37 3.86Z" />
			<path id="Path 493" class="shp0" d="M18.37 7.25L7.33 7.25C6.94 7.25 6.64 7.56 6.64 7.95C6.64 8.33 6.94 8.64 7.33 8.64L18.37 8.64C18.75 8.64 19.06 8.33 19.06 7.95C19.06 7.56 18.75 7.25 18.37 7.25Z" />
			<path id="Path 494" class="shp0" d="M7.33 12.12L12.89 12.12C13.27 12.12 13.58 11.81 13.58 11.42C13.58 11.03 13.27 10.73 12.89 10.73L7.33 10.73C6.94 10.73 6.64 11.03 6.64 11.42C6.64 11.81 6.94 12.12 7.33 12.12Z" />
			<path id="Path 495" class="shp0" d="M18.37 14.12L7.33 14.12C6.94 14.12 6.64 14.43 6.64 14.82C6.64 15.2 6.94 15.51 7.33 15.51L18.37 15.51C18.75 15.51 19.06 15.2 19.06 14.82C19.06 14.43 18.75 14.12 18.37 14.12Z" />
			<path id="Path 496" class="shp0" d="M18.37 17.52L7.33 17.52C6.94 17.52 6.64 17.83 6.64 18.21C6.64 18.6 6.94 18.91 7.33 18.91L18.37 18.91C18.75 18.91 19.06 18.6 19.06 18.21C19.06 17.9 18.75 17.52 18.37 17.52Z" />
			<path id="Path 497" class="shp0" d="M22.46 4.4C22.07 4.4 21.76 4.71 21.76 5.09L21.76 29.4C21.76 29.79 22.07 30.09 22.46 30.09C22.84 30.09 23.15 29.79 23.15 29.4L23.15 5.09C23.15 4.71 22.84 4.4 22.46 4.4Z" />
			<path id="Path 498" fill-rule="evenodd" class="shp0" d="M44.99 6.4L44.99 37.35C44.99 37.73 44.68 38.04 44.29 38.04L34.57 38.04L34.57 40.67C34.57 41.67 33.72 42.52 32.72 42.52L31.17 42.52C30.17 42.52 29.32 41.67 29.32 40.67L29.32 38.04L25.39 38.04L24.62 38.97C24.46 39.12 24.31 39.2 24.08 39.2L20.99 39.2C20.76 39.2 20.6 39.12 20.45 38.97L19.68 38.04L0.69 38.04C0.31 38.04 0 37.73 0 37.35L0 6.4C0 6.02 0.31 5.71 0.69 5.71L2.85 5.71L2.85 0.69C2.85 0.31 3.16 0 3.55 0L19.75 0C20.83 0 21.76 0.39 22.53 1.08C23.3 0.39 24.31 0 25.31 0L41.52 0C41.9 0 42.21 0.31 42.21 0.69L42.21 5.79L44.37 5.79C44.76 5.79 45.07 6.1 44.99 6.4ZM43.68 36.65L43.68 7.25L42.21 7.25L42.21 31.64C42.21 32.02 41.9 32.33 41.52 32.33L36.81 32.33C36.42 32.33 36.11 32.02 36.11 31.64C36.11 31.25 36.42 30.94 36.81 30.94L40.74 30.94L40.74 1.47L25.23 1.47C24.38 1.47 23.54 1.93 23.07 2.62C22.92 2.78 22.69 2.93 22.46 2.93C22.22 2.93 21.99 2.86 21.84 2.62C21.38 1.93 20.53 1.47 19.68 1.47L4.17 1.47L4.17 30.87L19.68 30.87C20.76 30.87 21.68 31.25 22.46 31.95C23.23 31.25 24.23 30.87 25.23 30.87L27.16 30.87C27.55 30.87 27.86 31.17 27.86 31.56C27.86 31.95 27.55 32.26 27.16 32.26L25.23 32.26C24.46 32.26 23.69 32.64 23.23 33.26L23.23 34.26C23.77 33.95 24.54 33.72 25.23 33.72L27.16 33.72C27.55 33.72 27.86 34.03 27.86 34.42C27.86 34.8 27.55 35.11 27.16 35.11L25.23 35.11C24.38 35.11 23.54 35.57 23.07 36.27C23 36.27 23 36.35 23 36.35C22.92 36.42 22.92 36.42 22.92 36.42C22.84 36.42 22.84 36.42 22.84 36.42C22.84 36.5 22.76 36.5 22.76 36.5L22.15 36.5C22.15 36.42 22.07 36.42 22.07 36.42C21.99 36.42 21.99 36.42 21.99 36.42C21.92 36.35 21.92 36.35 21.92 36.35C21.84 36.35 21.84 36.27 21.84 36.27C21.38 35.57 20.53 35.11 19.68 35.11L3.47 35.11C3.09 35.11 2.78 34.8 2.78 34.42C2.78 34.03 3.09 33.72 3.47 33.72L19.68 33.72C20.37 33.72 21.07 33.88 21.68 34.26L21.68 33.26C21.22 32.64 20.45 32.26 19.68 32.26L3.47 32.26C3.09 32.26 2.78 31.95 2.78 31.56L2.78 7.18L1.31 7.18L1.31 36.65L19.6 36.65C19.99 36.65 20.29 36.81 20.53 37.12L21.14 37.81L23.54 37.81L24.15 37.12C24.38 36.81 24.69 36.65 25.08 36.65L29.17 36.65C29.17 36.58 29.17 9.95 29.17 9.95C29.25 9.88 29.25 9.88 29.25 9.8L31.17 5.17C31.33 4.86 31.56 4.71 31.87 4.71C32.18 4.71 32.49 4.94 32.56 5.17L34.49 9.8C34.57 9.88 34.57 9.88 34.57 9.95L34.57 36.65L43.68 36.65ZM30.79 38.04L33.18 38.04L33.18 36.58L30.79 36.58L30.79 38.04ZM32.8 9.41L31.95 7.41L31.1 9.41L32.8 9.41ZM33.1 40.74L33.1 39.43L30.71 39.43L30.71 40.74C30.71 40.98 30.94 41.21 31.17 41.21L32.72 41.21C32.95 41.21 33.18 40.98 33.1 40.74ZM30.79 10.88L30.79 35.19L33.18 35.19L33.18 10.88L30.79 10.88Z" />
			<path id="Path 499" class="shp0" d="M41.44 33.8L36.73 33.8C36.35 33.8 36.04 34.11 36.04 34.49C36.04 34.88 36.35 35.19 36.73 35.19L41.44 35.19C41.82 35.19 42.13 34.88 42.13 34.49C42.21 34.11 41.82 33.8 41.44 33.8Z" />
		</g>
	</g>
</svg>