<svg version="1.2" baseProfile="tiny-ps" xmlns="http://www.w3.org/2000/svg" viewBox="0 0 46 42" width="46" height="42">
	<title>index</title>
	<style>
		tspan { white-space:pre }
		.shp0 { fill: #015360 } 
	</style>
	<g id="index.v.1.3">
		<g id="icon-1">
			<g id="Group 177">
				<g id="Group 176">
					<path id="Path 445" fill-rule="evenodd" class="shp0" d="M33.87 3.58L30.21 7.24L30.37 7.32C30.68 7.64 30.68 8.28 30.37 8.59L9.21 29.75C9.13 29.83 8.97 29.83 8.89 29.91L3.64 32.06C3.56 32.14 3.4 32.14 3.32 32.14C3.08 32.14 2.85 32.06 2.69 31.9C2.37 31.58 2.29 31.18 2.53 30.86L4.68 25.62C4.68 25.54 4.76 25.38 4.99 25.3L24.08 6.21L24 6.13C23.76 5.89 23.53 5.81 23.29 5.81C22.97 5.81 22.73 5.97 22.57 6.13L17.48 11.22C17.32 11.38 17.08 11.46 16.84 11.46C16.61 11.46 16.37 11.38 16.21 11.22C15.89 10.9 15.89 10.27 16.21 9.95L21.3 4.86C21.78 4.38 22.49 4.06 23.21 4.06C23.92 4.06 24.56 4.3 25.12 4.86L25.28 4.86L25.99 4.14C26.15 3.98 26.39 3.9 26.63 3.9C26.87 3.9 27.03 4.06 27.18 4.22L27.26 4.3L30.92 0.64C31.08 0.48 31.32 0.4 31.56 0.4C31.8 0.4 32.04 0.48 32.19 0.64L33.87 2.31C34.26 2.63 34.26 3.19 33.87 3.58ZM28.46 7.96L26.63 6.13L6.27 26.49L4.99 29.59L8.1 28.32L28.46 7.96ZM32.04 2.95L31.64 2.55L28.62 5.57L29.01 5.97L32.04 2.95Z" />
				</g>
			</g>
			<g id="Group 179">
				<g id="Group 178">
					<path id="Path 446" fill-rule="evenodd" class="shp0" d="M45 11.22L45 40.89C45 41.36 44.6 41.76 44.13 41.76L0.94 41.76C0.54 41.76 0.14 41.52 0.06 41.13C-0.1 40.73 0.06 40.33 0.38 40.09L43.57 10.5C43.89 10.27 44.2 10.27 44.52 10.42C44.76 10.58 45 10.9 45 11.22ZM43.17 39.93L43.25 12.89L3.8 39.93L9.92 39.93L9.92 39.14C9.92 38.66 10.32 38.26 10.8 38.26C11.28 38.26 11.67 38.66 11.67 39.14L11.67 39.93L19.07 39.93L19.07 39.14C19.07 38.66 19.47 38.26 19.95 38.26C20.42 38.26 20.82 38.66 20.82 39.14L20.82 39.93L28.22 39.93L28.22 39.14C28.22 38.66 28.62 38.26 29.09 38.26C29.57 38.26 29.97 38.66 29.97 39.14L29.97 39.93L37.36 39.93L37.36 39.14C37.36 38.66 37.76 38.26 38.24 38.26C38.72 38.26 39.11 38.66 39.11 39.14L39.11 39.93L43.17 39.93Z" />
				</g>
			</g>
			<g id="Group 181">
				<g id="Group 180">
					<path id="Path 447" fill-rule="evenodd" class="shp0" d="M39.11 22.35L39.11 35.08C39.11 35.56 38.72 35.96 38.24 35.96L19.71 35.96C19.31 35.96 18.91 35.72 18.83 35.32C18.67 34.92 18.83 34.52 19.15 34.29L37.68 21.56C38 21.32 38.32 21.32 38.64 21.48C38.96 21.64 39.11 21.96 39.11 22.35ZM37.36 23.95L22.57 34.13L37.36 34.13L37.36 23.95Z" />
				</g>
			</g>
		</g>
	</g>
</svg>