<svg version="1.2" baseProfile="tiny-ps" xmlns="http://www.w3.org/2000/svg" viewBox="0 0 46 42" width="46" height="42">
	<title>index</title>
	<style>
		tspan { white-space:pre }
		.shp0 { fill: #015360 } 
	</style>
	<g id="index.v.1.3">
		<g id="icon-4">
			<g id="Group 201">
				<g id="Group 200">
					<path id="Path 456" fill-rule="evenodd" class="shp0" d="M32.92 13.72L32.92 16.74C32.92 17.14 32.6 17.46 32.2 17.46L25.44 17.46C25.04 17.46 24.73 17.14 24.73 16.74L24.73 13.72C24.73 13.32 25.04 13.01 25.44 13.01L32.2 13.01C32.6 13.01 32.92 13.32 32.92 13.72ZM31.48 14.44L26.24 14.44L26.24 15.95L31.48 15.95L31.48 14.44Z" />
				</g>
			</g>
			<g id="Group 203">
				<g id="Group 202">
					<path id="Path 457" fill-rule="evenodd" class="shp0" d="M45 6.25L45 36.22C45 39.08 42.61 41.47 39.75 41.47L0.72 41.47C0.32 41.47 0 41.15 0 40.75L0 6.25C0 5.85 0.32 5.53 0.72 5.53L4.45 5.53L4.45 4.82C4.45 2.75 6.12 1.08 8.19 1.08C10.26 1.08 11.93 2.75 11.93 4.82L11.93 5.53L34.5 5.53C34.82 2.91 37.05 1 39.67 1C42.61 1 45 3.31 45 6.25ZM43.41 36.22C43.41 34.15 41.74 32.48 39.67 32.48C37.61 32.48 35.94 34.15 35.94 36.22C35.94 36.62 35.62 36.94 35.22 36.94L5.17 36.94C4.77 36.94 4.45 36.62 4.45 36.22L4.45 6.96L1.43 6.96L1.43 40.04L39.67 40.04C41.82 40.04 43.41 38.29 43.41 36.22ZM5.88 35.58L34.43 35.58L34.43 11.57L11.93 11.57L11.93 13.08L22.5 13.08C22.9 13.08 23.22 13.4 23.22 13.8L23.22 19.05L32.12 19.05C32.52 19.05 32.84 19.37 32.84 19.76L32.84 33.28C32.84 33.68 32.52 33.99 32.12 33.99L13.36 33.99C12.96 33.99 12.64 33.68 12.64 33.28L12.64 29.54L11.45 29.54L8.67 32.32C8.43 32.64 7.95 32.64 7.63 32.32L5.88 30.58L5.88 35.58ZM12 14.52L12 20.4L13.52 20.4L13.52 18.17C13.52 17.78 13.83 17.46 14.23 17.46C15.98 17.46 17.49 18.73 17.89 20.48L21.7 20.48L21.7 14.52L12 14.52ZM11.93 28.03L13.44 28.03C13.83 28.03 14.15 28.35 14.15 28.75L14.15 29.54C15.66 29.86 16.78 30.97 17.09 32.48L21.7 32.48L21.7 21.99L11.93 21.99L11.93 28.03ZM14.23 31.13L14.23 32.48L15.58 32.48C15.34 31.85 14.79 31.37 14.23 31.13ZM5.8 4.74L5.8 5.45L10.34 5.45L10.34 4.74C10.34 3.54 9.38 2.51 8.11 2.51C6.92 2.51 5.88 3.46 5.88 4.74L5.8 4.74ZM10.42 28.03L10.42 7.04L8.9 7.04L8.9 28.03L10.42 28.03ZM7 29.46L8.19 30.66L9.38 29.46L7 29.46ZM5.88 27.95L7.39 27.95L7.39 6.96L5.88 6.96L5.88 27.95ZM14.95 19.13L14.95 20.48L16.3 20.48C16.06 19.84 15.58 19.37 14.95 19.13ZM26.16 25.01L31.48 25.01L31.48 20.48L23.22 20.48L23.22 22.07C24.65 22.39 25.84 23.5 26.16 25.01ZM23.22 23.66L23.22 25.01L24.57 25.01C24.33 24.37 23.85 23.82 23.22 23.66ZM23.22 29.46L23.22 32.56L31.48 32.56L31.48 26.52L26.08 26.52C25.84 27.95 24.65 29.14 23.22 29.46ZM23.22 26.52L23.22 27.87C23.85 27.63 24.33 27.16 24.57 26.52L23.22 26.52ZM11.93 9.98L34.43 9.98L34.43 6.96L11.93 6.96L11.93 9.98ZM43.49 32.56L43.49 6.25C43.49 4.18 41.82 2.51 39.75 2.51C37.69 2.51 36.02 4.18 36.02 6.25L36.02 32.56C36.97 31.53 38.32 30.97 39.75 30.97C39.99 30.97 40.15 30.97 40.31 30.97C40.39 30.97 40.47 30.97 40.55 30.97C40.63 31.05 40.79 31.05 40.87 31.05C40.95 31.05 41.02 31.13 41.1 31.13C41.18 31.13 41.26 31.21 41.34 31.21C41.42 31.21 41.5 31.29 41.58 31.29C41.66 31.29 41.74 31.37 41.82 31.37C41.9 31.45 41.98 31.45 42.06 31.53C42.14 31.53 42.22 31.61 42.3 31.61C42.38 31.69 42.46 31.69 42.54 31.77C42.54 31.85 42.61 31.85 42.69 31.93C42.77 32.01 42.85 32.01 42.93 32.09C42.93 32.17 43.01 32.25 43.09 32.25C43.17 32.25 43.25 32.32 43.33 32.4C43.33 32.4 43.41 32.48 43.49 32.56Z" />
				</g>
			</g>
		</g>
	</g>
</svg>