<svg version="1.2" baseProfile="tiny-ps" xmlns="http://www.w3.org/2000/svg" viewBox="0 0 46 43" width="46" height="43">
	<title>index</title>
	<style>
		tspan { white-space:pre }
		.shp0 { fill: #015360 } 
	</style>
	<g id="index.v.1.3">
		<g id="icon-6">
			<g id="Group 333">
				<path id="Path 521" fill-rule="evenodd" class="shp0" d="M45.85 36.34L45.85 40.71C45.85 41.45 45.26 42.11 44.45 42.11L24.17 42.11C23.94 42.11 23.65 42.04 23.43 41.89C23.2 42.04 22.98 42.11 22.69 42.11L2.41 42.11C1.67 42.11 1 41.52 1 40.71L1 30.35C1 27.31 3.59 26.2 3.74 26.13L9.59 23.91L9.59 22.8C8.55 22.06 7.96 20.95 7.73 19.76C6.55 19.61 5.74 18.58 5.74 17.47C5.74 16.95 5.96 16.43 6.25 16.06L6.25 14.21C6.25 12.88 6.7 11.55 7.51 10.44C8.25 9.4 9.44 8.59 10.7 8.22C11.07 8.14 11.44 8.29 11.51 8.66C11.58 9.03 11.44 9.4 11.07 9.47C8.99 10.14 7.51 12.06 7.51 14.28L7.51 15.32C7.59 15.25 7.73 15.25 7.73 15.25C7.96 14.8 8.33 14.58 8.92 14.58C10.77 14.65 12.77 14.14 14.47 13.03C14.91 12.73 15.43 12.8 15.8 13.17C16.84 14.21 17.13 14.51 17.28 14.73C17.36 14.88 17.43 14.95 17.43 15.17L17.58 15.17L17.58 14.21C17.58 11.99 16.1 9.99 13.88 9.4C13.58 9.33 13.36 8.96 13.43 8.59C13.51 8.29 13.88 8.07 14.25 8.14C15.21 8.44 16.02 8.88 16.76 9.47C16.76 8.96 16.99 8.51 17.28 8.14L17.28 6.29C17.28 2.81 20.09 0 23.57 0C27.05 0 29.87 2.81 29.87 6.29L29.87 8.14C30.16 8.59 30.38 9.03 30.38 9.55C31.49 8.66 32.9 8.07 34.45 8.07C37.93 8.07 40.74 10.88 40.74 14.36L40.74 16.13C41.12 16.5 41.26 17.02 41.26 17.54C41.26 18.21 40.97 18.8 40.45 19.24C40.08 19.54 39.63 19.69 39.19 19.76C38.97 20.95 38.3 21.98 37.41 22.72L37.41 23.91L43.26 26.13C43.41 26.2 46 27.31 46 30.35L46 33.23C46 33.6 45.7 33.9 45.33 33.9C44.96 33.9 44.67 33.6 44.67 33.23L44.67 30.35C44.67 28.27 42.89 27.46 42.74 27.38L39.34 26.05L37.86 29.09C37.71 29.31 37.49 29.53 37.19 29.61C36.9 29.68 36.6 29.61 36.38 29.46L36.3 29.38L36.01 29.83L37.49 38.49C37.56 38.78 37.49 39.08 37.27 39.3L35.93 40.71L40.74 40.71L40.74 31.09C40.74 30.72 41.04 30.42 41.41 30.42C41.78 30.42 42.08 30.72 42.08 31.09L42.08 40.71L44.59 40.71C44.59 40.71 44.67 40.71 44.67 40.63L44.67 36.27C44.67 35.9 44.96 35.6 45.33 35.6C45.7 35.6 46 35.9 45.85 36.34ZM7.66 16.58C7.29 16.73 6.99 17.1 6.99 17.47C6.99 17.84 7.29 18.21 7.66 18.36L7.66 16.58ZM37.04 25.09C35.71 26.72 36.01 26.35 35.42 27.09C35.49 27.09 36.9 28.12 36.9 28.12L38.15 25.53L37.04 25.09ZM36.16 24.13L36.16 23.46C35.64 23.68 35.05 23.76 34.45 23.76C33.94 23.76 33.27 23.68 32.75 23.46L32.75 24.13L34.45 26.2L36.16 24.13ZM34.45 28.05L33.71 28.57L33.94 28.94L34.97 28.94L35.19 28.57L34.45 28.05ZM25.2 16.21L25.2 15.54C24.68 15.76 24.09 15.84 23.5 15.84C22.98 15.84 22.32 15.76 21.8 15.54L21.8 16.21L23.5 18.28L25.2 16.21ZM23.57 20.13L22.83 20.65L23.06 21.02L24.09 21.02L24.31 20.65L23.57 20.13ZM18.84 14.21L18.84 15.99C18.98 16.13 19.06 16.28 19.13 16.43L20.47 15.91L20.47 14.8C19.43 14.06 18.84 12.95 18.62 11.77C18.54 11.77 18.39 11.69 18.32 11.69C18.69 12.43 18.84 13.32 18.84 14.21ZM26.98 7.4C26.83 7.25 26.46 6.88 25.87 6.22C24.09 7.33 21.95 7.92 19.87 7.85L19.87 10.95C19.87 12.73 21.35 14.43 23.5 14.43C25.42 14.43 26.98 12.88 26.98 10.95C26.98 9.7 26.98 9.1 26.98 7.4ZM26.53 14.73L26.53 15.91L27.72 16.43C27.79 16.28 27.94 16.21 28.01 16.06L28.01 14.21C28.01 13.32 28.16 12.43 28.53 11.69C28.46 11.77 28.38 11.77 28.24 11.77C28.09 12.95 27.42 13.99 26.53 14.73ZM19.8 17.62L21.06 20.21L21.43 19.98L22.54 19.17L20.91 17.17L19.8 17.62ZM24.46 19.17L25.57 19.98L25.94 20.21L27.2 17.62L26.09 17.17L25.05 18.5L24.46 19.17ZM24.98 21.76L25.72 25.98L31.34 23.83L31.34 22.72C30.38 22.06 29.72 20.95 29.49 19.69C28.98 19.61 28.38 19.32 28.01 18.87L26.9 21.09C26.76 21.32 26.53 21.54 26.24 21.61C25.94 21.69 25.65 21.61 25.35 21.39L24.98 21.76ZM30.75 25.53L32.01 28.12C32.09 28.12 32.75 27.61 33.49 27.09L31.86 25.09L30.75 25.53ZM37.93 15.39C37.78 15.25 37.41 14.88 36.82 14.21C35.05 15.32 32.9 15.91 30.83 15.84L30.83 18.95C30.83 20.65 32.23 22.43 34.45 22.43C36.38 22.43 37.93 20.8 37.93 18.95C37.93 17.69 37.93 17.02 37.93 15.39ZM39.19 16.5L39.19 18.28C39.63 18.13 39.86 17.76 39.86 17.39C39.86 17.02 39.63 16.65 39.19 16.5ZM29.35 14.21L29.2 15.32C29.27 15.25 29.42 15.25 29.42 15.25C29.57 14.8 30.01 14.58 30.53 14.58C32.46 14.65 34.53 14.06 36.16 13.03C36.6 12.73 37.12 12.8 37.49 13.17C38.52 14.21 38.82 14.51 38.97 14.73C39.04 14.88 39.12 14.95 39.12 15.17L39.26 15.17L39.26 14.21C39.26 11.47 37.04 9.25 34.31 9.25C31.57 9.25 29.35 11.47 29.35 14.21ZM28.83 17.47C28.83 17.84 29.12 18.21 29.49 18.36L29.49 16.58C29.12 16.73 28.83 17.02 28.83 17.47ZM28.38 8.59L28.38 10.36C28.46 10.36 28.61 10.29 28.68 10.21C28.83 9.99 28.98 9.77 28.98 9.47C28.98 9.1 28.68 8.73 28.38 8.59ZM18.32 6.29L18.32 7.25C18.39 7.18 18.54 7.18 18.54 7.18C18.69 6.74 19.13 6.51 19.58 6.51C21.5 6.59 23.57 6.07 25.28 4.96C25.72 4.66 26.24 4.74 26.61 5.11C27.5 6.07 27.87 6.44 28.01 6.66C28.16 6.88 28.24 6.96 28.24 7.18L28.38 7.18L28.38 6.22C28.38 3.48 26.16 1.26 23.43 1.26C20.69 1.26 18.47 3.55 18.32 6.29ZM17.95 9.55C17.95 9.92 18.24 10.29 18.62 10.44L18.62 8.66C18.24 8.81 17.95 9.1 17.95 9.55ZM17.43 18.28C17.8 18.13 18.02 17.76 18.02 17.32C18.02 16.95 17.8 16.65 17.43 16.5L17.43 18.28ZM15.58 22.72L15.58 23.91L21.21 26.05L21.95 21.83L21.65 21.39L21.58 21.46C21.35 21.61 21.06 21.69 20.76 21.61C20.47 21.54 20.24 21.39 20.09 21.09L18.91 18.8C18.54 19.32 17.95 19.61 17.36 19.69C17.13 20.87 16.54 21.91 15.58 22.72ZM14.32 24.13L14.32 23.46C13.8 23.61 13.21 23.76 12.62 23.76C12.1 23.76 11.44 23.68 10.92 23.46L10.92 24.13L12.62 26.2L14.32 24.13ZM12.62 28.05L11.88 28.57L12.1 28.94L13.14 28.94L13.36 28.57L12.62 28.05ZM13.51 27.09L14.62 27.9L14.99 28.12L16.25 25.53L15.14 25.09L13.51 27.09ZM12.62 22.43C14.54 22.43 16.1 20.87 16.1 18.95C16.1 17.69 16.1 17.02 16.1 15.39C15.95 15.25 15.58 14.88 14.99 14.21C13.21 15.32 11.07 15.91 8.99 15.84L8.99 18.95C8.99 20.72 10.47 22.43 12.62 22.43ZM8.92 25.53L10.18 28.12L10.55 27.9L11.66 27.09L10.03 25.09L8.92 25.53ZM6.25 40.78L11.14 40.71L9.81 39.3C9.66 39.08 9.51 38.78 9.59 38.49L11.07 29.83L10.77 29.38L10.7 29.46C10.47 29.61 10.18 29.68 9.88 29.61C9.59 29.53 9.36 29.38 9.22 29.09L7.73 26.05L4.33 27.38C4.18 27.46 2.41 28.2 2.41 30.35L2.41 40.71C2.41 40.71 2.41 40.78 2.48 40.78L4.92 40.78L4.92 31.16C4.92 30.79 5.22 30.49 5.59 30.49C5.96 30.49 6.25 30.79 6.25 31.16L6.25 40.78ZM12.62 40.49L14.32 38.56L12.92 30.27L12.25 30.27L10.84 38.56L12.62 40.49ZM22.83 40.63L22.83 30.35C22.83 28.94 21.87 27.83 20.91 27.38L17.5 26.05L16.02 29.09C15.88 29.46 15.51 29.68 15.14 29.68C14.91 29.68 14.69 29.61 14.54 29.46L14.47 29.38L14.17 29.83L15.65 38.49C15.73 38.78 15.65 39.08 15.43 39.3L14.1 40.71L18.91 40.71L18.91 31.09C18.91 30.72 19.21 30.42 19.58 30.42C19.95 30.42 20.24 30.72 20.24 31.09L20.24 40.71L22.76 40.71C22.76 40.71 22.83 40.71 22.83 40.63ZM24.54 26.72L23.8 22.35L23.13 22.35L22.39 26.72C22.83 27.09 23.2 27.46 23.5 27.9C23.8 27.53 24.09 27.09 24.54 26.72ZM28.09 40.78L32.83 40.63L31.49 39.23C31.34 39 31.2 38.71 31.27 38.41L32.75 29.75L32.46 29.31L32.38 29.38C32.16 29.53 31.86 29.61 31.57 29.53C31.27 29.46 31.05 29.31 30.9 29.01L29.42 25.98L26.02 27.31C25.72 27.46 25.28 27.83 24.91 28.2C24.39 28.86 24.17 29.53 24.17 30.35L24.17 40.71C24.17 40.71 24.17 40.78 24.24 40.78L26.76 40.78L26.76 31.16C26.76 30.79 27.05 30.49 27.42 30.49C27.79 30.49 28.09 30.79 28.09 31.16L28.09 40.78ZM34.45 40.49L36.16 38.56L34.75 30.27L34.08 30.27L32.68 38.56L34.45 40.49Z" />
			</g>
		</g>
	</g>
</svg>