<svg version="1.2" baseProfile="tiny-ps" xmlns="http://www.w3.org/2000/svg" viewBox="0 0 46 46" width="46" height="46">
	<title>index</title>
	<style>
		tspan { white-space:pre }
		.shp0 { fill: #015360 } 
	</style>
	<g id="index.v.1.3">
		<g id="icon-3">
			<g id="Group 186">
				<g id="Group 185">
					<path id="Path 449" class="shp0" d="M40.58 8.92L39.12 4.44C38.94 4.01 38.6 3.84 38.17 3.93L38.08 3.93L33.61 6.16C33.27 6.33 33.09 6.76 33.27 7.19C33.44 7.54 33.87 7.71 34.3 7.54L36.71 6.33C30.25 18.04 18.64 25.52 6.33 25.52L6.33 26.98C19.33 26.98 31.63 18.98 38.26 6.51L39.2 9.26C39.37 9.69 39.72 9.86 40.15 9.69C40.49 9.78 40.67 9.35 40.58 8.92Z" />
				</g>
			</g>
			<g id="Group 188">
				<g id="Group 187">
					<path id="Path 450" fill-rule="evenodd" class="shp0" d="M46 1.77L46 35.33C46 35.76 45.66 36.11 45.23 36.11L32.06 36.11L34.73 44.8C34.81 45.23 34.64 45.66 34.21 45.74C33.78 45.83 33.35 45.66 33.27 45.23L31.8 40.49L15.2 40.49L13.73 45.23C13.56 45.66 13.22 45.83 12.79 45.74C12.36 45.57 12.18 45.23 12.27 44.8L14.94 36.11L1.77 36.11C1.34 36.11 1 35.76 1 35.33L1 1.77C1 1.34 1.34 1 1.77 1L45.05 1C45.48 1 45.83 1.26 46 1.77ZM31.37 39.03L30.43 36.02L16.57 36.02L15.63 39.03L31.37 39.03ZM44.28 34.56L44.28 2.46L2.55 2.46L2.55 34.56L44.28 34.56Z" />
				</g>
			</g>
			<g id="Group 190">
				<g id="Group 189">
					<path id="Path 451" fill-rule="evenodd" class="shp0" d="M10.81 29.31L10.81 32.32C10.81 32.75 10.46 33.09 10.03 33.09L7.02 33.09C6.59 33.09 6.25 32.75 6.25 32.32L6.25 29.31C6.25 28.88 6.59 28.53 7.02 28.53L10.03 28.53C10.46 28.53 10.81 28.88 10.81 29.31ZM9.26 30.08L7.8 30.08L7.8 31.54L9.26 31.54L9.26 30.08Z" />
				</g>
			</g>
			<g id="Group 192">
				<g id="Group 191">
					<path id="Path 452" fill-rule="evenodd" class="shp0" d="M18.29 27.85L18.29 32.32C18.29 32.75 17.95 33.09 17.52 33.09L14.51 33.09C14.08 33.09 13.73 32.75 13.73 32.32L13.73 27.85C13.73 27.41 14.08 27.07 14.51 27.07L17.52 27.07C17.86 27.07 18.21 27.41 18.29 27.85ZM16.75 28.53L15.28 28.53L15.28 31.54L16.75 31.54L16.75 28.53Z" />
				</g>
			</g>
			<g id="Group 194">
				<g id="Group 193">
					<path id="Path 453" fill-rule="evenodd" class="shp0" d="M25.69 24.83L25.69 32.32C25.69 32.75 25.35 33.09 24.92 33.09L21.91 33.09C21.48 33.09 21.13 32.75 21.13 32.32L21.13 24.83C21.13 24.4 21.48 24.06 21.91 24.06L24.92 24.06C25.35 24.06 25.69 24.4 25.69 24.83ZM24.23 25.61L22.77 25.61L22.77 31.54L24.23 31.54L24.23 25.61Z" />
				</g>
			</g>
			<g id="Group 196">
				<g id="Group 195">
					<path id="Path 454" fill-rule="evenodd" class="shp0" d="M33.18 20.36L33.18 32.32C33.18 32.75 32.84 33.09 32.41 33.09L29.39 33.09C28.96 33.09 28.62 32.75 28.62 32.32L28.62 20.36C28.62 19.93 28.96 19.58 29.39 19.58L32.41 19.58C32.84 19.58 33.18 19.93 33.18 20.36ZM31.63 21.13L30.17 21.13L30.17 31.54L31.63 31.54L31.63 21.13Z" />
				</g>
			</g>
			<g id="Group 198">
				<g id="Group 197">
					<path id="Path 455" fill-rule="evenodd" class="shp0" d="M40.67 12.19L40.67 32.32C40.67 32.75 40.32 33.09 39.89 33.09L36.88 33.09C36.45 33.09 36.1 32.75 36.1 32.32L36.1 12.19C36.1 11.76 36.45 11.41 36.88 11.41L39.89 11.41C40.23 11.41 40.58 11.76 40.67 12.19ZM39.12 12.87L37.65 12.87L37.65 31.54L39.12 31.54L39.12 12.87Z" />
				</g>
			</g>
		</g>
	</g>
</svg>