<svg version="1.2" baseProfile="tiny-ps" xmlns="http://www.w3.org/2000/svg" viewBox="0 0 46 46" width="46" height="46">
	<title>index</title>
	<style>
		tspan { white-space:pre }
		.shp0 { fill: #015360 } 
	</style>
	<g id="index.v.1.3">
		<g id="icon-7">
			<g id="Group 299">
				<g id="Group 298">
					<path id="Path 504" fill-rule="evenodd" class="shp0" d="M34.42 1.71L34.42 44.42C34.42 44.82 34.11 45.13 33.71 45.13L0.71 45.13C0.32 45.13 0 44.82 0 44.42L0 1.71C0 1.32 0.32 1 0.71 1L33.71 1C34.11 1 34.42 1.32 34.42 1.71ZM32.92 43.71L32.92 2.5L1.42 2.5L1.42 43.71L32.92 43.71Z" />
				</g>
			</g>
			<g id="Group 301">
				<g id="Group 300">
					<path id="Path 505" class="shp0" d="M20.92 8.42L13.42 8.42C13.03 8.42 12.71 8.74 12.71 9.13C12.71 9.53 13.03 9.84 13.42 9.84L20.92 9.84C21.32 9.84 21.63 9.53 21.63 9.13C21.63 8.74 21.32 8.42 20.92 8.42Z" />
				</g>
			</g>
			<g id="Group 303">
				<g id="Group 302">
					<path id="Path 506" class="shp0" d="M11.21 17.42L6.71 17.42C6.32 17.42 6 17.74 6 18.13C6 18.53 6.32 18.84 6.71 18.84L11.21 18.84C11.61 18.84 11.92 18.53 11.92 18.13C11.92 17.74 11.61 17.42 11.21 17.42Z" />
				</g>
			</g>
			<g id="Group 305">
				<g id="Group 304">
					<path id="Path 507" class="shp0" d="M30.71 17.42L14.21 17.42C13.82 17.42 13.5 17.74 13.5 18.13C13.5 18.53 13.82 18.84 14.21 18.84L30.71 18.84C31.11 18.84 31.42 18.53 31.42 18.13C31.42 17.74 31.11 17.42 30.71 17.42Z" />
				</g>
			</g>
			<g id="Group 307">
				<g id="Group 306">
					<path id="Path 508" class="shp0" d="M30.71 20.42L3.71 20.42C3.32 20.42 3 20.74 3 21.13C3 21.53 3.32 21.84 3.71 21.84L30.71 21.84C31.11 21.84 31.42 21.53 31.42 21.13C31.42 20.74 31.11 20.42 30.71 20.42Z" />
				</g>
			</g>
			<g id="Group 309">
				<g id="Group 308">
					<path id="Path 509" class="shp0" d="M23.21 23.42L3.71 23.42C3.32 23.42 3 23.74 3 24.13C3 24.53 3.32 24.84 3.71 24.84L23.21 24.84C23.6 24.84 23.92 24.53 23.92 24.13C23.92 23.74 23.6 23.42 23.21 23.42Z" />
				</g>
			</g>
			<g id="Group 311">
				<g id="Group 310">
					<path id="Path 510" class="shp0" d="M30.71 23.42L26.21 23.42C25.82 23.42 25.5 23.74 25.5 24.13C25.5 24.53 25.82 24.84 26.21 24.84L30.71 24.84C31.11 24.84 31.42 24.53 31.42 24.13C31.42 23.74 31.11 23.42 30.71 23.42Z" />
				</g>
			</g>
			<g id="Group 313">
				<g id="Group 312">
					<path id="Path 511" class="shp0" d="M30.71 26.42L17.21 26.42C16.82 26.42 16.5 26.74 16.5 27.13C16.5 27.53 16.82 27.84 17.21 27.84L30.71 27.84C31.11 27.84 31.42 27.53 31.42 27.13C31.42 26.74 31.11 26.42 30.71 26.42Z" />
				</g>
			</g>
			<g id="Group 315">
				<g id="Group 314">
					<path id="Path 512" class="shp0" d="M14.21 26.42L3.71 26.42C3.32 26.42 3 26.74 3 27.13C3 27.53 3.32 27.84 3.71 27.84L14.21 27.84C14.6 27.84 14.92 27.53 14.92 27.13C14.92 26.74 14.6 26.42 14.21 26.42Z" />
				</g>
			</g>
			<g id="Group 317">
				<g id="Group 316">
					<path id="Path 513" class="shp0" d="M30.71 29.42L27.71 29.42C27.32 29.42 27 29.74 27 30.13C27 30.53 27.32 30.84 27.71 30.84L30.71 30.84C31.11 30.84 31.42 30.53 31.42 30.13C31.42 29.74 31.11 29.42 30.71 29.42Z" />
				</g>
			</g>
			<g id="Group 319">
				<g id="Group 318">
					<path id="Path 514" class="shp0" d="M7.42 29.42L3.71 29.42C3.32 29.42 3 29.74 3 30.13C3 30.53 3.32 30.84 3.71 30.84L7.42 30.84C7.82 30.84 8.13 30.53 8.13 30.13C8.13 29.74 7.89 29.42 7.42 29.42Z" />
				</g>
			</g>
			<g id="Group 321">
				<g id="Group 320">
					<path id="Path 515" class="shp0" d="M24.71 29.42L10.5 29.42C10.1 29.42 9.79 29.74 9.79 30.13C9.79 30.53 10.1 30.84 10.5 30.84L24.71 30.84C25.11 30.84 25.42 30.53 25.42 30.13C25.42 29.74 25.11 29.42 24.71 29.42Z" />
				</g>
			</g>
			<g id="Group 323">
				<g id="Group 322">
					<path id="Path 516" class="shp0" d="M29.92 38.42L19.42 38.42C19.03 38.42 18.71 38.74 18.71 39.13C18.71 39.53 19.03 39.84 19.42 39.84L29.92 39.84C30.32 39.84 30.63 39.53 30.63 39.13C30.63 38.74 30.32 38.42 29.92 38.42Z" />
				</g>
			</g>
			<g id="Group 325">
				<g id="Group 324">
					<path id="Path 517" class="shp0" d="M23.92 5.5L10.42 5.5C10.03 5.5 9.71 5.82 9.71 6.21C9.71 6.61 10.03 6.92 10.42 6.92L23.92 6.92C24.32 6.92 24.63 6.61 24.63 6.21C24.63 5.82 24.32 5.5 23.92 5.5Z" />
				</g>
			</g>
			<g id="Group 327">
				<g id="Group 326">
					<path id="Path 518" fill-rule="evenodd" class="shp0" d="M45 8.42L45 15.92L43.5 15.92L43.5 9.21L42 9.21L42 34.71C42 36.84 41.13 38.89 39.63 40.39L39.47 40.55C39.24 40.87 38.76 40.87 38.45 40.55L38.29 40.39C36.79 38.89 35.92 36.84 35.92 34.71L35.92 7.71C35.92 6.05 37.26 4.71 38.92 4.71C40.58 4.71 41.92 6.05 41.92 7.71L44.13 7.71C44.61 7.71 44.92 8.03 45 8.42ZM40.34 35.42L37.5 35.42C37.58 36.68 38.13 37.87 38.92 38.82C39.71 37.87 40.26 36.68 40.34 35.42ZM40.42 9.21L37.42 9.21L37.42 33.92L40.42 33.92L40.42 9.21ZM40.42 7.71C40.42 6.84 39.71 6.21 38.92 6.21C38.05 6.21 37.42 6.92 37.42 7.71L40.42 7.71Z" />
				</g>
			</g>
			<g id="Group 329">
				<g id="Group 328">
					<path id="Path 519" class="shp0" d="M30.71 12.92L21.71 12.92C21.32 12.92 21 13.24 21 13.63C21 14.03 21.32 14.34 21.71 14.34L30.71 14.34C31.11 14.34 31.42 14.03 31.42 13.63C31.42 13.24 31.11 12.92 30.71 12.92Z" />
				</g>
			</g>
			<g id="Group 331">
				<g id="Group 330">
					<path id="Path 520" class="shp0" d="M20.21 32.42L3.71 32.42C3.32 32.42 3 32.74 3 33.13C3 33.53 3.32 33.84 3.71 33.84L20.21 33.84C20.61 33.84 20.92 33.53 20.92 33.13C20.92 32.74 20.61 32.42 20.21 32.42Z" />
				</g>
			</g>
		</g>
	</g>
</svg>