<?xml version="1.0" encoding="utf-8"?>
<!-- Generator: Adobe Illustrator 22.0.0, SVG Export Plug-In . SVG Version: 6.00 Build 0)  -->
<svg version="1.1" id="Layer_1" xmlns="http://www.w3.org/2000/svg" xmlns:xlink="http://www.w3.org/1999/xlink" x="0px" y="0px"
	 viewBox="0 0 216.6 69" style="enable-background:new 0 0 216.6 69;" xml:space="preserve">
<style type="text/css">
	.st0{fill:url(#SVGID_1_);}
	.st1{fill:url(#SVGID_2_);}
	.st2{fill:#112944;}
	.st3{fill:url(#SVGID_3_);}
	.st4{fill:url(#SVGID_4_);}
	.st5{fill:url(#SVGID_5_);}
	.st6{fill:url(#SVGID_6_);}
	.st7{fill:url(#SVGID_7_);}
	.st8{fill:#FFFFFF;}
	.st9{fill:url(#SVGID_8_);}
</style>
<g transform="translate(120 27.567)">
	<g transform="translate(-120 -27.567)">
		
			<radialGradient id="SVGID_1_" cx="42.201" cy="984.069" r="38.826" gradientTransform="matrix(1 0 0 1 -12.485 -966.444)" gradientUnits="userSpaceOnUse">
			<stop  offset="0" style="stop-color:#112A45"/>
			<stop  offset="0.46" style="stop-color:#112A45"/>
			<stop  offset="0.68" style="stop-color:#1F5866"/>
			<stop  offset="0.92" style="stop-color:#329390"/>
			<stop  offset="1" style="stop-color:#329390"/>
		</radialGradient>
		<path class="st0" d="M8.2,34.5C8.2,49,20,60.8,34.5,60.8l0,0C49,60.8,60.8,49,60.8,34.5l0,0C61.1,20,49.5,8,35,7.7
			S8.5,19,8.2,33.5C8.2,33.8,8.2,34.2,8.2,34.5L8.2,34.5z"/>
		
			<linearGradient id="SVGID_2_" gradientUnits="userSpaceOnUse" x1="-1003.8458" y1="13.8026" x2="-1003.1558" y2="14.8665" gradientTransform="matrix(68.916 0 0 68.958 69191.7188 -953.9988)">
			<stop  offset="0" style="stop-color:#B3B3B3"/>
			<stop  offset="0.57" style="stop-color:#786D7F"/>
			<stop  offset="0.72" style="stop-color:#393058"/>
			<stop  offset="0.9" style="stop-color:#938980"/>
			<stop  offset="1" style="stop-color:#938980"/>
		</linearGradient>
		<path class="st1" d="M0,34.5C0,53.5,15.4,69,34.5,69S69,53.6,69,34.5l0,0C68.9,15.5,53.5,0,34.5,0l0,0C15.4,0,0,15.5,0,34.5z
			 M7.2,34.5c0-15.1,12.2-27.3,27.3-27.3l0,0c15.1,0,27.3,12.2,27.3,27.3l0,0c0,15.1-12.2,27.3-27.3,27.3l0,0
			C19.4,61.8,7.2,49.6,7.2,34.5z"/>
		<path class="st2" d="M9.6,42.4L9.5,42C5.1,28.2,12.8,13.4,26.7,9.1s28.6,3.4,32.9,17.2c0.8,2.6,1.2,5.2,1.2,7.9v0.3l-0.1-2.4
			C59.2,17.7,46.3,7.3,31.9,8.7C17.6,10.2,7.1,23.1,8.6,37.4C8.7,38.3,8.8,39.2,9,40L9.6,42.4z"/>
		
			<linearGradient id="SVGID_3_" gradientUnits="userSpaceOnUse" x1="-952.4477" y1="61.0981" x2="-952.4477" y2="63.0421" gradientTransform="matrix(15.474 0 0 15.4945 14773.376 -940.2875)">
			<stop  offset="0" style="stop-color:#112A45"/>
			<stop  offset="0.1" style="stop-color:#0E233B"/>
			<stop  offset="0.2" style="stop-color:#0D1D32"/>
			<stop  offset="0.3" style="stop-color:#0B1A2A"/>
			<stop  offset="0.4" style="stop-color:#0A1421"/>
			<stop  offset="0.5" style="stop-color:#0A121A"/>
			<stop  offset="0.6" style="stop-color:#0A0E14"/>
			<stop  offset="0.7" style="stop-color:#0A0C0F"/>
			<stop  offset="0.8" style="stop-color:#090A0B"/>
			<stop  offset="0.9" style="stop-color:#090808"/>
			<stop  offset="1" style="stop-color:#070606"/>
		</linearGradient>
		<path class="st3" d="M27.5,21.4c0,4.3,3.5,7.7,7.7,7.7c4.3,0,7.7-3.5,7.7-7.7l0,0l0,0c0-4.3-3.5-7.7-7.7-7.8l0,0
			C31,13.7,27.5,17.2,27.5,21.4z"/>
		
			<linearGradient id="SVGID_4_" gradientUnits="userSpaceOnUse" x1="-999.413" y1="36.5686" x2="-998.413" y2="36.5686" gradientTransform="matrix(52.596 0 0 26.451 52573.3242 -919.7264)">
			<stop  offset="0" style="stop-color:#000000"/>
			<stop  offset="1" style="stop-color:#FFFFFF"/>
		</linearGradient>
		<path class="st4" d="M8.2,34.8L8.2,34.8c0,12.8,9.2,23.8,21.8,26l0,0l-0.6-1.4C17.3,57,8.5,46.6,8.2,34.3l0,0
			C8.2,34.4,8.2,34.6,8.2,34.8z M39.7,59.3l-0.6,1.4c12.5-2.3,21.6-13.2,21.6-25.9l0,0c0-0.2,0-0.4,0-0.5
			C60.4,46.5,51.7,56.9,39.7,59.3L39.7,59.3z"/>
		
			<linearGradient id="SVGID_5_" gradientUnits="userSpaceOnUse" x1="-884.1887" y1="-33.6533" x2="-1010.1158" y2="74.6007" gradientTransform="matrix(14.469 0 0 46.301 13761.1084 -939.8826)">
			<stop  offset="0" style="stop-color:#112A45"/>
			<stop  offset="0.77" style="stop-color:#070606"/>
			<stop  offset="1" style="stop-color:#112A45"/>
		</linearGradient>
		<path class="st5" d="M51.2,14.5c-0.1-0.2-0.2-0.3-0.3-0.4l0,0C51,14.3,51.1,14.4,51.2,14.5z M52.5,29.2L52.5,29.2
			c2-5.7-0.2-12.7-1.3-14.6l0,0c2.7,4.5,3,12,1.3,15.1l0,0C47.8,40,43.9,49.6,40,60.3l-0.9,0.2L52.5,29.2z"/>
		
			<radialGradient id="SVGID_6_" cx="508.1346" cy="1431.229" r="26.88" gradientTransform="matrix(0.681 0 0 0.682 -345.183 -967.446)" gradientUnits="userSpaceOnUse">
			<stop  offset="0" style="stop-color:#58BCB8"/>
			<stop  offset="0.15" style="stop-color:#58BCB8"/>
			<stop  offset="0.42" style="stop-color:#5FC0BA"/>
			<stop  offset="0.64" style="stop-color:#378293"/>
			<stop  offset="0.87" style="stop-color:#165174"/>
			<stop  offset="1" style="stop-color:#165174"/>
		</radialGradient>
		<path class="st6" d="M24.1,13c-7.9,3.8-12.7,10.2-10.8,14.2l0,0c1.9,4,9.9,4.2,17.8,0.3l0,0c7.9-3.8,12.7-10.2,10.8-14.2l0,0
			c-1-2.1-3.6-3.1-7-3.1C31.2,10.4,27.5,11.3,24.1,13L24.1,13z"/>
		
			<linearGradient id="SVGID_7_" gradientUnits="userSpaceOnUse" x1="-961.394" y1="15.6025" x2="-933.607" y2="35.8805" gradientTransform="matrix(14.738 0 0 39.68 14016 -941.8508)">
			<stop  offset="0" style="stop-color:#112A45"/>
			<stop  offset="0.1" style="stop-color:#0F243C"/>
			<stop  offset="0.2" style="stop-color:#0F2136"/>
			<stop  offset="0.3" style="stop-color:#0E1E2F"/>
			<stop  offset="0.4" style="stop-color:#0E1C2A"/>
			<stop  offset="0.5" style="stop-color:#0E1924"/>
			<stop  offset="0.6" style="stop-color:#0F161F"/>
			<stop  offset="0.7" style="stop-color:#0F1319"/>
			<stop  offset="0.8" style="stop-color:#101114"/>
			<stop  offset="0.9" style="stop-color:#100F10"/>
			<stop  offset="1" style="stop-color:#100D0D"/>
		</linearGradient>
		<path class="st7" d="M19.9,12.6L19.9,12.6l14.6,39.2l0.1-0.7c-5-13.1-9.2-23.7-14.1-39L19.9,12.6z"/>
		<path class="st8" d="M48.7,12.2l0.6,0.4L34.7,51.9l-0.1-0.7C39.5,38.1,43.7,27.5,48.7,12.2z"/>
		
			<radialGradient id="SVGID_8_" cx="22.434" cy="981.114" r="60.353" gradientTransform="matrix(1 0 0 1 -1.941 -955.975)" gradientUnits="userSpaceOnUse">
			<stop  offset="0" style="stop-color:#FFFFFF"/>
			<stop  offset="0.19" style="stop-color:#FFFFFF"/>
			<stop  offset="0.61" style="stop-color:#9F9D9E"/>
			<stop  offset="0.89" style="stop-color:#494F5D"/>
			<stop  offset="0.96" style="stop-color:#585A5F"/>
			<stop  offset="1" style="stop-color:#646462"/>
			<stop  offset="1" style="stop-color:#696865"/>
		</radialGradient>
		<path class="st9" d="M1.3,34.5c0,18.3,14.9,33.2,33.2,33.2s33.2-14.9,33.2-33.2S52.8,1.3,34.5,1.3l0,0C16.1,1.3,1.3,16.2,1.3,34.5
			L1.3,34.5z M19.9,12.6c4.3-2.9,9.4-4.4,14.6-4.4l0,0c5.3,0,10.4,1.6,14.7,4.5l0,0L34.6,51.9L19.9,12.6z M8.2,34.5
			c0-8.1,3.7-15.7,10.1-20.7l0,0c-2,4.3-3.7,9.1-2,14.6l0,0l13.7,32C17.4,58.2,8.2,47.3,8.2,34.5z M52.6,28.8
			c1.7-5.7,0.2-10.6-1.6-14.8l0,0c6.2,5,9.8,12.5,9.8,20.5l0,0c0,12.7-9.1,23.6-21.6,25.9l0,0L52.6,28.8L52.6,28.8z M27.1,20.7
			L27.1,20.7c0-4.3,3.5-7.7,7.7-7.8l0,0c4.3,0,7.7,3.5,7.7,7.8l0,0c0,4.3-3.5,7.7-7.7,7.7l0,0C30.6,28.5,27.1,25,27.1,20.7z"/>
	</g>
</g>
<g>
	<path class="st8" d="M100.6,26.3c1.8,2,2.8,5.1,2.8,8.7c0,3.6-1,6.6-2.8,8.7c-1.3,1.5-3.5,3-7,3s-5.7-1.5-7-3
		c-1.8-2-2.8-5.1-2.8-8.7c0-3.6,1-6.7,2.8-8.7c1.3-1.5,3.5-3,7-3S99.3,24.9,100.6,26.3z M89.9,29.2c-0.4,0.8-0.9,2.2-0.9,5.8
		c0,3.6,0.5,4.9,0.9,5.8c0.6,1.2,1.6,2.4,3.7,2.4s3.1-1.2,3.7-2.4c0.4-0.8,0.9-2.2,0.9-5.8c0-3.6-0.5-5-0.9-5.8
		c-0.4-0.8-1.3-2.4-3.7-2.4S90.3,28.5,89.9,29.2z"/>
	<path class="st8" d="M123.1,26.3c1.8,2,2.8,5.1,2.8,8.7c0,3.6-1,6.6-2.8,8.7c-1.3,1.5-3.5,3-7,3s-5.7-1.5-7-3
		c-1.8-2-2.8-5.1-2.8-8.7c0-3.6,1-6.7,2.8-8.7c1.3-1.5,3.5-3,7-3S121.8,24.9,123.1,26.3z M112.3,29.2c-0.4,0.8-0.9,2.2-0.9,5.8
		c0,3.6,0.5,4.9,0.9,5.8c0.6,1.2,1.6,2.4,3.7,2.4s3.1-1.2,3.7-2.4c0.4-0.8,0.9-2.2,0.9-5.8c0-3.6-0.5-5-0.9-5.8
		c-0.4-0.8-1.3-2.4-3.7-2.4S112.7,28.5,112.3,29.2z"/>
	<path class="st8" d="M145.5,26.3c1.8,2,2.8,5.1,2.8,8.7c0,3.6-1,6.6-2.8,8.7c-1.3,1.5-3.5,3-7,3c-3.5,0-5.7-1.5-7-3
		c-1.8-2-2.8-5.1-2.8-8.7c0-3.6,1-6.7,2.8-8.7c1.3-1.5,3.5-3,7-3C142,23.4,144.3,24.9,145.5,26.3z M134.8,29.2
		c-0.4,0.8-0.9,2.2-0.9,5.8c0,3.6,0.5,4.9,0.9,5.8c0.6,1.2,1.6,2.4,3.7,2.4c2.1,0,3.1-1.2,3.7-2.4c0.4-0.8,0.9-2.2,0.9-5.8
		c0-3.6-0.5-5-0.9-5.8c-0.4-0.8-1.3-2.4-3.7-2.4C136.1,26.8,135.2,28.5,134.8,29.2z"/>
	<path class="st8" d="M171.1,46.3V35.1c0-1.1,0.1-3.3,0.2-4.8c-0.6,1.8-1,2.7-1.6,3.9l-5.5,12h-4.8V23.7h4.6v11.2
		c0,1.1-0.1,3.3-0.2,4.8c0.6-1.8,1-2.7,1.6-3.9l5.5-12h4.8v22.6H171.1z"/>
	<path class="st8" d="M185.2,42.6h5.9V23.7h4.6v18.9h2.3v9.3h-4.4v-5.6h-13.1V23.7h4.6V42.6z"/>
	<path class="st8" d="M212,46.3V27.5h-6.2v18.8h-4.5V23.7h15.3v22.6H212z"/>
</g>
</svg>
