<?xml version="1.0" encoding="utf-8"?>
<!-- Generator: Adobe Illustrator 22.0.0, SVG Export Plug-In . SVG Version: 6.00 Build 0)  -->
<svg version="1.1" id="Layer_1" xmlns="http://www.w3.org/2000/svg" xmlns:xlink="http://www.w3.org/1999/xlink" x="0px" y="0px"
	 viewBox="0 0 300 69" style="enable-background:new 0 0 300 69;" xml:space="preserve">
<style type="text/css">
	.st0{fill:url(#SVGID_1_);}
	.st1{fill:url(#SVGID_2_);}
	.st2{fill:#112944;}
	.st3{fill:url(#SVGID_3_);}
	.st4{fill:url(#SVGID_4_);}
	.st5{fill:url(#SVGID_5_);}
	.st6{fill:url(#SVGID_6_);}
	.st7{fill:url(#SVGID_7_);}
	.st8{fill:#FFFFFF;}
	.st9{fill:url(#SVGID_8_);}
	.st10{fill:#544949;}
</style>
<g transform="translate(120 27.567)">
	<g transform="translate(-120 -27.567)">
		
			<radialGradient id="SVGID_1_" cx="42.201" cy="39.931" r="38.826" gradientTransform="matrix(1 0 0 -1 -12.485 57.556)" gradientUnits="userSpaceOnUse">
			<stop  offset="0" style="stop-color:#112A45"/>
			<stop  offset="0.46" style="stop-color:#112A45"/>
			<stop  offset="0.68" style="stop-color:#1F5866"/>
			<stop  offset="0.92" style="stop-color:#329390"/>
			<stop  offset="1" style="stop-color:#329390"/>
		</radialGradient>
		<path class="st0" d="M8.2,34.5c0,14.5,11.8,26.3,26.3,26.3l0,0C49,60.8,60.8,49,60.8,34.5l0,0C61.1,20,49.5,8,35,7.7
			S8.5,19,8.2,33.5C8.2,33.8,8.2,34.2,8.2,34.5L8.2,34.5z"/>
		
			<linearGradient id="SVGID_2_" gradientUnits="userSpaceOnUse" x1="-481.7495" y1="540.1147" x2="-481.0595" y2="539.0507" gradientTransform="matrix(68.916 0 0 -68.958 33210.9258 37243.0273)">
			<stop  offset="0" style="stop-color:#B3B3B3"/>
			<stop  offset="0.57" style="stop-color:#786D7F"/>
			<stop  offset="0.72" style="stop-color:#393058"/>
			<stop  offset="0.9" style="stop-color:#938980"/>
			<stop  offset="1" style="stop-color:#938980"/>
		</linearGradient>
		<path class="st1" d="M0,34.5C0,53.5,15.4,69,34.5,69s34.5-15.4,34.5-34.5l0,0C68.9,15.5,53.5,0,34.5,0l0,0C15.4,0,0,15.5,0,34.5z
			 M7.2,34.5c0-15.1,12.2-27.3,27.3-27.3l0,0c15.1,0,27.3,12.2,27.3,27.3l0,0c0,15.1-12.2,27.3-27.3,27.3l0,0
			C19.4,61.8,7.2,49.6,7.2,34.5z"/>
		<path class="st2" d="M9.6,42.4L9.5,42C5.1,28.2,12.8,13.4,26.7,9.1s28.6,3.4,32.9,17.2c0.8,2.6,1.2,5.2,1.2,7.9l0,0.3l-0.1-2.4
			C59.2,17.7,46.3,7.3,31.9,8.7C17.6,10.2,7.1,23.1,8.6,37.4C8.7,38.3,8.8,39.2,9,40L9.6,42.4z"/>
		
			<linearGradient id="SVGID_3_" gradientUnits="userSpaceOnUse" x1="-456.8986" y1="516.687" x2="-456.8986" y2="514.743" gradientTransform="matrix(15.474 0 0 -15.4945 7105.2861 8012.2041)">
			<stop  offset="0" style="stop-color:#112A45"/>
			<stop  offset="0.1" style="stop-color:#0E233B"/>
			<stop  offset="0.2" style="stop-color:#0D1D32"/>
			<stop  offset="0.3" style="stop-color:#0B1A2A"/>
			<stop  offset="0.4" style="stop-color:#0A1421"/>
			<stop  offset="0.5" style="stop-color:#0A121A"/>
			<stop  offset="0.6" style="stop-color:#0A0E14"/>
			<stop  offset="0.7" style="stop-color:#0A0C0F"/>
			<stop  offset="0.8" style="stop-color:#090A0B"/>
			<stop  offset="0.9" style="stop-color:#090808"/>
			<stop  offset="1" style="stop-color:#070606"/>
		</linearGradient>
		<path class="st3" d="M27.5,21.4c0,4.3,3.5,7.7,7.7,7.7c4.3,0,7.7-3.5,7.7-7.7c0,0,0,0,0,0l0,0c0-4.3-3.5-7.7-7.7-7.8l0,0
			C31,13.7,27.5,17.2,27.5,21.4z"/>
		
			<linearGradient id="SVGID_4_" gradientUnits="userSpaceOnUse" x1="-479.7027" y1="528.4667" x2="-478.7027" y2="528.4667" gradientTransform="matrix(52.596 0 0 -26.451 25238.6035 14025.9707)">
			<stop  offset="0" style="stop-color:#000000"/>
			<stop  offset="1" style="stop-color:#FFFFFF"/>
		</linearGradient>
		<path class="st4" d="M8.2,34.8L8.2,34.8c0,12.8,9.2,23.8,21.8,26l0,0l-0.6-1.4C17.3,57,8.5,46.6,8.2,34.3l0,0
			C8.2,34.4,8.2,34.6,8.2,34.8z M39.7,59.3l-0.6,1.4c12.5-2.3,21.6-13.2,21.6-25.9l0,0c0-0.2,0-0.4,0-0.5
			C60.4,46.5,51.7,56.9,39.7,59.3L39.7,59.3z"/>
		
			<linearGradient id="SVGID_5_" gradientUnits="userSpaceOnUse" x1="-391.0193" y1="590.9546" x2="-516.9464" y2="482.7006" gradientTransform="matrix(14.469 0 0 -46.301 6625.4517 24863.7637)">
			<stop  offset="0" style="stop-color:#112A45"/>
			<stop  offset="0.77" style="stop-color:#070606"/>
			<stop  offset="1" style="stop-color:#112A45"/>
		</linearGradient>
		<path class="st5" d="M51.2,14.5c-0.1-0.2-0.2-0.3-0.3-0.4l0,0C51,14.3,51.1,14.4,51.2,14.5z M52.5,29.2L52.5,29.2
			c2-5.7-0.2-12.7-1.3-14.6l0,0c2.7,4.5,3,12,1.3,15.1l0,0C47.8,40,43.9,49.6,40,60.3l-0.9,0.2L52.5,29.2z"/>
		
			<radialGradient id="SVGID_6_" cx="259.9687" cy="-184.8155" r="26.88" gradientTransform="matrix(0.681 0 0 -0.682 -176.182 -117.392)" gradientUnits="userSpaceOnUse">
			<stop  offset="0" style="stop-color:#58BCB8"/>
			<stop  offset="0.15" style="stop-color:#58BCB8"/>
			<stop  offset="0.42" style="stop-color:#5FC0BA"/>
			<stop  offset="0.64" style="stop-color:#378293"/>
			<stop  offset="0.87" style="stop-color:#165174"/>
			<stop  offset="1" style="stop-color:#165174"/>
		</radialGradient>
		<path class="st6" d="M24.1,13c-7.9,3.8-12.7,10.2-10.8,14.2l0,0c1.9,4,9.9,4.2,17.8,0.3l0,0c7.9-3.8,12.7-10.2,10.8-14.2l0,0
			c-1-2.1-3.6-3.1-7-3.1C31.2,10.4,27.5,11.3,24.1,13L24.1,13z"/>
		
			<linearGradient id="SVGID_7_" gradientUnits="userSpaceOnUse" x1="-467.5555" y1="543.4208" x2="-439.7685" y2="523.1428" gradientTransform="matrix(14.738 0 0 -39.68 6737.8306 21240.1094)">
			<stop  offset="0" style="stop-color:#112A45"/>
			<stop  offset="0.1" style="stop-color:#0F243C"/>
			<stop  offset="0.2" style="stop-color:#0F2136"/>
			<stop  offset="0.3" style="stop-color:#0E1E2F"/>
			<stop  offset="0.4" style="stop-color:#0E1C2A"/>
			<stop  offset="0.5" style="stop-color:#0E1924"/>
			<stop  offset="0.6" style="stop-color:#0F161F"/>
			<stop  offset="0.7" style="stop-color:#0F1319"/>
			<stop  offset="0.8" style="stop-color:#101114"/>
			<stop  offset="0.9" style="stop-color:#100F10"/>
			<stop  offset="1" style="stop-color:#100D0D"/>
		</linearGradient>
		<path class="st7" d="M19.9,12.6L19.9,12.6l14.6,39.2l0.1-0.7c-5-13.1-9.2-23.7-14.1-39L19.9,12.6z"/>
		<path class="st8" d="M48.7,12.2l0.6,0.4L34.7,51.9l-0.1-0.7C39.5,38.1,43.7,27.5,48.7,12.2z"/>
		
			<radialGradient id="SVGID_8_" cx="22.434" cy="42.886" r="60.353" gradientTransform="matrix(1 0 0 -1 -1.941 68.025)" gradientUnits="userSpaceOnUse">
			<stop  offset="0" style="stop-color:#FFFFFF"/>
			<stop  offset="0.19" style="stop-color:#FFFFFF"/>
			<stop  offset="0.61" style="stop-color:#9F9D9E"/>
			<stop  offset="0.89" style="stop-color:#494F5D"/>
			<stop  offset="0.96" style="stop-color:#585A5F"/>
			<stop  offset="1" style="stop-color:#646462"/>
			<stop  offset="1" style="stop-color:#696865"/>
		</radialGradient>
		<path class="st9" d="M1.3,34.5c0,18.3,14.9,33.2,33.2,33.2s33.2-14.9,33.2-33.2c0-18.3-14.9-33.2-33.2-33.2l0,0
			C16.1,1.3,1.3,16.2,1.3,34.5L1.3,34.5z M19.9,12.6c4.3-2.9,9.4-4.4,14.6-4.4l0,0c5.3,0,10.4,1.6,14.7,4.5l0,0L34.6,51.9L19.9,12.6
			z M8.2,34.5c0-8.1,3.7-15.7,10.1-20.7l0,0c-2,4.3-3.7,9.1-2,14.6l0,0l13.7,32C17.4,58.2,8.2,47.3,8.2,34.5z M52.6,28.8
			c1.7-5.7,0.2-10.6-1.6-14.8l0,0c6.2,5,9.8,12.5,9.8,20.5l0,0c0,12.7-9.1,23.6-21.6,25.9l0,0L52.6,28.8L52.6,28.8z M27.1,20.7
			L27.1,20.7c0-4.3,3.5-7.7,7.7-7.8l0,0c4.3,0,7.7,3.5,7.7,7.8l0,0c0,4.3-3.5,7.7-7.7,7.7l0,0C30.6,28.5,27.1,25,27.1,20.7z"/>
		<g transform="translate(88.872 24.458)">
			<path class="st10" d="M0.4,1.1c0-0.4,0.2-0.4,0.4-0.4h1.9C3,0.7,3.1,1,3.1,1.1v5.7c0,0.9,0,0.5-0.1,2.8h0.1
				c0.3-0.8,1-2.4,1.3-3.1l2.5-5.4C7,0.9,7,0.7,7.4,0.7h1.9c0.4,0,0.4,0.2,0.4,0.4v12.8c0,0.2,0,0.4-0.4,0.4H7.4
				C7,14.3,7,14.1,7,13.9V7.6c0-0.5,0-1.5,0.1-2.2H7C6.7,6.3,6.3,7.2,5.9,8.1L3.1,14C3,14.2,3,14.3,2.7,14.3H0.8
				c-0.4,0-0.4-0.2-0.4-0.4L0.4,1.1z"/>
			<path class="st10" d="M18.2,4.9c0-0.2,0-0.3,0.4-0.4l1.8-0.4c0.2,0,0.3-0.1,0.3,0.2V14c0,0.2,0,0.3-0.3,0.3h-2
				c-0.2,0-0.3,0-0.3-0.3v-3.9h-2.9v3.9c0,0.2,0,0.3-0.3,0.3h-2c-0.2,0-0.3-0.1-0.3-0.3V4.9c0-0.2,0-0.3,0.6-0.4L15,4.2
				c0.2,0,0.3-0.1,0.3,0.2v3.7h2.9L18.2,4.9z"/>
			<path class="st10" d="M28,14.1c-0.4,0.4-1,0.7-1.7,0.6c-0.7,0-1.4-0.2-2-0.7c-1.2-1.1-1.4-3.1-1.4-4.6c0-4.4,1.8-5.2,3.2-5.2
				c0.7,0,1.4,0.3,1.9,0.8V1.2c0-0.2,0-0.3,0.4-0.4l1.8-0.4c0.2,0,0.3-0.1,0.3,0.3V5c0.5-0.5,1.2-0.8,1.9-0.8c1.3,0,3.2,0.8,3.2,5.2
				c0,1.5-0.2,3.5-1.4,4.6c-0.5,0.5-1.3,0.7-2,0.7c-0.6,0-1.2-0.2-1.7-0.6v4.2c0,0.2,0,0.3-0.3,0.3h-2c-0.2,0-0.3,0-0.3-0.3L28,14.1
				z M28,6.8c-0.2-0.4-0.6-0.6-1.1-0.7c-1.4,0-1.4,2.1-1.4,3.2c-0.1,0.9,0,1.8,0.4,2.7c0.2,0.4,0.6,0.6,1.1,0.6c0.4,0,0.8-0.2,1-0.5
				L28,6.8z M30.5,12.2c0.3,0.3,0.6,0.5,1,0.5c0.4,0,0.9-0.2,1.1-0.6c0.4-0.8,0.5-1.8,0.4-2.7c0-1.1,0-3.2-1.4-3.2
				c-0.5,0-0.9,0.3-1.1,0.7L30.5,12.2z"/>
			<path class="st10" d="M41.5,14.7c-2.2,0-4.3-1.5-4.3-5.2s2.1-5.2,4.3-5.2s4.3,1.5,4.3,5.2S43.7,14.7,41.5,14.7z M43.1,9.4
				c0-1.5-0.1-3.3-1.6-3.3s-1.6,1.7-1.6,3.3s0.1,3.3,1.6,3.3S43.1,10.9,43.1,9.4z"/>
			<path class="st10" d="M50.7,17.8c0,0.2,0,0.3-0.4,0.4l-1.8,0.4c-0.1,0-0.2,0-0.3,0c-0.1-0.1-0.1-0.2-0.1-0.4V8.1
				c0.1-0.9,0-1.9-0.3-2.8c0-0.1-0.1-0.2-0.1-0.3c0-0.1,0.1-0.2,0.2-0.2l1.5-0.5c0.3-0.1,0.5-0.2,0.7,0.4c0.1,0.2,0.1,0.4,0.2,0.5
				c0.7-0.7,1.5-1,2.5-1c1-0.1,2,0.4,2.5,1.2c0.7,1.2,1,2.6,1,3.9c0.1,1.4-0.2,2.8-1,4c-0.6,0.9-1.7,1.4-2.9,1.3
				c-0.7,0-1.3-0.2-1.9-0.5L50.7,17.8z M50.7,12.3c0.4,0.3,0.9,0.4,1.4,0.4c0.6,0,1.2-0.3,1.4-0.8c0.5-1.6,0.4-3.4-0.1-5
				c-0.2-0.5-0.7-0.7-1.2-0.7c-0.6,0-1.1,0.3-1.5,0.8L50.7,12.3z"/>
			<path class="st10" d="M58.8,14.3c-0.4,0-0.4-0.1-0.4-0.3l0.5-9.2c0-0.4,0.2-0.3,0.4-0.3h1.7c0.1,0,0.3,0,0.4,0.2l1.5,4.2
				c0.2,0.7,0.4,1.4,0.5,2.1h0c0.1-0.7,0.3-1.4,0.5-2.1l1.5-4.2c0.1-0.2,0.3-0.2,0.4-0.2h1.7c0.1,0,0.4-0.1,0.4,0.3l0.5,9.2
				c0,0.2,0,0.3-0.4,0.3h-1.3c-0.2,0-0.4,0-0.4-0.3l-0.2-6.3h-0.1c-0.2,0.7-0.4,1.5-0.7,2.2l-1.1,3c-0.1,0.3-0.2,0.2-0.4,0.2h-1.1
				c-0.2,0-0.3,0-0.4-0.2l-1.1-3c-0.2-0.7-0.5-1.5-0.7-2.2h-0.1L60.5,14c0,0.3-0.2,0.3-0.4,0.3L58.8,14.3z"/>
			<path class="st10" d="M76.5,14.6c-0.1,0.1-0.3,0.1-0.4-0.2c-0.2-0.3-0.3-0.6-0.3-1c-0.6,0.8-1.6,1.2-2.6,1.2
				c-1.5,0.1-2.9-1.1-2.9-2.6c0-0.1,0-0.3,0-0.4c-0.1-1,0.4-2,1.2-2.6c1.2-0.6,2.6-0.9,4-0.8V7.6c0-0.4,0-0.8-0.2-1.1
				c-0.3-0.3-0.7-0.4-1.1-0.4c-0.5,0-1.1,0.1-1.6,0.3c-0.3,0.1-0.6,0.2-1,0.3c-0.1,0-0.2-0.1-0.2-0.2l-0.4-1.3
				C70.8,5,70.8,5,71.3,4.7c1-0.4,2-0.5,3-0.5c1.1-0.2,2.3,0.3,3,1.3c0.3,0.6,0.5,1.3,0.4,1.9v3.8c0,0.7,0.1,1.3,0.3,2
				c0.1,0.2,0.2,0.4,0.2,0.6c0,0.1-0.1,0.2-0.2,0.2L76.5,14.6z M75.4,9.9c-1.4,0-2.8,0.3-2.8,1.6c0,0.7,0.5,1.3,1.2,1.3
				c0,0,0,0,0.1,0c0.6,0,1.1-0.3,1.5-0.8L75.4,9.9z"/>
			<path class="st10" d="M80.4,4.9c0-0.3,0-0.3,0.7-0.4l1.5-0.3c0.2,0,0.3-0.1,0.3,0.2v7.9h2.5V4.9c0-0.2,0-0.3,0.4-0.4l1.8-0.4
				c0.2,0,0.3-0.1,0.3,0.2v7.9h1c0.1,0,0.3,0,0.3,0.3v4.2c0,0.2,0,0.3-0.3,0.3h-1.9c-0.2,0-0.3-0.1-0.3-0.3v-2.5h-6.1
				c-0.3,0-0.3-0.1-0.3-0.3L80.4,4.9z"/>
			<path class="st10" d="M91,4.9c0-0.2,0-0.3,0.4-0.4l1.8-0.4c0.2,0,0.3-0.1,0.3,0.2v4.1c0,0.6-0.1,1.6-0.1,2.1h0.1
				c0.4-0.8,0.8-1.6,1.2-2.4l1.9-3.4c0.2-0.4,0.3-0.4,0.7-0.4l1.6-0.3c0.2,0,0.3-0.1,0.3,0.2V14c0,0.2,0,0.3-0.3,0.3h-2
				c-0.2,0-0.3,0-0.3-0.3v-3.8c0-0.4,0-0.8,0.1-2.1h-0.1C96.4,9,96,9.8,95.5,10.6l-1.9,3.5c-0.1,0.2-0.1,0.3-0.4,0.3h-2
				c-0.2,0-0.3,0-0.3-0.3L91,4.9z"/>
			<path class="st10" d="M105.8,14.7c-2.2,0-4.3-1.5-4.3-5.2s2.1-5.2,4.3-5.2s4.3,1.5,4.3,5.2S108,14.7,105.8,14.7z M107.4,9.4
				c0-1.5-0.1-3.3-1.6-3.3s-1.6,1.7-1.6,3.3s0.1,3.3,1.6,3.3S107.4,10.9,107.4,9.4L107.4,9.4z"/>
			<path class="st10" d="M117.7,4.9c0-0.2,0-0.3,0.4-0.4l1.8-0.4c0.2,0,0.3-0.1,0.3,0.2V14c0,0.2,0,0.3-0.3,0.3h-2
				c-0.2,0-0.3,0-0.3-0.3v-3.9h-2.9v3.9c0,0.2,0,0.3-0.3,0.3h-2c-0.2,0-0.3-0.1-0.3-0.3V4.9c0-0.2,0-0.3,0.6-0.4l1.6-0.3
				c0.2,0,0.3-0.1,0.3,0.2v3.7h2.9V4.9z"/>
			<path class="st10" d="M128.4,4.9c0-0.2,0-0.3,0.4-0.4l1.8-0.4c0.2,0,0.3-0.1,0.3,0.2V14c0,0.2,0,0.3-0.3,0.3h-2
				c-0.2,0-0.3,0-0.3-0.3v-3.9h-2.9v3.9c0,0.2,0,0.3-0.3,0.3h-2c-0.2,0-0.3-0.1-0.3-0.3V4.9c0-0.2,0-0.3,0.6-0.4l1.6-0.3
				c0.2,0,0.3-0.1,0.3,0.2v3.7h2.9V4.9z"/>
			<path class="st10" d="M133.9,14.3c-0.2,0-0.3,0-0.3-0.3V4.9c0-0.3,0-0.3,0.7-0.4l1.5-0.3c0.2,0,0.3-0.1,0.3,0.2v3.5h1.1
				c1.1-0.1,2.2,0.2,3.1,0.8c0.7,0.6,1,1.4,1,2.3c0.1,0.9-0.3,1.9-1,2.5c-1,0.6-2.1,0.9-3.3,0.8L133.9,14.3z M136.2,12.3h1
				c0.7,0,1.7-0.1,1.7-1.2c0-1.2-1-1.2-1.5-1.2h-1.2L136.2,12.3z M142.7,4.9c0-0.2,0-0.3,0.4-0.4l1.8-0.4c0.2,0,0.3-0.1,0.3,0.2V14
				c0,0.2,0,0.3-0.3,0.3h-2c-0.2,0-0.3,0-0.3-0.3L142.7,4.9z"/>
			<path class="st10" d="M148,4.9c0-0.2,0-0.3,0.4-0.4l1.8-0.4c0.2,0,0.3-0.1,0.3,0.2v4.1c0,0.6-0.1,1.6-0.1,2.1h0.1
				c0.4-0.8,0.8-1.6,1.2-2.4l1.9-3.4c0.2-0.4,0.3-0.4,0.7-0.4l1.6-0.3c0.2,0,0.3-0.1,0.3,0.2V14c0,0.2,0,0.3-0.3,0.3h-2
				c-0.2,0-0.3,0-0.3-0.3v-3.8c0-0.4,0-0.8,0.1-2.1h-0.1c-0.4,0.8-0.8,1.6-1.2,2.4l-1.9,3.5c-0.1,0.2-0.1,0.3-0.4,0.3h-2
				c-0.2,0-0.3,0-0.3-0.3L148,4.9z M154.8,0.2c0.1,0,0.2,0.1,0.2,0.3c0,0.4-0.1,0.8-0.4,1.2c-1,1.4-2.8,1.7-4.2,0.7
				c-0.3-0.2-0.5-0.4-0.7-0.7c-0.2-0.4-0.3-0.8-0.4-1.2c0-0.2,0.1-0.3,0.2-0.3l1.2-0.2c0.1,0,0.2-0.1,0.3,0c0.1,0.1,0.1,0.3,0.1,0.4
				c0.1,0.6,0.7,0.9,1.2,0.8c0.4-0.1,0.8-0.4,0.8-0.8c0-0.1,0.1-0.3,0.1-0.4c0.1-0.1,0.2-0.1,0.3,0L154.8,0.2z"/>
			<path class="st10" d="M163.6,4.9c0-0.3,0-0.3,0.7-0.4l1.5-0.3c0.2,0,0.3-0.1,0.3,0.2v7.9h2.5V4.9c0-0.2,0-0.3,0.4-0.4l1.8-0.4
				c0.2,0,0.3-0.1,0.3,0.2v7.9h1c0.1,0,0.3,0,0.3,0.3v4.2c0,0.2,0,0.3-0.3,0.3h-1.9c-0.2,0-0.3-0.1-0.3-0.3v-2.5h-6.1
				c-0.3,0-0.3-0.1-0.3-0.3L163.6,4.9z"/>
			<path class="st10" d="M176.2,10.1c0,1.4,0.5,2.5,2.2,2.5c0.7,0,1.4-0.2,2-0.5c0.2-0.1,0.3-0.2,0.5-0.2c0.1,0,0.2,0.1,0.2,0.2
				l0.5,1.2c0,0.1,0.1,0.1,0.1,0.2c0,0.2-0.1,0.4-0.3,0.4c-1,0.5-2,0.8-3.2,0.8c-4.2,0-4.5-3.6-4.5-5c0-3.1,1.6-5.5,4.3-5.5
				c1.9-0.1,3.5,1.3,3.7,3.2c0.2,0.7,0.2,1.4,0.2,2.1c0,0.6-0.2,0.6-0.5,0.6L176.2,10.1z M179.3,8.3c0-0.3,0-0.7-0.1-1
				c0-0.7-0.6-1.2-1.3-1.2c-1.1,0-1.6,0.9-1.7,2.2H179.3z"/>
			<path class="st10" d="M189.5,4.9c0-0.2,0-0.3,0.4-0.4l1.8-0.4c0.2,0,0.3-0.1,0.3,0.2V14c0,0.2,0,0.3-0.3,0.3h-2
				c-0.2,0-0.3,0-0.3-0.3v-3.9h-2.9v3.9c0,0.2,0,0.3-0.3,0.3h-2c-0.2,0-0.3-0.1-0.3-0.3V4.9c0-0.2,0-0.3,0.6-0.4l1.6-0.3
				c0.2,0,0.3-0.1,0.3,0.2v3.7h2.9V4.9z"/>
			<path class="st10" d="M198.7,14.1c0,0.2,0,0.3-0.3,0.3h-2c-0.2,0-0.3,0-0.3-0.3V6.5h-2.3c-0.2,0-0.3-0.1-0.3-0.3V4.8
				c0-0.2,0.1-0.3,0.3-0.3h7.2c0.4,0,0.3,0.2,0.3,0.4l-0.3,1.3c-0.1,0.2-0.2,0.3-0.3,0.3h-2.2L198.7,14.1z"/>
			<path class="st10" d="M205.4,17.8c0,0.2,0,0.3-0.4,0.4l-1.8,0.4c-0.1,0-0.2,0-0.3,0c-0.1-0.1-0.1-0.2-0.1-0.4V8.1
				c0.1-0.9,0-1.9-0.3-2.8c0-0.1-0.1-0.2-0.1-0.3c0-0.1,0.1-0.2,0.2-0.2l1.5-0.5c0.3-0.1,0.5-0.2,0.7,0.4c0.1,0.2,0.1,0.4,0.2,0.5
				c0.7-0.7,1.5-1,2.5-1c1-0.1,2,0.4,2.5,1.2c0.7,1.2,1,2.6,1,3.9c0.1,1.4-0.2,2.8-1,4c-0.6,0.9-1.7,1.4-2.9,1.3
				c-0.7,0-1.3-0.2-1.9-0.5L205.4,17.8z M205.4,12.3c0.4,0.3,0.9,0.4,1.4,0.4c0.6,0,1.2-0.3,1.4-0.8c0.5-1.6,0.4-3.4-0.1-5
				c-0.2-0.5-0.7-0.7-1.2-0.7c-0.6,0-1.1,0.3-1.5,0.8V12.3z"/>
			<path class="st10" d="M0.3,33.4c-0.2,0-0.3,0-0.3-0.3v-9.2c0-0.2,0-0.3,0.3-0.3h3c1.1-0.1,2.2,0.1,3.2,0.5c0.6,0.4,1,1.1,1,1.9
				c0,1-0.6,1.9-1.6,2.2c1.2,0.2,2,1.2,1.9,2.4c0,0.8-0.4,1.7-1.1,2.1c-1,0.5-2.2,0.8-3.3,0.7L0.3,33.4z M2.5,27.4h1.1
				c1.3,0,1.4-0.7,1.4-1.1c0-0.9-0.9-1-1.5-1h-1V27.4z M2.5,31.5h1.1c0.7,0,1.7-0.1,1.7-1.2c0-1.1-1.1-1.1-1.5-1.1H2.5L2.5,31.5z"/>
			<path class="st10" d="M17.4,25.6v7.5c0,0.2,0,0.3-0.3,0.3h-2c-0.3,0-0.3-0.1-0.3-0.3v-9.2c0-0.3,0.1-0.3,0.3-0.3h7.3
				c0.2,0,0.3,0,0.3,0.3v9.2c0,0.2,0,0.3-0.3,0.3h-2c-0.2,0-0.3-0.1-0.3-0.3v-7.5L17.4,25.6z"/>
			<path class="st10" d="M28.1,36.8c0,0.2,0,0.3-0.4,0.4l-1.8,0.4c-0.1,0-0.2,0-0.3,0c-0.1-0.1-0.1-0.2-0.1-0.4V27.1
				c0.1-0.9,0-1.9-0.3-2.8c0-0.1-0.1-0.2-0.1-0.3c0-0.1,0.1-0.2,0.2-0.2l1.5-0.5c0.3-0.1,0.5-0.2,0.7,0.4c0.1,0.2,0.1,0.4,0.2,0.5
				c0.7-0.7,1.5-1,2.5-1c1-0.1,2,0.4,2.5,1.2c0.7,1.2,1,2.6,1,3.9c0.1,1.4-0.2,2.8-1,4c-0.6,0.9-1.7,1.4-2.9,1.3
				c-0.7,0-1.3-0.2-1.9-0.5L28.1,36.8z M28.1,31.4c0.4,0.3,0.9,0.4,1.4,0.4c0.6,0,1.2-0.3,1.4-0.8c0.5-1.6,0.4-3.4-0.1-5
				c-0.2-0.5-0.7-0.7-1.2-0.7c-0.6,0-1.1,0.3-1.5,0.8V31.4z"/>
			<path class="st10" d="M39.9,33.7c-2.2,0-4.3-1.5-4.3-5.2s2.1-5.2,4.3-5.2s4.3,1.5,4.3,5.2C44.2,32.2,42.1,33.7,39.9,33.7z
				 M41.5,28.5c0-1.5-0.1-3.3-1.6-3.3s-1.6,1.7-1.6,3.3s0.1,3.3,1.6,3.3S41.5,30,41.5,28.5z"/>
			<path class="st10" d="M48.4,29.2c0,1.4,0.5,2.5,2.2,2.5c0.7,0,1.4-0.2,2-0.5c0.2-0.1,0.3-0.2,0.5-0.2c0.1,0,0.2,0.1,0.2,0.2
				l0.5,1.2c0,0.1,0.1,0.1,0.1,0.2c0,0.2-0.1,0.4-0.3,0.4c-1,0.5-2,0.8-3.2,0.8c-4.2,0-4.5-3.6-4.5-5c0-3.1,1.6-5.5,4.3-5.5
				c1.9-0.1,3.5,1.3,3.7,3.2c0.2,0.7,0.2,1.4,0.2,2.1c0,0.6-0.2,0.6-0.5,0.6L48.4,29.2z M51.5,27.3c0-0.3,0-0.7-0.1-1
				c0-0.7-0.6-1.2-1.3-1.2c-1.1,0-1.6,0.9-1.7,2.2H51.5z"/>
			<path class="st10" d="M56.7,33.4c-0.4,0-0.4-0.1-0.4-0.3V24c0-0.3,0-0.3,0.7-0.4l1.5-0.3c0.2,0,0.3-0.1,0.3,0.2v3.8h0.9
				c0.9,0,1-0.4,1.1-1l0.3-1.1c0.1-0.5,0.4-1,0.7-1.3c0.5-0.4,1.2-0.6,1.8-0.6c0.3,0,0.3,0.1,0.4,0.2l0.4,1.4c0,0.1-0.1,0.3-0.3,0.3
				l-0.3,0.1c-0.4,0.1-0.6,0.1-0.8,0.9l-0.2,0.8c-0.1,0.6-0.6,1.1-1.2,1.3v0.1c1,0.2,1.1,0.9,1.4,1.5l0.4,1.1
				c0.2,0.5,0.2,0.7,0.7,0.8l0.4,0.1c0.1,0,0.3,0.1,0.2,0.4l-0.4,1.3c0,0.1-0.1,0.3-0.5,0.3c-0.6,0-1.3-0.1-1.8-0.4
				c-0.5-0.3-0.8-0.8-0.8-1.4l-0.4-1.6c-0.1-0.5-0.2-1-1.1-1h-0.8v3.8c0,0.1,0,0.3-0.4,0.3L56.7,33.4z"/>
			<path class="st10" d="M70.3,33.1c0,0.2,0,0.3-0.3,0.3h-2c-0.2,0-0.3,0-0.3-0.3v-7.5h-2.3c-0.2,0-0.3-0.1-0.3-0.3v-1.4
				c0-0.2,0.1-0.3,0.3-0.3h7.2c0.4,0,0.3,0.2,0.3,0.4l-0.3,1.3c-0.1,0.2-0.2,0.3-0.3,0.3h-2.2L70.3,33.1z"/>
			<path class="st10" d="M74.4,24c0-0.2,0-0.3,0.4-0.4l1.8-0.4c0.2,0,0.3-0.1,0.3,0.2v4.1c0,0.6-0.1,1.6-0.1,2.1h0.1
				c0.4-0.8,0.8-1.6,1.2-2.4L80,24c0.2-0.4,0.3-0.4,0.7-0.4l1.6-0.3c0.2,0,0.3-0.1,0.3,0.2v9.6c0,0.2,0,0.3-0.3,0.3h-2
				c-0.2,0-0.3,0-0.3-0.3v-3.8c0-0.4,0-0.8,0.1-2.1h-0.1c-0.4,0.8-0.8,1.6-1.2,2.4L77,33.1c-0.1,0.2-0.1,0.3-0.4,0.3h-2
				c-0.2,0-0.3,0-0.3-0.3L74.4,24z"/>
			<path class="st10" d="M88,36.8c0,0.2,0,0.3-0.4,0.4l-1.8,0.4c-0.1,0-0.2,0-0.3,0c-0.1-0.1-0.1-0.2-0.1-0.4V27.1
				c0.1-0.9,0-1.9-0.3-2.8c0-0.1-0.1-0.2-0.1-0.3c0-0.1,0.1-0.2,0.2-0.2l1.5-0.5c0.3-0.1,0.5-0.2,0.7,0.4c0.1,0.2,0.1,0.4,0.2,0.5
				c0.7-0.7,1.5-1,2.5-1c1-0.1,2,0.4,2.5,1.2c0.7,1.2,1,2.6,1,3.9c0.1,1.4-0.2,2.8-1,4c-0.6,0.9-1.7,1.4-2.9,1.3
				c-0.7,0-1.3-0.2-1.9-0.5L88,36.8z M88,31.4c0.4,0.3,0.9,0.4,1.4,0.4c0.6,0,1.2-0.3,1.4-0.8c0.5-1.6,0.4-3.4-0.1-5
				c-0.2-0.5-0.7-0.7-1.2-0.7c-0.6,0-1.1,0.3-1.5,0.8V31.4z"/>
			<path class="st10" d="M99.8,33.7c-2.2,0-4.3-1.5-4.3-5.2s2.1-5.2,4.3-5.2s4.3,1.5,4.3,5.2C104.1,32.2,102,33.7,99.8,33.7z
				 M101.4,28.5c0-1.5-0.1-3.3-1.6-3.3s-1.6,1.7-1.6,3.3s0.1,3.3,1.6,3.3S101.4,30,101.4,28.5z"/>
			<path class="st10" d="M106.6,33.4c-0.2,0-0.3,0-0.3-0.3v-9.2c0-0.2,0-0.3,0.3-0.3h3c1.1-0.1,2.2,0.1,3.2,0.5c0.6,0.4,1,1.1,1,1.9
				c0,1-0.6,1.9-1.6,2.2c1.2,0.2,2,1.2,1.9,2.4c0,0.8-0.4,1.7-1.1,2.1c-1,0.5-2.2,0.8-3.3,0.7L106.6,33.4z M108.8,27.4h1
				c1.3,0,1.4-0.7,1.4-1.1c0-0.9-0.9-1-1.5-1h-1V27.4z M108.8,31.5h1.1c0.7,0,1.7-0.1,1.7-1.2c0-1.1-1.1-1.1-1.5-1.1h-1.3V31.5z"/>
			<path class="st10" d="M122.2,33.7c-0.1,0.1-0.3,0.1-0.4-0.2c-0.2-0.3-0.3-0.6-0.3-1c-0.6,0.8-1.6,1.2-2.6,1.2
				c-1.5,0.1-2.9-1.1-2.9-2.6c0-0.1,0-0.3,0-0.4c-0.1-1,0.4-2,1.2-2.6c1.2-0.6,2.6-0.9,4-0.8v-0.6c0-0.4,0-0.8-0.2-1.1
				c-0.3-0.3-0.7-0.4-1.1-0.4c-0.5,0-1.1,0.1-1.6,0.3c-0.3,0.1-0.6,0.2-1,0.3c-0.1,0-0.2-0.1-0.2-0.2l-0.4-1.3
				c-0.1-0.3-0.1-0.4,0.4-0.6c1-0.4,2-0.5,3-0.5c1.1-0.2,2.3,0.3,3,1.3c0.3,0.6,0.5,1.3,0.4,1.9v3.8c0,0.7,0.1,1.3,0.3,2
				c0.1,0.2,0.2,0.4,0.2,0.6c0,0.1-0.1,0.2-0.2,0.2L122.2,33.7z M121.1,28.9c-1.4,0-2.8,0.3-2.8,1.6c0,0.7,0.5,1.3,1.2,1.3
				c0,0,0,0,0.1,0c0.6,0,1.1-0.3,1.5-0.8L121.1,28.9z"/>
			<path class="st10" d="M131.5,24c0-0.2,0-0.3,0.4-0.4l1.8-0.4c0.2,0,0.3-0.1,0.3,0.2v9.6c0,0.2,0,0.3-0.3,0.3h-2
				c-0.2,0-0.3,0-0.3-0.3v-3.9h-2.8v3.9c0,0.2,0,0.3-0.3,0.3h-2c-0.2,0-0.3-0.1-0.3-0.3V24c0-0.2,0-0.3,0.6-0.4l1.6-0.3
				c0.2,0,0.3-0.1,0.3,0.2v3.8h2.9L131.5,24z"/>
			<path class="st10" d="M136.8,24c0-0.2,0-0.3,0.4-0.4l1.8-0.4c0.2,0,0.3-0.1,0.3,0.2v4.1c0,0.6-0.1,1.6-0.1,2.1h0.1
				c0.4-0.8,0.8-1.6,1.2-2.4l1.9-3.4c0.2-0.4,0.3-0.4,0.7-0.4l1.6-0.3c0.2,0,0.3-0.1,0.3,0.2v9.6c0,0.2,0,0.3-0.3,0.3h-2
				c-0.2,0-0.3,0-0.3-0.3v-3.8c0-0.4,0-0.8,0.1-2.1h-0.1c-0.4,0.8-0.8,1.6-1.2,2.4l-1.9,3.5c-0.1,0.2-0.1,0.3-0.4,0.3h-2
				c-0.2,0-0.3,0-0.3-0.3L136.8,24z"/>
			<path class="st10" d="M147.8,24c0-0.2,0-0.3,0.4-0.4l1.8-0.4c0.2,0,0.3-0.1,0.3,0.2v4.1c0,0.6-0.1,1.6-0.1,2.1h0.1
				c0.4-0.8,0.8-1.6,1.2-2.4l1.9-3.4c0.2-0.4,0.3-0.4,0.7-0.4l1.6-0.3c0.2,0,0.3-0.1,0.3,0.2v9.6c0,0.2,0,0.3-0.3,0.3h-2
				c-0.2,0-0.3,0-0.3-0.3v-3.8c0-0.4,0-0.8,0.1-2.1h-0.1c-0.4,0.8-0.8,1.6-1.2,2.4l-1.9,3.5c-0.1,0.2-0.1,0.3-0.4,0.3h-2
				c-0.2,0-0.3,0-0.3-0.3L147.8,24z"/>
		</g>
	</g>
</g>
<g>
	<path class="st10" d="M94.9,10.4c0.4,0.4,0.9,1.3,0.9,2.9c0,1.6-0.5,2.5-0.9,2.9c-0.7,0.8-1.6,1-2.2,1s-1.6-0.2-2.2-1
		c-0.4-0.4-0.9-1.3-0.9-2.9c0-1.6,0.5-2.5,0.9-2.9c0.7-0.8,1.6-1,2.2-1S94.3,9.6,94.9,10.4z M91.1,11c-0.2,0.3-0.4,1-0.4,2.3
		c0,1.4,0.2,2,0.4,2.3c0.4,0.6,0.9,0.9,1.6,0.9s1.2-0.3,1.6-0.9c0.2-0.3,0.4-1,0.4-2.3c0-1.4-0.2-2-0.4-2.3
		c-0.4-0.6-0.9-0.9-1.6-0.9S91.4,10.4,91.1,11z"/>
	<path class="st10" d="M101.6,9.3c-0.6,0.3-0.8,0.4-1.1,0.5l-1.6,0.7c-0.3,0.1-0.6,0.3-0.8,0.7c-0.2,0.3-0.3,0.6-0.3,1l0,0.3l0.1,0
		c0.1-0.2,0.3-0.4,0.6-0.6c0.4-0.2,0.7-0.3,1.1-0.3c0.9,0,1.4,0.4,1.7,0.8c0.4,0.5,0.6,1.3,0.6,2.1c0,0.7-0.2,1.6-0.6,2.1
		c-0.4,0.4-1,0.8-1.8,0.8c-0.8,0-1.4-0.3-1.8-0.8C97,15.8,97,14.8,97,14c0-1.4,0.1-2.2,0.4-2.8c0.3-0.7,0.8-1.2,1.6-1.6l1.5-0.7
		l0.8-0.4L101.6,9.3z M98.2,13c-0.1,0.2-0.3,0.6-0.3,1.5c0,0.8,0.1,1.2,0.3,1.4c0.2,0.3,0.6,0.7,1.2,0.7s1-0.3,1.2-0.7
		c0.1-0.2,0.3-0.6,0.3-1.4c0-0.8-0.1-1.2-0.3-1.5c-0.1-0.3-0.5-0.7-1.2-0.7S98.4,12.8,98.2,13z"/>
	<path class="st10" d="M104.1,11.5v5h1.9v-4.9l0.9-0.2v5h1.9v-4.9l0.9-0.2v5h0.7v2.3h-0.9v-1.6h-6.2v-5.5L104.1,11.5z"/>
	<path class="st10" d="M112.2,14.5v0.1c0,0.3,0,0.8,0.3,1.2c0.3,0.4,0.8,0.7,1.4,0.7c0.3,0,0.9-0.1,1.4-0.5l0.3,0.6
		c-0.5,0.5-1.2,0.7-1.9,0.7c-1,0-1.5-0.4-1.8-0.8c-0.5-0.7-0.7-1.4-0.7-2.2c0-0.6,0.1-1.3,0.6-2c0.3-0.5,0.9-0.9,1.8-0.9
		c0.7,0,1.2,0.3,1.5,0.6c0.3,0.3,0.4,0.7,0.5,0.9c0.1,0.3,0.2,0.7,0.2,1.5v0.1H112.2z M114.7,13.9c0-0.3-0.1-0.9-0.3-1.2
		c-0.2-0.3-0.5-0.5-1-0.5c-0.5,0-0.8,0.2-1,0.5c-0.2,0.3-0.3,0.8-0.3,1.2H114.7z"/>
	<path class="st10" d="M120.8,16.6c-0.2,0.2-0.5,0.4-0.8,0.6c-0.2,0.1-0.6,0.2-1,0.2c-0.9,0-1.4-0.4-1.7-0.9c-0.3-0.5-0.5-1.1-0.5-2
		c0-1.2,0.4-2,0.9-2.4c0.5-0.5,1-0.6,1.5-0.6c0.4,0,1,0.1,1.5,0.6l-0.5,0.6c-0.4-0.4-0.9-0.4-1-0.4c-0.2,0-0.7,0-1,0.5
		c-0.3,0.4-0.4,1-0.4,1.9c0,0.5,0,1.1,0.3,1.5c0.3,0.4,0.7,0.5,1,0.5c0.3,0,0.6-0.1,0.8-0.2c0.1-0.1,0.3-0.2,0.4-0.4L120.8,16.6z"/>
	<path class="st10" d="M123.3,17.2h-0.9v-4.9h-1.6v-0.7h4.2l-0.1,0.7h-1.6V17.2z"/>
	<path class="st10" d="M128,11.6c0.4,0,0.8,0,1.1,0.3c0.5,0.3,0.6,0.9,0.6,1.2c0,0.3-0.1,0.6-0.3,0.8c-0.1,0.1-0.3,0.3-0.5,0.3
		c0.3,0.1,0.6,0.2,0.8,0.4c0.2,0.2,0.3,0.6,0.3,1c0,0.6-0.3,1-0.5,1.1c-0.4,0.4-1.1,0.4-1.4,0.4h-2.3v-5.6H128z M126.7,14h1.3
		c0.2,0,0.5-0.1,0.7-0.3c0.1-0.1,0.2-0.3,0.2-0.6c0-0.3-0.1-0.5-0.3-0.7c-0.1-0.1-0.3-0.2-0.6-0.2h-1.3V14z M126.7,16.5h1.4
		c0.4,0,0.6-0.1,0.8-0.3c0.1-0.1,0.2-0.3,0.2-0.7c0-0.2,0-0.5-0.3-0.8c-0.2-0.1-0.4-0.2-0.7-0.2h-1.4V16.5z"/>
	<path class="st10" d="M135.3,12.3c0.4,0.5,0.6,1.4,0.6,2.1c0,0.9-0.2,1.7-0.6,2.1c-0.4,0.5-1.1,0.8-1.8,0.8c-0.6,0-1.3-0.3-1.8-0.8
		c-0.4-0.5-0.6-1.2-0.6-2.1c0-0.8,0.2-1.6,0.6-2.1c0.4-0.5,1.1-0.8,1.8-0.8C134.1,11.5,134.8,11.8,135.3,12.3z M132.3,12.9
		c-0.1,0.2-0.3,0.6-0.3,1.5s0.2,1.3,0.3,1.5c0.1,0.3,0.5,0.7,1.2,0.7s1-0.4,1.2-0.7c0.1-0.2,0.3-0.6,0.3-1.5s-0.2-1.3-0.3-1.5
		c-0.1-0.3-0.5-0.7-1.2-0.7S132.5,12.6,132.3,12.9z"/>
	<path class="st10" d="M143.5,16.6c-0.2,0.2-0.5,0.4-0.8,0.6c-0.2,0.1-0.6,0.2-1,0.2c-0.9,0-1.4-0.4-1.7-0.9c-0.3-0.5-0.5-1.1-0.5-2
		c0-1.2,0.4-2,0.9-2.4c0.5-0.5,1-0.6,1.5-0.6c0.4,0,1,0.1,1.5,0.6l-0.5,0.6c-0.4-0.4-0.9-0.4-1-0.4c-0.2,0-0.7,0-1,0.5
		c-0.3,0.4-0.4,1-0.4,1.9c0,0.5,0,1.1,0.3,1.5c0.3,0.4,0.7,0.5,1,0.5c0.3,0,0.6-0.1,0.8-0.2c0.1-0.1,0.3-0.2,0.4-0.4L143.5,16.6z"/>
	<path class="st10" d="M150.9,12.3c0.4,0.5,0.6,1.4,0.6,2.1c0,0.9-0.2,1.7-0.6,2.1c-0.4,0.5-1.1,0.8-1.8,0.8c-0.6,0-1.3-0.3-1.8-0.8
		c-0.4-0.5-0.6-1.2-0.6-2.1c0-0.8,0.2-1.6,0.6-2.1c0.4-0.5,1.1-0.8,1.8-0.8C149.8,11.5,150.5,11.8,150.9,12.3z M148,12.9
		c-0.1,0.2-0.3,0.6-0.3,1.5s0.2,1.3,0.3,1.5c0.1,0.3,0.5,0.7,1.2,0.7s1-0.4,1.2-0.7c0.1-0.2,0.3-0.6,0.3-1.5s-0.2-1.3-0.3-1.5
		c-0.1-0.3-0.5-0.7-1.2-0.7S148.1,12.6,148,12.9z"/>
	<path class="st10" d="M153.9,17.2H153v-5.6h3.2l-0.1,0.8h-2.2V17.2z"/>
	<path class="st10" d="M158,11.5c0,0.3,0.1,0.6,0.1,0.9c0.4-0.6,1.1-0.8,1.6-0.8c0.9,0,1.3,0.5,1.5,0.7c0.4,0.5,0.6,1.3,0.6,2.2
		c0,0.5,0,1.3-0.4,1.9c-0.3,0.4-0.8,1-1.7,1c-0.5,0-1.1-0.2-1.5-0.6v2.7l-0.9,0.2v-6.7c0-0.5,0-0.8-0.1-1.2L158,11.5z M158.1,15.9
		c0.3,0.3,0.8,0.7,1.4,0.7c0.5,0,1-0.3,1.2-0.7c0.2-0.5,0.2-1.1,0.2-1.3c0-0.9-0.1-1.4-0.3-1.7c-0.1-0.2-0.4-0.6-1-0.6
		c-0.5,0-1.1,0.3-1.5,0.8V15.9z"/>
	<path class="st10" d="M166.9,17.4c-0.4-0.1-0.7-0.4-0.8-0.8c-0.6,0.6-1.2,0.7-1.6,0.7c-1.1,0-1.8-0.6-1.8-1.6
		c0-0.6,0.2-1.1,0.8-1.5c0.6-0.4,1.5-0.5,2.2-0.5c0.1,0,0.3,0,0.4,0v-0.6c0-0.2,0-0.5-0.2-0.7c-0.2-0.2-0.5-0.3-0.7-0.3
		c-0.4,0-0.8,0.1-1,0.2c-0.3,0.1-0.5,0.2-0.8,0.4l-0.4-0.6c0.3-0.2,0.7-0.4,1.1-0.5c0.4-0.1,0.8-0.2,1.2-0.2c1.1,0,1.4,0.5,1.6,0.9
		c0.1,0.3,0.1,0.7,0.1,1v0.3l0,1.8c0,0.1,0,0.3,0,0.4c0,0.4,0.1,0.8,0.5,1L166.9,17.4z M166.1,14.3l-0.1,0c-0.1,0-0.2,0-0.3,0
		c-0.5,0-1.2,0.1-1.6,0.4c-0.3,0.3-0.3,0.7-0.3,0.9c0,0.4,0.1,0.6,0.2,0.7c0.2,0.2,0.4,0.3,0.7,0.3c0.5,0,1.1-0.3,1.4-0.9
		L166.1,14.3z"/>
	<path class="st10" d="M169.6,17.2h-0.9v-5.5l0.9-0.2v2.4h2.4v-2.2l0.9-0.2v5.7H172v-2.6h-2.4V17.2z"/>
	<path class="st10" d="M174.6,11.6l0.9-0.2v3.4l0,1.2h0c0.2-0.4,0.4-0.8,0.6-1.1l2-3.4l0.9-0.1v5.7h-0.9v-3.3l0-1.2h0
		c-0.2,0.4-0.3,0.7-0.6,1.1l-2,3.4h-0.9V11.6z"/>
	<path class="st10" d="M181.3,13.6c0,0.1,0,0.4,0.3,0.6c0.2,0.1,0.5,0.2,0.8,0.2c0.4,0,0.8-0.1,1.1-0.2v-2.6l0.9-0.2v5.7h-0.9v-2.3
		c-0.5,0.2-0.8,0.2-1.3,0.2c-0.4,0-1.1-0.1-1.5-0.5c-0.3-0.4-0.3-0.8-0.3-1.1v-1.8l0.9-0.2V13.6z"/>
	<path class="st10" d="M186.9,14.5v0.1c0,0.3,0,0.8,0.3,1.2c0.3,0.4,0.8,0.7,1.4,0.7c0.3,0,0.9-0.1,1.4-0.5l0.3,0.6
		c-0.5,0.5-1.2,0.7-1.9,0.7c-1,0-1.5-0.4-1.8-0.8c-0.5-0.7-0.7-1.4-0.7-2.2c0-0.6,0.1-1.3,0.6-2c0.3-0.5,0.9-0.9,1.8-0.9
		c0.7,0,1.2,0.3,1.5,0.6c0.3,0.3,0.4,0.7,0.5,0.9c0.1,0.3,0.2,0.7,0.2,1.5v0.1H186.9z M189.4,13.9c0-0.3-0.1-0.9-0.3-1.2
		c-0.2-0.3-0.5-0.5-1-0.5c-0.5,0-0.8,0.2-1,0.5c-0.2,0.3-0.3,0.8-0.3,1.2H189.4z"/>
	<path class="st10" d="M192.6,17.2h-0.9v-5.5l0.9-0.2v2.4h2.4v-2.2l0.9-0.2v5.7H195v-2.6h-2.4V17.2z"/>
	<path class="st10" d="M198.4,17.2h-0.9v-5.5l0.9-0.2v2.4h2.4v-2.2l0.9-0.2v5.7h-0.9v-2.6h-2.4V17.2z"/>
	<path class="st10" d="M207.3,12.3c0.4,0.5,0.6,1.4,0.6,2.1c0,0.9-0.2,1.7-0.6,2.1c-0.4,0.5-1.1,0.8-1.8,0.8c-0.6,0-1.3-0.3-1.8-0.8
		c-0.4-0.5-0.6-1.2-0.6-2.1c0-0.8,0.2-1.6,0.6-2.1c0.4-0.5,1.1-0.8,1.8-0.8C206.1,11.5,206.8,11.8,207.3,12.3z M204.3,12.9
		c-0.1,0.2-0.3,0.6-0.3,1.5s0.2,1.3,0.3,1.5c0.1,0.3,0.5,0.7,1.2,0.7s1-0.4,1.2-0.7c0.1-0.2,0.3-0.6,0.3-1.5s-0.2-1.3-0.3-1.5
		c-0.1-0.3-0.5-0.7-1.2-0.7S204.5,12.6,204.3,12.9z"/>
	<path class="st10" d="M209.3,11.6l0.9-0.2v3.4l0,1.2h0c0.2-0.4,0.4-0.8,0.6-1.1l2-3.4l0.9-0.1v5.7h-0.9v-3.3l0-1.2h0
		c-0.2,0.4-0.3,0.7-0.6,1.1l-2,3.4h-0.9V11.6z M213.2,9.4c-0.3,0.6-0.8,1.1-1.7,1.1c-0.6,0-1.3-0.3-1.7-1.1l0.5-0.4
		c0.2,0.3,0.3,0.4,0.5,0.5c0.2,0.1,0.4,0.2,0.7,0.2c0.2,0,0.4,0,0.7-0.2c0.2-0.1,0.4-0.4,0.5-0.5L213.2,9.4z"/>
	<path class="st10" d="M221.6,12.3c0.4,0.5,0.6,1.4,0.6,2.1c0,0.9-0.2,1.7-0.6,2.1c-0.4,0.5-1.1,0.8-1.8,0.8c-0.6,0-1.3-0.3-1.8-0.8
		c-0.4-0.5-0.6-1.2-0.6-2.1c0-0.8,0.2-1.6,0.6-2.1c0.4-0.5,1.1-0.8,1.8-0.8C220.5,11.5,221.2,11.8,221.6,12.3z M218.7,12.9
		c-0.1,0.2-0.3,0.6-0.3,1.5s0.2,1.3,0.3,1.5c0.1,0.3,0.5,0.7,1.2,0.7s1-0.4,1.2-0.7c0.1-0.2,0.3-0.6,0.3-1.5s-0.2-1.3-0.3-1.5
		c-0.1-0.3-0.5-0.7-1.2-0.7S218.8,12.6,218.7,12.9z"/>
	<path class="st10" d="M225,17.2h-0.9v-4.9h-1.6v-0.7h4.2l-0.1,0.7H225V17.2z"/>
	<path class="st10" d="M229.6,11.6c0.4,0,0.8,0,1.1,0.3c0.5,0.3,0.6,0.9,0.6,1.2c0,0.3-0.1,0.6-0.3,0.8c-0.1,0.1-0.3,0.3-0.5,0.3
		c0.3,0.1,0.6,0.2,0.8,0.4c0.2,0.2,0.3,0.6,0.3,1c0,0.6-0.3,1-0.5,1.1c-0.4,0.4-1.1,0.4-1.4,0.4h-2.3v-5.6H229.6z M228.3,14h1.3
		c0.2,0,0.5-0.1,0.7-0.3c0.1-0.1,0.2-0.3,0.2-0.6c0-0.3-0.1-0.5-0.3-0.7c-0.1-0.1-0.3-0.2-0.6-0.2h-1.3V14z M228.3,16.5h1.4
		c0.4,0,0.6-0.1,0.8-0.3c0.1-0.1,0.2-0.3,0.2-0.7c0-0.2,0-0.5-0.3-0.8c-0.2-0.1-0.4-0.2-0.7-0.2h-1.4V16.5z"/>
	<path class="st10" d="M233.5,14.5v0.1c0,0.3,0,0.8,0.3,1.2c0.3,0.4,0.8,0.7,1.4,0.7c0.3,0,0.9-0.1,1.4-0.5l0.3,0.6
		c-0.5,0.5-1.2,0.7-1.9,0.7c-1,0-1.5-0.4-1.8-0.8c-0.5-0.7-0.7-1.4-0.7-2.2c0-0.6,0.1-1.3,0.6-2c0.3-0.5,0.9-0.9,1.8-0.9
		c0.7,0,1.2,0.3,1.5,0.6c0.3,0.3,0.4,0.7,0.5,0.9c0.1,0.3,0.2,0.7,0.2,1.5v0.1H233.5z M236.1,13.9c0-0.3-0.1-0.9-0.3-1.2
		c-0.2-0.3-0.5-0.5-1-0.5c-0.5,0-0.8,0.2-1,0.5c-0.2,0.3-0.3,0.8-0.3,1.2H236.1z"/>
	<path class="st10" d="M239.9,17.2H239v-4.9h-1.6v-0.7h4.2l-0.1,0.7h-1.6V17.2z"/>
	<path class="st10" d="M246.1,16.6c-0.2,0.2-0.5,0.4-0.8,0.6c-0.2,0.1-0.6,0.2-1,0.2c-0.9,0-1.4-0.4-1.7-0.9c-0.3-0.5-0.5-1.1-0.5-2
		c0-1.2,0.4-2,0.9-2.4c0.5-0.5,1-0.6,1.5-0.6c0.4,0,1,0.1,1.5,0.6l-0.5,0.6c-0.4-0.4-0.9-0.4-1-0.4c-0.2,0-0.7,0-1,0.5
		c-0.3,0.4-0.4,1-0.4,1.9c0,0.5,0,1.1,0.3,1.5c0.3,0.4,0.7,0.5,1,0.5c0.3,0,0.6-0.1,0.8-0.2c0.1-0.1,0.3-0.2,0.4-0.4L246.1,16.6z"/>
	<path class="st10" d="M248.6,17.2h-0.9v-4.9h-1.6v-0.7h4.2l-0.1,0.7h-1.6V17.2z"/>
	<path class="st10" d="M253.3,11.6c0.4,0,0.8,0,1.1,0.3c0.5,0.3,0.6,0.9,0.6,1.2c0,0.3-0.1,0.6-0.3,0.8c-0.1,0.1-0.3,0.3-0.5,0.3
		c0.3,0.1,0.6,0.2,0.8,0.4c0.2,0.2,0.3,0.6,0.3,1c0,0.6-0.3,1-0.5,1.1c-0.4,0.4-1.1,0.4-1.4,0.4h-2.3v-5.6H253.3z M252,14h1.3
		c0.2,0,0.5-0.1,0.7-0.3c0.1-0.1,0.2-0.3,0.2-0.6c0-0.3-0.1-0.5-0.3-0.7c-0.1-0.1-0.3-0.2-0.6-0.2H252V14z M252,16.5h1.4
		c0.4,0,0.6-0.1,0.8-0.3c0.1-0.1,0.2-0.3,0.2-0.7c0-0.2,0-0.5-0.3-0.8c-0.2-0.1-0.4-0.2-0.7-0.2H252V16.5z"/>
	<path class="st10" d="M257.2,14.5v0.1c0,0.3,0,0.8,0.3,1.2c0.3,0.4,0.8,0.7,1.4,0.7c0.3,0,0.9-0.1,1.4-0.5l0.3,0.6
		c-0.5,0.5-1.2,0.7-1.9,0.7c-1,0-1.5-0.4-1.8-0.8c-0.5-0.7-0.7-1.4-0.7-2.2c0-0.6,0.1-1.3,0.6-2c0.3-0.5,0.9-0.9,1.8-0.9
		c0.7,0,1.2,0.3,1.5,0.6c0.3,0.3,0.4,0.7,0.5,0.9c0.1,0.3,0.2,0.7,0.2,1.5v0.1H257.2z M259.7,13.9c0-0.3-0.1-0.9-0.3-1.2
		c-0.2-0.3-0.5-0.5-1-0.5c-0.5,0-0.8,0.2-1,0.5c-0.2,0.3-0.3,0.8-0.3,1.2H259.7z"/>
	<path class="st10" d="M262.9,17.2H262v-5.5l0.9-0.2v2.4h2.4v-2.2l0.9-0.2v5.7h-0.9v-2.6h-2.4V17.2z"/>
	<path class="st10" d="M268.7,17.2h-0.9v-5.5l0.9-0.2v2.4h2.4v-2.2l0.9-0.2v5.7h-0.9v-2.6h-2.4V17.2z"/>
	<path class="st10" d="M277.4,12.3c0.4,0.5,0.6,1.4,0.6,2.1c0,0.9-0.2,1.7-0.6,2.1c-0.4,0.5-1.1,0.8-1.8,0.8c-0.6,0-1.3-0.3-1.8-0.8
		c-0.4-0.5-0.6-1.2-0.6-2.1c0-0.8,0.2-1.6,0.6-2.1c0.4-0.5,1.1-0.8,1.8-0.8C276.3,11.5,277,11.8,277.4,12.3z M274.5,12.9
		c-0.1,0.2-0.3,0.6-0.3,1.5s0.2,1.3,0.3,1.5c0.1,0.3,0.5,0.7,1.2,0.7s1-0.4,1.2-0.7c0.1-0.2,0.3-0.6,0.3-1.5s-0.2-1.3-0.3-1.5
		c-0.1-0.3-0.5-0.7-1.2-0.7S274.7,12.6,274.5,12.9z"/>
	<path class="st10" d="M283.1,16.6c-0.2,0.2-0.5,0.4-0.8,0.6c-0.2,0.1-0.6,0.2-1,0.2c-0.9,0-1.4-0.4-1.7-0.9c-0.3-0.5-0.5-1.1-0.5-2
		c0-1.2,0.4-2,0.9-2.4c0.5-0.5,1-0.6,1.5-0.6c0.4,0,1,0.1,1.5,0.6l-0.5,0.6c-0.4-0.4-0.9-0.4-1-0.4c-0.2,0-0.7,0-1,0.5
		c-0.3,0.4-0.4,1-0.4,1.9c0,0.5,0,1.1,0.3,1.5c0.3,0.4,0.7,0.5,1,0.5c0.3,0,0.6-0.1,0.8-0.2c0.1-0.1,0.3-0.2,0.4-0.4L283.1,16.6z"/>
	<path class="st10" d="M285.7,17.2h-0.9v-4.9h-1.6v-0.7h4.2l-0.1,0.7h-1.6V17.2z"/>
	<path class="st10" d="M289,13.8h0.8c0.5,0,1.3,0,1.8,0.5c0.4,0.3,0.5,0.7,0.5,1.2c0,0.5-0.1,0.9-0.6,1.3c-0.4,0.3-0.9,0.4-1.4,0.4
		h-2.1v-5.5l0.9-0.2V13.8z M289,16.5h1.1c0.4,0,0.7-0.1,0.8-0.3c0.2-0.2,0.3-0.5,0.3-0.8c0-0.4-0.1-0.6-0.3-0.8
		c-0.3-0.2-0.6-0.3-1-0.3h-1V16.5z"/>
	<path class="st10" d="M295,13.9c0-0.6,0.3-1.3,0.6-1.7c0.3-0.4,1-0.8,1.7-0.8c0.7,0,1.4,0.3,1.7,0.8c0.1,0.1,0.6,0.8,0.6,2.1
		c0,1.4-0.6,2.1-0.6,2.1c-0.4,0.4-1,0.8-1.7,0.8c-0.7,0-1.3-0.3-1.7-0.8c-0.3-0.4-0.6-1.3-0.6-1.9H294v2.6h-0.9v-5.5l0.9-0.2v2.4
		H295z M296.1,12.8c-0.1,0.2-0.2,0.6-0.2,1.6c0,0.5,0,1.2,0.2,1.6c0.1,0.2,0.4,0.7,1.1,0.7c0.6,0,0.9-0.3,1.1-0.7
		c0.1-0.2,0.2-0.6,0.2-1.6c0-1.1-0.2-1.5-0.3-1.7c-0.2-0.3-0.5-0.5-1-0.5C296.7,12.1,296.3,12.5,296.1,12.8z"/>
</g>
</svg>
