<svg xmlns="http://www.w3.org/2000/svg" xmlns:xlink="http://www.w3.org/1999/xlink" viewBox="0 0 300 69"><defs><style>.a,.b,.c,.d,.e,.f,.g,.h,.i,.j{fill-rule:evenodd;}.a{fill:url(#a);}.b{fill:url(#b);}.c{fill:#112944;}.d{fill:url(#c);}.e{fill:url(#d);}.f{fill:url(#e);}.g{fill:url(#f);}.h{fill:url(#g);}.i{fill:#fff;}.j{fill:url(#h);}.k{fill:#544949;}</style><radialGradient id="a" cx="42.201" cy="30.069" r="38.826" gradientTransform="translate(-0.026 -0.023)" gradientUnits="userSpaceOnUse"><stop offset="0" stop-color="#112a45"/><stop offset="0.46" stop-color="#112a45"/><stop offset="0.68" stop-color="#1f5866"/><stop offset="0.92" stop-color="#329390"/><stop offset="1" stop-color="#329390"/></radialGradient><linearGradient id="b" x1="0.155" y1="-0.032" x2="0.845" y2="1.032" gradientUnits="objectBoundingBox"><stop offset="0" stop-color="#b3b3b3"/><stop offset="0.57" stop-color="#786d7f"/><stop offset="0.72" stop-color="#393058"/><stop offset="0.9" stop-color="#938980"/><stop offset="1" stop-color="#938980"/></linearGradient><linearGradient id="c" x1="0.5" y1="-0.472" x2="0.5" y2="1.472" gradientUnits="objectBoundingBox"><stop offset="0" stop-color="#112a45"/><stop offset="0.1" stop-color="#0e233b"/><stop offset="0.2" stop-color="#0d1d32"/><stop offset="0.3" stop-color="#0b1a2a"/><stop offset="0.4" stop-color="#0a1421"/><stop offset="0.5" stop-color="#0a121a"/><stop offset="0.6" stop-color="#0a0e14"/><stop offset="0.7" stop-color="#0a0c0f"/><stop offset="0.8" stop-color="#090a0b"/><stop offset="0.9" stop-color="#090808"/><stop offset="1" stop-color="#070606"/></linearGradient><linearGradient id="d" y1="0.5" x2="1" y2="0.5" gradientUnits="objectBoundingBox"><stop offset="0"/><stop offset="1" stop-color="#fff"/></linearGradient><linearGradient id="e" x1="64.184" y1="-54.257" x2="-61.743" y2="53.997" gradientUnits="objectBoundingBox"><stop offset="0" stop-color="#112a45"/><stop offset="0.77" stop-color="#070606"/><stop offset="1" stop-color="#112a45"/></linearGradient><radialGradient id="f" cx="30.907" cy="32.402" r="26.88" gradientTransform="translate(-0.53 2.105) scale(0.681 0.682)" gradientUnits="userSpaceOnUse"><stop offset="0" stop-color="#58bcb8"/><stop offset="0.15" stop-color="#58bcb8"/><stop offset="0.42" stop-color="#5fc0ba"/><stop offset="0.64" stop-color="#378293"/><stop offset="0.87" stop-color="#165174"/><stop offset="1" stop-color="#165174"/></radialGradient><linearGradient id="g" x1="-11.735" y1="-8.442" x2="16.052" y2="11.836" gradientUnits="objectBoundingBox"><stop offset="0" stop-color="#112a45"/><stop offset="0.1" stop-color="#0f243c"/><stop offset="0.2" stop-color="#0f2136"/><stop offset="0.3" stop-color="#0e1e2f"/><stop offset="0.4" stop-color="#0e1c2a"/><stop offset="0.5" stop-color="#0e1924"/><stop offset="0.6" stop-color="#0f161f"/><stop offset="0.7" stop-color="#0f1319"/><stop offset="0.8" stop-color="#101114"/><stop offset="0.9" stop-color="#100f10"/><stop offset="1" stop-color="#100d0d"/></linearGradient><radialGradient id="h" cx="22.434" cy="27.114" r="60.353" gradientTransform="translate(-0.023 -0.057)" gradientUnits="userSpaceOnUse"><stop offset="0" stop-color="#fff"/><stop offset="0.19" stop-color="#fff"/><stop offset="0.61" stop-color="#9f9d9e"/><stop offset="0.89" stop-color="#494f5d"/><stop offset="0.96" stop-color="#585a5f"/><stop offset="1" stop-color="#646462"/><stop offset="1" stop-color="#696865"/></radialGradient></defs><g transform="translate(120 27.567)"><g transform="translate(-120 -27.567)"><path class="a" d="M20.639,46.919A26.322,26.322,0,0,0,46.932,73.247h0a26.324,26.324,0,0,0,26.3-26.328h0a26.3,26.3,0,1,0-52.59,0Z" transform="translate(-12.459 -12.421)"/><path class="b" d="M0,34.5a34.458,34.458,0,1,0,68.916,0h0A34.493,34.493,0,0,0,34.462,0h0A34.492,34.492,0,0,0,0,34.5Zm7.164,0a27.324,27.324,0,0,1,27.3-27.328h0A27.318,27.318,0,0,1,61.749,34.5h0A27.318,27.318,0,0,1,34.46,61.828h0A27.324,27.324,0,0,1,7.164,34.5Z" transform="translate(0)"/><path class="c" d="M22.209,54.441,22.048,54a26.255,26.255,0,1,1,51.31-7.813l-.012.262-.119-2.364A26.154,26.154,0,1,0,21.592,52.03Z" transform="translate(-12.591 -12)"/><path class="d" d="M69.378,42.255a7.737,7.737,0,1,0,15.474,0h0A7.751,7.751,0,0,0,77.122,34.5h0A7.752,7.752,0,0,0,69.378,42.255Z" transform="translate(-41.881 -20.81)"/><path class="e" d="M20.586,86.872v.034a26.324,26.324,0,0,0,21.8,25.917h0l-.581-1.358A26.3,26.3,0,0,1,20.618,86.374h0C20.616,86.542,20.59,86.7,20.586,86.872Zm31.549,24.563L51.55,112.8a26.322,26.322,0,0,0,21.632-25.89h0c0-.183-.03-.362-.03-.538a26.3,26.3,0,0,1-21.017,25.067Z" transform="translate(-12.427 -52.096)"/><path class="f" d="M110.807,36.008a2.78,2.78,0,0,0-.277-.432h0C110.626,35.717,110.717,35.861,110.807,36.008Zm1.253,14.62h0c2.026-5.714-.206-12.676-1.251-14.62h0c2.739,4.489,2.986,11.959,1.327,15.09h0c-4.716,10.34-8.653,19.929-12.573,30.623l-.857.156Z" transform="translate(-59.585 -21.459)"/><path class="g" d="M43.791,28.554C35.9,32.379,31.06,38.725,33,42.736h0c1.932,4.008,9.908,4.157,17.805.335h0C58.7,39.246,63.528,32.9,61.594,28.889h0c-1-2.067-3.6-3.107-6.961-3.107a25.777,25.777,0,0,0-10.841,2.773Z" transform="translate(-19.661 -15.551)"/><path class="h" d="M50.327,31.057v0L64.954,70.3l.111-.675C60.1,56.5,55.9,45.9,50.975,30.62Z" transform="translate(-30.38 -18.47)"/><path class="i" d="M101.307,30.818l.643.436L87.331,70.5l-.119-.675C92.178,56.7,96.38,46.1,101.307,30.818Z" transform="translate(-52.647 -18.589)"/><path class="j" d="M3.177,36.419A33.2,33.2,0,1,0,36.378,3.18h0a33.233,33.233,0,0,0-33.2,33.239ZM21.814,14.506A26.15,26.15,0,0,1,36.38,10.092h0a26.178,26.178,0,0,1,14.749,4.536h0L36.495,53.8ZM10.077,36.419A26.268,26.268,0,0,1,20.2,15.7h0c-2.014,4.348-3.691,9.142-2.037,14.649h0l13.7,31.99A26.323,26.323,0,0,1,10.077,36.419ZM54.52,30.757c1.692-5.662.238-10.581-1.639-14.814h0a26.283,26.283,0,0,1,9.793,20.475h0A26.322,26.322,0,0,1,41.042,62.313h0L54.518,30.758ZM29.057,22.641h0a7.752,7.752,0,0,1,7.743-7.75h0a7.749,7.749,0,0,1,7.734,7.75h0A7.748,7.748,0,0,1,36.8,30.39h0a7.752,7.752,0,0,1-7.743-7.749Z" transform="translate(-1.918 -1.918)"/><g transform="translate(89.59 8.875)"><path class="k" d="M227.171,30.49c-.024.085-.012.145-.217.145h-.784c-.084,0-.159,0-.109-.145l2.448-7.992c.048-.145.109-.133.181-.133h.711c.06,0,.133-.012.181.133l2.46,7.993a.114.114,0,0,1-.024.133.3.3,0,0,1-.119.012h-.8c-.06,0-.132.012-.169-.133l-.674-2.33h-2.472Zm2.134-5.833c-.085-.3-.159-.543-.278-1.147H229a9.594,9.594,0,0,1-.253,1.147l-.736,2.668h2.016Z" transform="translate(-226.045 -22.365)"/><path class="k" d="M246.668,28.6c.639,0,1.749.133,1.749,1.5a1.262,1.262,0,0,1-.8,1.23,1.325,1.325,0,0,1,1.025,1.4c0,1.014-.723,1.667-1.917,1.667h-1.965c-.133,0-.145-.073-.145-.145v-5.5c0-.133.072-.145.145-.145ZM245.535,31h1.11a.833.833,0,0,0,.9-.869c0-.531-.374-.785-.941-.785h-1.073Zm0,2.644h1.134a.946.946,0,0,0,1.061-.942c0-.857-.651-.952-1.061-.952h-1.134Z" transform="translate(-237.258 -26.126)"/><path class="k" d="M259.461,34.252c0,.073-.012.145-.145.145h-.627c-.133,0-.144-.073-.144-.145V29.386h-1.52c-.132,0-.145-.073-.145-.145v-.495c0-.133.073-.145.145-.145h4.124c.193,0,.133.145.119.181l-.159.471a.171.171,0,0,1-.193.133h-1.459Z" transform="translate(-244.659 -26.127)"/><path class="k" d="M274.43,31.239c0,2.415-1.363,3.067-2.4,3.067s-2.4-.652-2.4-3.067,1.363-3.067,2.4-3.067S274.43,28.825,274.43,31.239Zm-3.81,0c0,.628.06,2.318,1.411,2.318s1.411-1.69,1.411-2.318-.06-2.318-1.411-2.318-1.411,1.692-1.411,2.318Z" transform="translate(-252.355 -25.868)"/><path class="k" d="M286.735,33.993c0,.073-.012.145-.145.145h-.627c-.133,0-.145-.073-.145-.145V28.487c0-.1.036-.133.084-.145l.265-.06.385-.1a.392.392,0,0,1,.1-.012c.085,0,.085.085.085.108v2.5h2.326V28.487c0-.1.036-.133.085-.145l.651-.159a.389.389,0,0,1,.1-.012c.084,0,.084.085.084.108v5.712c0,.073-.012.145-.145.145h-.627c-.073,0-.145-.012-.145-.145V31.53h-2.327Z" transform="translate(-262.128 -25.868)"/><path class="k" d="M305.2,31.239c0,2.415-1.362,3.067-2.4,3.067s-2.4-.65-2.4-3.067,1.363-3.067,2.4-3.067S305.2,28.825,305.2,31.239Zm-3.81,0c0,.628.06,2.318,1.411,2.318s1.411-1.69,1.411-2.318-.06-2.318-1.411-2.318-1.409,1.692-1.409,2.318Z" transform="translate(-270.93 -25.868)"/><path class="k" d="M318.657,31.352a4.813,4.813,0,0,1,.2.821h.036a8.217,8.217,0,0,1,.217-.821l.929-2.644c.012-.048.036-.109.108-.109h.856c.048,0,.084,0,.1.109l.313,5.59a.085.085,0,0,1-.1.1h-.687c-.084,0-.1-.048-.1-.1l-.133-4.192v-.445h-.024a3.019,3.019,0,0,1-.1.446l-1.012,2.935c-.048.133-.073.119-.145.119h-.495c-.073,0-.1.012-.144-.119l-1-2.936c-.012-.048-.036-.133-.109-.446h-.023v.446l-.133,4.19c0,.048-.012.1-.1.1h-.687a.085.085,0,0,1-.1-.1l.314-5.59c0-.048.012-.109.108-.109h.844c.036,0,.073.012.109.109Z" transform="translate(-280.555 -26.124)"/><path class="k" d="M334.875,33.993c0,.073-.012.145-.145.145H334.1c-.133,0-.145-.073-.145-.145V28.487c0-.1.036-.133.084-.145l.265-.06.387-.1a.386.386,0,0,1,.1-.012c.084,0,.084.085.084.108v2.5H337.2V28.487c0-.1.036-.133.084-.145l.651-.159a.388.388,0,0,1,.1-.012c.085,0,.085.085.085.108v5.712c0,.073-.012.145-.145.145h-.627c-.072,0-.144-.012-.144-.145V31.53h-2.328Z" transform="translate(-291.188 -25.868)"/><path class="k" d="M351.543,30.073c0-.507-.1-1.086-1.013-1.086a3.337,3.337,0,0,0-1.339.314.526.526,0,0,1-.181.073.1.1,0,0,1-.1-.06l-.181-.483c-.06-.169.108-.241.253-.3a4.357,4.357,0,0,1,1.652-.35c1.206,0,1.821.579,1.821,1.654v2.74a2.676,2.676,0,0,0,.145.869,2.9,2.9,0,0,0,.169.338c.037.048.048.072.048.1s-.036.06-.072.085l-.507.314c-.084.048-.158.085-.313-.193a1.968,1.968,0,0,1-.229-.543l-.012-.036-.048.048a2.179,2.179,0,0,1-1.628.761,1.552,1.552,0,0,1-1.628-1.7,1.9,1.9,0,0,1,1.7-1.932,6.967,6.967,0,0,1,1.268-.169h.193Zm0,1.183h-.18c-.567,0-2.061.1-2.061,1.316a.89.89,0,0,0,.868.992,2.224,2.224,0,0,0,1.3-.675l.073-.073Z" transform="translate(-299.897 -25.871)"/><path class="k" d="M366.127,28.6c.133,0,.145.073.145.145v5.506c0,.133-.073.145-.145.145H365.5c-.133,0-.144-.073-.144-.145v-2.33H364.7c-.349,0-.615.036-.784.64l-.193.7c-.181.652-.277.99-.736,1.183a1.794,1.794,0,0,1-.735.119c-.06,0-.145,0-.169-.1l-.159-.543c-.048-.159.036-.159.144-.169l.145-.024a.538.538,0,0,0,.542-.459l.277-.906a1.088,1.088,0,0,1,.579-.714v-.036a1.4,1.4,0,0,1-1.194-1.413c0-.374.133-1.606,2.086-1.606Zm-.77.749h-.832c-.241,0-1.181,0-1.181.881,0,.459.289.942,1.181.942h.832Z" transform="translate(-308.064 -26.121)"/><path class="k" d="M385.966,33.993c0,.073-.012.145-.145.145h-.627c-.133,0-.145-.073-.145-.145V28.487c0-.1.036-.133.085-.145l.265-.06.386-.1a.39.39,0,0,1,.1-.012c.085,0,.085.085.085.108v2.5h2.327V28.487c0-.1.036-.133.084-.145l.651-.159a.389.389,0,0,1,.1-.012c.084,0,.084.085.084.108v5.712c0,.073-.012.145-.145.145h-.627c-.072,0-.145-.012-.145-.145V31.53h-2.327Z" transform="translate(-322.03 -25.868)"/><path class="k" d="M403.777,33.623a.155.155,0,0,1,.012.072c0,.048-.073.119-.446.3a3.333,3.333,0,0,1-1.362.314c-1.182,0-2.629-.688-2.629-3.067,0-1.956,1.037-3.067,2.412-3.067,1.013,0,2.171.519,2.171,2.994v.06c0,.169-.048.205-.133.205h-3.461v.06c0,1.4.856,2,1.664,2a2.652,2.652,0,0,0,1.327-.423.741.741,0,0,1,.145-.06h.024a.072.072,0,0,1,.06.06Zm-.832-2.934a2.79,2.79,0,0,0-.193-1.026,1.093,1.093,0,0,0-1.073-.736c-.639,0-1.314.471-1.339,1.763Z" transform="translate(-330.664 -25.871)"/><path class="k" d="M415.726,34.041c0,.012,0,.1-.133.1h-.651c-.133,0-.133-.085-.133-.1V28.486c0-.1.036-.133.084-.145l.241-.06.41-.1a.208.208,0,0,1,.085-.012h.012a.086.086,0,0,1,.084.1v2.487h.519c.434,0,.639-.205.747-.652l.158-.628a1.54,1.54,0,0,1,.808-1.183,2.138,2.138,0,0,1,.6-.119.142.142,0,0,1,.159.1l.128.543c.037.133-.084.133-.159.145l-.169.024a.519.519,0,0,0-.374.193,1.663,1.663,0,0,0-.181.471l-.133.483a1.19,1.19,0,0,1-.8.952,1.1,1.1,0,0,1,.8.773l.374,1.159a.951.951,0,0,0,.193.338.8.8,0,0,0,.35.119l.144.024c.108.012.193.012.145.169l-.159.543c-.025.1-.109.1-.169.1a1.8,1.8,0,0,1-.736-.119c-.494-.205-.579-.628-.735-1.183L417,32.144c-.159-.567-.386-.64-.747-.64h-.531Z" transform="translate(-339.995 -25.868)"/><path class="k" d="M432.663,31.239c0,2.415-1.362,3.067-2.4,3.067s-2.4-.652-2.4-3.067,1.363-3.067,2.4-3.067S432.663,28.825,432.663,31.239Zm-3.81,0c0,.628.061,2.318,1.411,2.318s1.411-1.69,1.411-2.318-.06-2.318-1.411-2.318S428.852,30.612,428.852,31.239Z" transform="translate(-347.875 -25.868)"/><path class="k" d="M446.124,31.352a4.8,4.8,0,0,1,.2.821h.037a8.342,8.342,0,0,1,.217-.821l.929-2.644c.012-.048.036-.109.108-.109h.856c.048,0,.084,0,.1.109l.314,5.59a.085.085,0,0,1-.1.1H448.1c-.084,0-.1-.048-.1-.1l-.133-4.192v-.445h-.025a3.042,3.042,0,0,1-.1.446l-1.014,2.935c-.048.133-.073.119-.145.119H446.1c-.073,0-.1.012-.144-.119l-1-2.936c-.012-.048-.036-.133-.109-.446h-.024v.446l-.133,4.19c0,.048-.012.1-.1.1h-.687a.085.085,0,0,1-.1-.1l.313-5.59c0-.048.012-.109.108-.109h.842c.036,0,.073.012.109.109Z" transform="translate(-357.5 -26.124)"/><path class="k" d="M463.5,31.352a4.79,4.79,0,0,1,.2.821h.036a8.359,8.359,0,0,1,.217-.821l.929-2.644c.012-.048.036-.109.108-.109h.856c.048,0,.084,0,.1.109l.314,5.59a.085.085,0,0,1-.1.1h-.687c-.084,0-.1-.048-.1-.1l-.133-4.192v-.445h-.024a3.019,3.019,0,0,1-.1.446l-1.013,2.935c-.048.133-.072.119-.145.119h-.495c-.072,0-.1.012-.144-.119l-1-2.936c-.012-.048-.036-.133-.109-.446H462.2v.446l-.133,4.19c0,.048-.012.1-.1.1h-.687a.085.085,0,0,1-.1-.1l.314-5.59c0-.048.012-.109.108-.109h.844c.037,0,.073.012.109.109Z" transform="translate(-367.99 -26.124)"/><path class="k" d="M481.981,33.623a.151.151,0,0,1,.012.072c0,.048-.073.119-.446.3a3.334,3.334,0,0,1-1.362.314c-1.182,0-2.629-.688-2.629-3.067,0-1.956,1.037-3.067,2.412-3.067,1.013,0,2.171.519,2.171,2.994v.06c0,.169-.048.205-.133.205h-3.461v.06c0,1.4.856,2,1.665,2a2.653,2.653,0,0,0,1.327-.423.741.741,0,0,1,.145-.06h.024a.072.072,0,0,1,.06.06Zm-.832-2.934a2.8,2.8,0,0,0-.193-1.026,1.092,1.092,0,0,0-1.073-.736c-.639,0-1.314.471-1.339,1.763Z" transform="translate(-377.873 -25.871)"/><path class="k" d="M492.676,29.914a2.074,2.074,0,0,0-.277-1.123.368.368,0,0,1-.085-.169.082.082,0,0,1,.06-.085l.519-.326a.141.141,0,0,1,.205.024,1.511,1.511,0,0,1,.326.652l.1-.073a2.722,2.722,0,0,1,1.58-.64c.6,0,1.978.3,1.978,3.03,0,2.753-1.411,3.1-2.171,3.1a2.41,2.41,0,0,1-1.314-.409v2.46a.135.135,0,0,1-.1.145l-.579.145c-.084.024-.241.073-.241-.109Zm.916,3.187a2.705,2.705,0,0,0,1.266.4c1.17,0,1.229-1.135,1.229-2.318,0-1.086-.085-2.2-1.194-2.2a2.448,2.448,0,0,0-1.3.592Z" transform="translate(-386.781 -25.87)"/><path class="k" d="M511.221,33.993c0,.073-.012.145-.145.145h-.627c-.132,0-.144-.073-.144-.145V31.771A3.9,3.9,0,0,1,509.1,32a1.989,1.989,0,0,1-1.471-.543,1.654,1.654,0,0,1-.35-1.159v-1.81c0-.1.037-.133.084-.145l.652-.159a.391.391,0,0,1,.1-.012c.084,0,.084.085.084.108v2.113c0,.845.869.857,1.025.857a2.788,2.788,0,0,0,1.085-.229V28.487c0-.1.036-.133.084-.145l.651-.159a.391.391,0,0,1,.1-.012c.084,0,.084.085.084.108Z" transform="translate(-395.811 -25.868)"/><path class="k" d="M525.466,33.623a.153.153,0,0,1,.012.072c0,.048-.072.119-.447.3a3.333,3.333,0,0,1-1.362.314c-1.182,0-2.629-.688-2.629-3.067,0-1.956,1.037-3.067,2.412-3.067,1.013,0,2.171.519,2.171,2.994v.06c0,.169-.049.205-.133.205H522.03v.06c0,1.4.856,2,1.665,2a2.654,2.654,0,0,0,1.327-.423.742.742,0,0,1,.144-.06h.024a.072.072,0,0,1,.06.06Zm-.832-2.934a2.792,2.792,0,0,0-.193-1.026,1.093,1.093,0,0,0-1.073-.736c-.639,0-1.314.471-1.339,1.763Z" transform="translate(-404.123 -25.871)"/><path class="k" d="M539.52,29.527c-.012.024-.025.048-.06.048s-.084-.036-.145-.085a1.751,1.751,0,0,0-1.182-.507c-1.459,0-1.5,1.727-1.5,2.257,0,.906.109,2.257,1.388,2.257a2.821,2.821,0,0,0,1.327-.423.739.739,0,0,1,.144-.06h.025a.073.073,0,0,1,.06.06l.217.544a.15.15,0,0,1,.012.072c0,.048-.072.119-.446.3a3.339,3.339,0,0,1-1.363.314c-1.1,0-2.351-.567-2.351-2.946,0-2.2,1.194-3.187,2.412-3.187a2.715,2.715,0,0,1,1.556.507c.253.181.229.241.192.3Z" transform="translate(-412.942 -25.87)"/><path class="k" d="M550.713,34.041c0,.012,0,.1-.133.1h-.652c-.132,0-.132-.085-.132-.1V28.486c0-.1.036-.133.084-.145l.241-.06.41-.1a.206.206,0,0,1,.085-.012h.011a.085.085,0,0,1,.085.1v2.487h.519c.434,0,.639-.205.747-.652l.159-.628a1.539,1.539,0,0,1,.808-1.183,2.137,2.137,0,0,1,.6-.119.141.141,0,0,1,.158.1l.133.543c.036.133-.085.133-.159.145l-.169.024a.52.52,0,0,0-.374.193,1.661,1.661,0,0,0-.181.471l-.133.483a1.189,1.189,0,0,1-.8.952,1.1,1.1,0,0,1,.8.773l.374,1.159a.943.943,0,0,0,.192.338.8.8,0,0,0,.35.119l.145.024c.108.012.193.012.144.169l-.158.543c-.025.1-.108.1-.169.1a1.8,1.8,0,0,1-.735-.119c-.494-.205-.579-.628-.735-1.183l-.241-.858c-.159-.567-.386-.64-.748-.64h-.531Z" transform="translate(-421.482 -25.868)"/><path class="k" d="M565.859,30.073c0-.507-.1-1.086-1.013-1.086a3.335,3.335,0,0,0-1.338.314.527.527,0,0,1-.181.073.1.1,0,0,1-.1-.06l-.181-.483c-.06-.169.108-.241.253-.3a4.359,4.359,0,0,1,1.652-.35c1.206,0,1.821.579,1.821,1.654v2.74a2.675,2.675,0,0,0,.145.869,2.9,2.9,0,0,0,.169.338c.036.048.049.072.049.1s-.037.06-.072.085l-.507.314c-.084.048-.158.085-.314-.193a1.974,1.974,0,0,1-.229-.543L566,33.5l-.048.048a2.179,2.179,0,0,1-1.628.761,1.552,1.552,0,0,1-1.628-1.7,1.9,1.9,0,0,1,1.7-1.932,6.967,6.967,0,0,1,1.268-.169h.192Zm0,1.183h-.181c-.567,0-2.061.1-2.061,1.316a.89.89,0,0,0,.868.992,2.224,2.224,0,0,0,1.3-.675l.073-.073Z" transform="translate(-429.271 -25.871)"/><path class="k" d="M580.444,28.6c.133,0,.144.073.144.145v5.506c0,.133-.072.145-.144.145h-.627c-.133,0-.145-.073-.145-.145v-2.33h-.651c-.349,0-.615.036-.784.64l-.193.7c-.181.652-.278.99-.736,1.183a1.8,1.8,0,0,1-.735.119c-.06,0-.144,0-.169-.1l-.158-.543c-.048-.159.036-.159.144-.169l.145-.024a.539.539,0,0,0,.543-.459l.277-.906a1.088,1.088,0,0,1,.578-.714v-.036a1.4,1.4,0,0,1-1.193-1.413c0-.374.133-1.606,2.086-1.606Zm-.772.748h-.832c-.241,0-1.182,0-1.182.881,0,.459.29.942,1.182.942h.832Z" transform="translate(-437.44 -26.121)"/><path class="k" d="M603.19,31.239c0,2.415-1.363,3.067-2.4,3.067s-2.4-.652-2.4-3.067,1.362-3.067,2.4-3.067S603.19,28.825,603.19,31.239Zm-3.81,0c0,.628.06,2.318,1.411,2.318s1.411-1.69,1.411-2.318-.06-2.318-1.411-2.318-1.411,1.692-1.411,2.318Z" transform="translate(-450.815 -25.868)"/><path class="k" d="M614.242,29.914a2.075,2.075,0,0,0-.278-1.123.361.361,0,0,1-.084-.169.083.083,0,0,1,.06-.085l.519-.326a.141.141,0,0,1,.108-.032.143.143,0,0,1,.1.057,1.517,1.517,0,0,1,.325.652l.1-.073a2.719,2.719,0,0,1,1.579-.64c.6,0,1.978.3,1.978,3.03,0,2.753-1.411,3.1-2.17,3.1a2.407,2.407,0,0,1-1.314-.41V36.36a.136.136,0,0,1-.1.145l-.579.145c-.085.024-.241.073-.241-.109Zm.917,3.187a2.7,2.7,0,0,0,1.266.4c1.17,0,1.228-1.135,1.228-2.318,0-1.086-.085-2.2-1.193-2.2a2.447,2.447,0,0,0-1.3.592Z" transform="translate(-460.166 -25.87)"/><path class="k" d="M629.857,28.782c0-.06.012-.181.158-.181h2.918c.181,0,.145.119.133.205l-.1.471a.163.163,0,0,1-.181.133h-2.014v4.841c0,.073-.012.145-.145.145H630c-.133,0-.145-.073-.145-.145Z" transform="translate(-469.811 -26.127)"/><path class="k" d="M641.173,30.073c0-.507-.1-1.086-1.013-1.086a3.336,3.336,0,0,0-1.338.314.525.525,0,0,1-.181.073.1.1,0,0,1-.1-.06l-.181-.483c-.06-.169.109-.241.253-.3a4.36,4.36,0,0,1,1.652-.35c1.206,0,1.821.579,1.821,1.654v2.74a2.662,2.662,0,0,0,.145.869,2.78,2.78,0,0,0,.169.338c.036.048.048.072.048.1s-.036.06-.073.085l-.506.314c-.085.048-.159.085-.313-.193a1.974,1.974,0,0,1-.23-.543l-.011-.036-.049.048a2.178,2.178,0,0,1-1.628.761,1.552,1.552,0,0,1-1.628-1.7,1.9,1.9,0,0,1,1.7-1.932,6.97,6.97,0,0,1,1.268-.169h.193Zm0,1.183h-.181c-.567,0-2.061.1-2.061,1.316a.89.89,0,0,0,.868.992,2.223,2.223,0,0,0,1.3-.675l.072-.073Z" transform="translate(-474.736 -25.871)"/><path class="k" d="M654.144,33.993c0,.073-.012.145-.145.145h-.627c-.133,0-.145-.073-.145-.145V28.487c0-.1.036-.133.085-.145l.266-.06.385-.1a.4.4,0,0,1,.1-.012c.084,0,.084.085.084.108v2.5h2.327V28.487c0-.1.036-.133.085-.145l.652-.159a.385.385,0,0,1,.1-.012c.084,0,.084.085.084.108v5.712c0,.073-.012.145-.145.145h-.627c-.073,0-.145-.012-.145-.145V31.53h-2.328Z" transform="translate(-483.919 -25.868)"/><path class="k" d="M668.776,28.487c0-.1.036-.133.084-.145l.266-.06.386-.1a.393.393,0,0,1,.1-.012c.084,0,.084.085.084.108v3.272l-.035,1.183h.036c.386-.761.494-.952.579-1.111l1.845-3.224a.1.1,0,0,1,.073-.06l.651-.159a.387.387,0,0,1,.1-.012c.084,0,.084.085.084.108v5.713c0,.133-.072.145-.144.145h-.627c-.073,0-.145-.012-.145-.145V30.926l.036-1.171h-.036c-.362.724-.555,1.062-.579,1.1l-1.845,3.224a.129.129,0,0,1-.133.06h-.627c-.133,0-.144-.073-.144-.145Z" transform="translate(-493.305 -25.867)"/><path class="k" d="M684.683,30.954c0-.109.025-.169.159-.169h.218c.59,0,1.17-.265,1.17-.952,0-.386-.145-.906-.966-.906a1.761,1.761,0,0,0-1.206.507c-.06.048-.1.085-.145.085s-.048-.024-.06-.048l-.289-.483c-.036-.06-.06-.119.194-.3a2.679,2.679,0,0,1,1.628-.507,1.555,1.555,0,0,1,1.783,1.582,1.437,1.437,0,0,1-.892,1.316,1.391,1.391,0,0,1,1.049,1.389c0,1.183-.892,1.847-2.135,1.847a3.255,3.255,0,0,1-1.64-.459c-.1-.06-.169-.108-.169-.159a.147.147,0,0,1,.012-.072l.217-.483a.1.1,0,0,1,.06-.06h.024a.73.73,0,0,1,.145.06,2.729,2.729,0,0,0,1.363.423,1.025,1.025,0,0,0,1.133-1.05c0-.966-.977-.978-1.182-.978h-.313c-.108,0-.159-.048-.159-.159Z" transform="translate(-502.121 -25.871)"/><path class="k" d="M699.566,30.073c0-.507-.1-1.086-1.013-1.086a3.338,3.338,0,0,0-1.338.314.526.526,0,0,1-.181.073.1.1,0,0,1-.1-.06l-.181-.483c-.06-.169.108-.241.253-.3a4.357,4.357,0,0,1,1.652-.35c1.206,0,1.822.579,1.822,1.654v2.74a2.671,2.671,0,0,0,.144.869,2.91,2.91,0,0,0,.169.338c.037.048.048.072.048.1s-.036.06-.072.085l-.507.314c-.085.048-.159.085-.313-.193a1.973,1.973,0,0,1-.23-.543l-.012-.036-.048.048a2.179,2.179,0,0,1-1.628.761,1.552,1.552,0,0,1-1.628-1.7,1.9,1.9,0,0,1,1.7-1.932,6.975,6.975,0,0,1,1.268-.169h.193Zm0,1.183h-.181c-.567,0-2.061.1-2.061,1.316a.89.89,0,0,0,.868.992,2.224,2.224,0,0,0,1.3-.675l.073-.073Z" transform="translate(-509.985 -25.871)"/><path class="k" d="M714.741,33.389v-4.9c0-.1.036-.133.085-.145l.651-.159a.389.389,0,0,1,.1-.012c.084,0,.084.085.084.108v5.109h.59c.205,0,.169.085.169.159V35.77c0,.133-.073.145-.145.145h-.627c-.072,0-.145-.012-.145-.145V34.138h-3.738c-.133,0-.145-.073-.145-.145V28.487c0-.1.036-.133.084-.145l.651-.159a.389.389,0,0,1,.1-.012c.085,0,.085.085.085.108v5.109Z" transform="translate(-519.167 -25.868)"/><path class="k" d="M727.08,28.487c0-.1.036-.133.084-.145l.265-.06.386-.1a.39.39,0,0,1,.1-.012c.085,0,.085.085.085.108v3.272l-.036,1.183H728c.386-.761.494-.952.578-1.111L730.42,28.4a.1.1,0,0,1,.073-.06l.652-.159a.385.385,0,0,1,.1-.012c.084,0,.084.085.084.108v5.712c0,.133-.073.145-.145.145h-.627c-.073,0-.145-.012-.145-.145V30.926l.036-1.171h-.036c-.361.724-.555,1.062-.578,1.1l-1.845,3.224a.129.129,0,0,1-.133.06h-.627c-.133,0-.144-.073-.144-.145Z" transform="translate(-528.501 -25.868)"/><path class="k" d="M745.374,28.6c.133,0,.144.073.144.145v5.506c0,.133-.072.145-.144.145h-.629c-.133,0-.145-.073-.145-.145v-2.33h-.648c-.35,0-.615.036-.784.64l-.192.7c-.181.652-.278.99-.736,1.183a1.793,1.793,0,0,1-.735.119c-.06,0-.145,0-.169-.1l-.159-.543c-.048-.159.036-.159.144-.169l.145-.024a.539.539,0,0,0,.543-.459l.277-.906a1.087,1.087,0,0,1,.579-.714v-.036a1.4,1.4,0,0,1-1.194-1.413c0-.374.133-1.606,2.086-1.606Zm-.772.748h-.832c-.241,0-1.182,0-1.182.881,0,.459.29.942,1.182.942h.832Z" transform="translate(-537.003 -26.121)"/></g><g transform="translate(88.872 24.458)"><path class="k" d="M225.183,63.9c0-.357.218-.4.4-.4h1.9c.357,0,.4.218.4.4v5.714c0,.933-.04.516-.079,2.778h.079c.317-.794,1.011-2.421,1.308-3.075l2.5-5.4c.119-.258.159-.417.515-.417h1.883c.357,0,.4.218.4.4v12.8c0,.179-.04.4-.4.4h-1.9c-.357,0-.4-.218-.4-.4V70.384c0-.536.04-1.488.079-2.182h-.079a24.713,24.713,0,0,1-1.11,2.659l-2.735,5.893c-.1.218-.159.337-.456.337h-1.9c-.357,0-.4-.218-.4-.4Z" transform="translate(-224.807 -62.761)"/><path class="k" d="M261.954,72.95c0-.179-.02-.278.376-.357l1.823-.377c.158-.04.317-.06.317.238v9.6c0,.218-.02.278-.277.278h-1.962c-.218,0-.277-.02-.277-.278V78.188H259.1v3.869c0,.218-.02.278-.277.278h-1.962c-.218,0-.277-.06-.277-.278V72.95c0-.218-.04-.278.634-.417l1.566-.317c.159-.04.317-.06.317.238V76.2h2.854Z" transform="translate(-243.761 -68.005)"/><path class="k" d="M287.167,76.315a2.193,2.193,0,0,1-1.665.615,2.739,2.739,0,0,1-1.982-.694c-1.209-1.091-1.387-3.1-1.387-4.6,0-4.365,1.843-5.179,3.171-5.179a2.654,2.654,0,0,1,1.863.794V63.439c0-.179-.02-.278.376-.357l1.823-.377c.159-.04.317-.1.317.278v4.266a2.656,2.656,0,0,1,1.863-.794c1.328,0,3.171.813,3.171,5.179,0,1.508-.178,3.512-1.387,4.6a2.739,2.739,0,0,1-1.982.694,2.192,2.192,0,0,1-1.665-.615v4.167c0,.218-.02.278-.278.278h-1.962c-.218,0-.277-.02-.277-.278Zm0-7.222a1.289,1.289,0,0,0-1.09-.655c-1.427,0-1.427,2.143-1.427,3.234a5.085,5.085,0,0,0,.4,2.659,1.226,1.226,0,0,0,1.09.615,1.307,1.307,0,0,0,1.031-.476Zm2.517,5.378a1.309,1.309,0,0,0,1.03.476,1.226,1.226,0,0,0,1.09-.615,5.084,5.084,0,0,0,.4-2.659c0-1.092,0-3.234-1.427-3.234a1.289,1.289,0,0,0-1.09.655Z" transform="translate(-259.185 -62.264)"/><path class="k" d="M322.433,82.676c-2.18,0-4.3-1.508-4.3-5.238s2.12-5.238,4.3-5.238,4.3,1.508,4.3,5.238S324.613,82.676,322.433,82.676Zm1.625-5.238c0-1.508-.079-3.254-1.625-3.254s-1.625,1.746-1.625,3.254.079,3.254,1.625,3.254S324.058,78.946,324.058,77.438Z" transform="translate(-280.916 -68.009)"/><path class="k" d="M347.725,85.775c0,.179.02.278-.377.357l-1.823.377a.3.3,0,0,1-.258-.02c-.079-.059-.059-.238-.059-.377V76.052a8.42,8.42,0,0,0-.3-2.778,1.311,1.311,0,0,1-.079-.317c0-.119.119-.179.218-.218l1.506-.5c.317-.1.515-.159.734.436.08.179.119.357.179.536a3.482,3.482,0,0,1,2.477-1.032,2.747,2.747,0,0,1,2.517,1.23,7.02,7.02,0,0,1,.971,3.928,6.459,6.459,0,0,1-.991,3.968,3.186,3.186,0,0,1-2.854,1.349,3.715,3.715,0,0,1-1.863-.516Zm0-5.476a2.675,2.675,0,0,0,1.427.377,1.515,1.515,0,0,0,1.446-.833,8.32,8.32,0,0,0-.119-4.961,1.285,1.285,0,0,0-1.229-.714,2.142,2.142,0,0,0-1.526.754Z" transform="translate(-297.034 -67.993)"/><path class="k" d="M371.956,82.844c-.416,0-.377-.119-.377-.3l.5-9.206c.02-.357.238-.3.376-.3h1.665c.119,0,.317-.02.4.218l1.526,4.206a15.621,15.621,0,0,1,.535,2.1h.039a15.684,15.684,0,0,1,.535-2.1l1.526-4.206c.079-.238.278-.218.4-.218h1.665c.139,0,.357-.06.376.3l.5,9.206c0,.179.04.3-.377.3h-1.348c-.178,0-.377.02-.377-.3l-.177-6.329h-.06c-.2.694-.436,1.548-.674,2.242l-1.07,2.976c-.1.278-.238.238-.4.238h-1.07c-.159,0-.3.04-.4-.238l-1.07-2.976c-.238-.694-.476-1.548-.674-2.242h-.059l-.18,6.33c0,.317-.2.3-.377.3Z" transform="translate(-313.18 -68.515)"/><path class="k" d="M407.677,82.636c-.139.06-.258.1-.416-.2a3.452,3.452,0,0,1-.337-.952,3.328,3.328,0,0,1-2.616,1.19,2.79,2.79,0,0,1-2.933-3.016,3.018,3.018,0,0,1,1.209-2.579,7.407,7.407,0,0,1,3.963-.813v-.615a1.7,1.7,0,0,0-.238-1.071,1.319,1.319,0,0,0-1.07-.4,5.556,5.556,0,0,0-1.605.278,7.272,7.272,0,0,1-.951.317c-.119,0-.159-.06-.2-.2l-.416-1.25c-.1-.278-.1-.357.416-.6a8.582,8.582,0,0,1,3.032-.536,3.169,3.169,0,0,1,2.973,1.27,4.072,4.072,0,0,1,.436,1.925v3.829a4.941,4.941,0,0,0,.3,1.964,2.9,2.9,0,0,1,.218.6.216.216,0,0,1-.159.2Zm-1.13-4.742c-1.387-.02-2.795.258-2.795,1.587a1.293,1.293,0,0,0,1.308,1.349,2.089,2.089,0,0,0,1.486-.754Z" transform="translate(-331.164 -68.009)"/><path class="k" d="M427.179,72.95c0-.258-.039-.278.674-.417l1.526-.317c.159-.04.317-.06.317.238v7.9h2.537v-7.4c0-.179-.02-.278.376-.357l1.823-.377c.159-.04.317-.06.317.238v7.9h.951c.139,0,.277-.04.277.278v4.206c0,.218-.02.278-.277.278h-1.863c-.218,0-.277-.059-.277-.278v-2.5h-6.1c-.258,0-.278-.06-.278-.278Z" transform="translate(-346.744 -68.005)"/><path class="k" d="M453.88,72.95c0-.179-.02-.278.377-.357l1.823-.377c.159-.04.317-.06.317.238v4.127c0,.556-.059,1.647-.1,2.143h.08a25.214,25.214,0,0,1,1.248-2.421l1.922-3.353c.238-.4.337-.357.674-.417l1.585-.317c.158-.04.317-.06.317.238v9.6c0,.218-.02.278-.277.278h-1.962c-.218,0-.278-.02-.278-.278v-3.77c0-.377.02-.814.1-2.143h-.079a23.55,23.55,0,0,1-1.248,2.421L456.5,82.057c-.1.179-.119.278-.377.278h-1.962c-.218,0-.277-.02-.277-.278Z" transform="translate(-362.862 -68.005)"/><path class="k" d="M484.581,82.676c-2.18,0-4.3-1.508-4.3-5.238s2.12-5.238,4.3-5.238,4.3,1.508,4.3,5.238S486.76,82.676,484.581,82.676Zm1.625-5.238c0-1.508-.079-3.254-1.625-3.254s-1.625,1.746-1.625,3.254.079,3.254,1.625,3.254S486.205,78.946,486.205,77.438Z" transform="translate(-378.799 -68.009)"/><path class="k" d="M513,72.95c0-.179-.02-.278.376-.357l1.823-.377c.158-.04.317-.06.317.238v9.6c0,.218-.02.278-.277.278h-1.962c-.218,0-.277-.02-.277-.278V78.188h-2.854v3.869c0,.218-.02.278-.278.278h-1.962c-.218,0-.277-.06-.277-.278V72.95c0-.218-.04-.278.634-.417l1.565-.317c.159-.04.317-.06.317.238V76.2H513Z" transform="translate(-395.308 -68.005)"/><path class="k" d="M539.9,72.95c0-.179-.02-.278.376-.357l1.823-.377c.159-.04.317-.06.317.238v9.6c0,.218-.02.278-.278.278h-1.961c-.218,0-.277-.02-.277-.278V78.188h-2.854v3.869c0,.218-.02.278-.277.278h-1.962c-.218,0-.277-.06-.277-.278V72.95c0-.218-.04-.278.634-.417l1.565-.317c.159-.04.317-.06.317.238V76.2H539.9Z" transform="translate(-411.548 -68.005)"/><path class="k" d="M561.706,82.334c-.218,0-.278-.02-.278-.278V72.95c0-.278-.02-.258.694-.417l1.506-.317c.159-.04.318-.06.318.238v3.492h1.109a4.529,4.529,0,0,1,3.112.794,2.84,2.84,0,0,1,.971,2.321,2.978,2.978,0,0,1-1.05,2.48,5.216,5.216,0,0,1-3.31.794Zm2.24-1.984h.991c.734,0,1.684-.06,1.684-1.211,0-1.19-1.05-1.21-1.466-1.21h-1.209Zm6.56-7.4c0-.179-.02-.278.376-.357l1.823-.377c.159-.04.317-.06.317.238v9.6c0,.218-.02.278-.278.278h-1.962c-.218,0-.277-.02-.277-.278Z" transform="translate(-427.785 -68.005)"/><path class="k" d="M597.679,66.583c0-.179-.019-.278.376-.357l1.823-.377c.158-.04.317-.06.317.238v4.127c0,.556-.059,1.647-.1,2.143h.079a25.165,25.165,0,0,1,1.248-2.421l1.922-3.353c.238-.4.338-.357.674-.417l1.586-.317c.158-.04.317-.06.317.238v9.6c0,.218-.02.278-.278.278h-1.961c-.218,0-.278-.02-.278-.278V71.92c0-.377.021-.814.1-2.143h-.079a23.549,23.549,0,0,1-1.249,2.421l-1.882,3.492c-.1.179-.119.278-.377.278h-1.962c-.218,0-.277-.02-.277-.278Zm6.758-4.762c.079.02.178.1.178.317a2.458,2.458,0,0,1-.357,1.171,3.012,3.012,0,0,1-4.914,0,2.461,2.461,0,0,1-.357-1.171c0-.218.1-.3.178-.317l1.15-.159c.1-.02.238-.06.317.04a1.086,1.086,0,0,1,.139.4,1.049,1.049,0,0,0,2.061,0,1.057,1.057,0,0,1,.139-.4c.079-.1.218-.06.317-.04Z" transform="translate(-449.668 -61.637)"/><path class="k" d="M637.128,72.95c0-.258-.04-.278.674-.417l1.526-.317c.158-.04.317-.06.317.238v7.9h2.536v-7.4c0-.179-.02-.278.377-.357l1.823-.377c.159-.04.317-.06.317.238v7.9h.952c.139,0,.277-.04.277.278v4.206c0,.218-.02.278-.277.278h-1.863c-.218,0-.277-.059-.277-.278v-2.5h-6.1c-.258,0-.277-.06-.277-.278Z" transform="translate(-473.482 -68.005)"/><path class="k" d="M664.9,78.111c0,1.448.535,2.48,2.18,2.48a4.6,4.6,0,0,0,1.982-.456,1.5,1.5,0,0,1,.535-.2.216.216,0,0,1,.219.159l.5,1.171a.372.372,0,0,1,.059.179.556.556,0,0,1-.316.436,6.235,6.235,0,0,1-3.151.794c-4.242,0-4.519-3.611-4.519-4.98,0-3.135,1.566-5.5,4.34-5.5a3.608,3.608,0,0,1,3.746,3.195,8.847,8.847,0,0,1,.218,2.083c0,.615-.2.635-.456.635Zm3.111-1.845a3.584,3.584,0,0,0-.079-1.012,1.3,1.3,0,0,0-1.348-1.21c-1.129,0-1.566.873-1.684,2.222Z" transform="translate(-488.724 -68.007)"/><path class="k" d="M694.2,72.95c0-.179-.02-.278.376-.357l1.824-.377c.158-.04.316-.06.316.238v9.6c0,.218-.02.278-.277.278h-1.961c-.218,0-.277-.02-.277-.278V78.188h-2.854v3.869c0,.218-.02.278-.277.278H689.1c-.218,0-.277-.06-.277-.278V72.95c0-.218-.04-.278.634-.417l1.566-.317c.158-.04.317-.06.317.238V76.2H694.2Z" transform="translate(-504.691 -68.005)"/><path class="k" d="M717.782,82.571c0,.218-.02.278-.278.278h-1.962c-.218,0-.278-.02-.278-.278V75.032h-2.259c-.218,0-.278-.06-.278-.278V73.326c0-.218.06-.278.278-.278h7.233c.416,0,.337.2.3.4l-.277,1.31c-.059.238-.2.278-.3.278h-2.18Z" transform="translate(-519.12 -68.52)"/><path class="k" d="M738.121,85.775c0,.179.02.278-.376.357l-1.823.377a.3.3,0,0,1-.258-.02c-.079-.059-.06-.238-.06-.377V76.052a8.44,8.44,0,0,0-.3-2.778,1.318,1.318,0,0,1-.08-.317c0-.119.119-.179.218-.218l1.506-.5c.317-.1.515-.159.734.436a5.627,5.627,0,0,1,.178.536,3.483,3.483,0,0,1,2.477-1.032,2.747,2.747,0,0,1,2.517,1.23,7.019,7.019,0,0,1,.971,3.928,6.459,6.459,0,0,1-.991,3.968,3.186,3.186,0,0,1-2.854,1.349,3.714,3.714,0,0,1-1.863-.516Zm0-5.476a2.675,2.675,0,0,0,1.427.377,1.515,1.515,0,0,0,1.447-.833,8.318,8.318,0,0,0-.119-4.961,1.285,1.285,0,0,0-1.228-.714,2.142,2.142,0,0,0-1.527.754Z" transform="translate(-532.701 -67.993)"/><path class="k" d="M224.51,130.849c-.218,0-.277-.02-.277-.278v-9.246c0-.218.02-.278.277-.278h3.032a6.272,6.272,0,0,1,3.21.516,2.262,2.262,0,0,1,.971,1.9,2.209,2.209,0,0,1-1.585,2.183,2.321,2.321,0,0,1,1.9,2.42,2.428,2.428,0,0,1-1.07,2.123,5.727,5.727,0,0,1-3.29.655Zm2.239-5.933h1.05c1.268,0,1.407-.734,1.407-1.071,0-.893-.852-.952-1.466-.952h-.991Zm0,4.087h1.09c.733,0,1.684-.119,1.684-1.171,0-1.111-1.11-1.131-1.467-1.131H226.75Z" transform="translate(-224.233 -97.473)"/><path class="k" d="M264.35,123.031v7.539c0,.218-.02.278-.278.278H262.11c-.258,0-.277-.059-.277-.278v-9.246c0-.258.059-.278.277-.278h7.273c.218,0,.277.02.277.278v9.246c0,.218-.02.278-.277.278h-1.962c-.218,0-.277-.059-.277-.278v-7.539Z" transform="translate(-246.931 -97.473)"/><path class="k" d="M290.825,133.775c0,.178.02.278-.377.357l-1.823.377a.3.3,0,0,1-.258-.02c-.079-.059-.06-.238-.06-.377v-10.06a8.428,8.428,0,0,0-.3-2.778,1.328,1.328,0,0,1-.079-.317c0-.119.119-.179.218-.218l1.506-.5c.317-.1.515-.159.734.436a5.573,5.573,0,0,1,.178.536,3.484,3.484,0,0,1,2.477-1.032,2.748,2.748,0,0,1,2.517,1.23,7.022,7.022,0,0,1,.971,3.928,6.46,6.46,0,0,1-.991,3.968,3.186,3.186,0,0,1-2.853,1.349,3.714,3.714,0,0,1-1.863-.516Zm0-5.476a2.675,2.675,0,0,0,1.427.377,1.515,1.515,0,0,0,1.447-.833,8.312,8.312,0,0,0-.119-4.961,1.285,1.285,0,0,0-1.229-.714,2.142,2.142,0,0,0-1.526.754Z" transform="translate(-262.685 -96.947)"/><path class="k" d="M318.332,130.676c-2.18,0-4.3-1.508-4.3-5.238s2.12-5.238,4.3-5.238,4.3,1.508,4.3,5.238S320.512,130.676,318.332,130.676Zm1.625-5.238c0-1.508-.079-3.254-1.625-3.254s-1.625,1.746-1.625,3.254.08,3.254,1.625,3.254S319.957,126.946,319.957,125.438Z" transform="translate(-278.441 -96.962)"/><path class="k" d="M342.448,126.111c0,1.448.536,2.48,2.18,2.48a4.6,4.6,0,0,0,1.982-.456,1.5,1.5,0,0,1,.535-.2.216.216,0,0,1,.218.159l.5,1.171a.379.379,0,0,1,.059.179.555.555,0,0,1-.317.437,6.231,6.231,0,0,1-3.151.794c-4.241,0-4.518-3.611-4.518-4.98,0-3.135,1.566-5.5,4.34-5.5a3.607,3.607,0,0,1,3.745,3.195,8.815,8.815,0,0,1,.218,2.083c0,.615-.2.635-.455.635Zm3.112-1.845a3.6,3.6,0,0,0-.079-1.012,1.3,1.3,0,0,0-1.347-1.21c-1.13,0-1.566.873-1.685,2.222Z" transform="translate(-294.075 -96.961)"/><path class="k" d="M366.738,130.334c-.357,0-.357-.139-.357-.278V120.95c0-.258-.02-.278.654-.417l1.546-.317c.158-.04.317-.059.317.238v3.79h.872c.911,0,1.03-.436,1.149-.972l.257-1.131a2.508,2.508,0,0,1,.734-1.33,3.058,3.058,0,0,1,1.823-.615c.278,0,.317.079.357.2l.4,1.448c.039.139-.059.278-.257.317l-.3.06c-.4.079-.594.119-.813.913l-.218.774a1.565,1.565,0,0,1-1.209,1.25v.06c.951.2,1.149.913,1.367,1.528l.376,1.091c.159.476.238.675.674.754l.436.079c.139.02.317.059.218.436l-.357,1.27c-.039.139-.079.3-.515.3a3.747,3.747,0,0,1-1.823-.436,2.1,2.1,0,0,1-.832-1.389l-.377-1.647c-.119-.536-.238-.972-1.15-.972H368.9v3.829c0,.139,0,.278-.357.278Z" transform="translate(-310.042 -96.958)"/><path class="k" d="M393.784,130.571c0,.218-.02.278-.277.278h-1.962c-.218,0-.277-.02-.277-.278v-7.539h-2.259c-.218,0-.278-.06-.278-.278v-1.429c0-.218.06-.278.278-.278h7.234c.416,0,.337.2.3.4l-.277,1.31c-.059.238-.2.278-.3.278h-2.18Z" transform="translate(-323.534 -97.473)"/><path class="k" d="M411.88,120.95c0-.179-.02-.278.377-.357l1.823-.377c.159-.04.317-.059.317.238v4.127c0,.556-.059,1.647-.1,2.143h.079a25.289,25.289,0,0,1,1.249-2.421l1.922-3.353c.238-.4.337-.357.674-.417l1.585-.317c.159-.04.317-.059.317.238v9.6c0,.218-.02.278-.277.278h-1.962c-.218,0-.277-.02-.277-.278v-3.77c0-.377.02-.814.1-2.143h-.079a23.537,23.537,0,0,1-1.249,2.421l-1.883,3.492c-.1.179-.119.278-.377.278h-1.962c-.218,0-.277-.02-.277-.278Z" transform="translate(-337.508 -96.958)"/><path class="k" d="M441.924,133.775c0,.178.02.278-.377.357l-1.823.377a.3.3,0,0,1-.258-.02c-.079-.059-.06-.238-.06-.377v-10.06a8.43,8.43,0,0,0-.3-2.778,1.318,1.318,0,0,1-.079-.317c0-.119.119-.179.218-.218l1.506-.5c.317-.1.515-.159.734.436a5.585,5.585,0,0,1,.178.536,3.484,3.484,0,0,1,2.477-1.032,2.748,2.748,0,0,1,2.517,1.23,7.021,7.021,0,0,1,.971,3.928,6.459,6.459,0,0,1-.991,3.968,3.186,3.186,0,0,1-2.854,1.349,3.715,3.715,0,0,1-1.863-.516Zm0-5.476a2.675,2.675,0,0,0,1.427.377,1.515,1.515,0,0,0,1.447-.833,8.318,8.318,0,0,0-.119-4.961,1.285,1.285,0,0,0-1.229-.714,2.142,2.142,0,0,0-1.526.754Z" transform="translate(-353.898 -96.947)"/><path class="k" d="M469.431,130.676c-2.18,0-4.3-1.508-4.3-5.238s2.12-5.238,4.3-5.238,4.3,1.508,4.3,5.238S471.611,130.676,469.431,130.676Zm1.625-5.238c0-1.508-.079-3.254-1.625-3.254s-1.625,1.746-1.625,3.254.079,3.254,1.625,3.254S471.056,126.946,471.056,125.438Z" transform="translate(-369.653 -96.962)"/><path class="k" d="M492.756,130.849c-.218,0-.277-.02-.277-.278v-9.246c0-.218.02-.278.277-.278h3.032a6.273,6.273,0,0,1,3.211.516,2.263,2.263,0,0,1,.971,1.9,2.209,2.209,0,0,1-1.585,2.183,2.321,2.321,0,0,1,1.9,2.42,2.428,2.428,0,0,1-1.07,2.123,5.727,5.727,0,0,1-3.29.655ZM495,124.917h1.05c1.268,0,1.407-.734,1.407-1.071,0-.893-.852-.952-1.466-.952H495ZM495,129h1.09c.734,0,1.685-.119,1.685-1.171,0-1.111-1.11-1.131-1.467-1.131H495Z" transform="translate(-386.163 -97.473)"/><path class="k" d="M522.976,130.635c-.139.06-.258.1-.417-.2a3.492,3.492,0,0,1-.337-.952,3.327,3.327,0,0,1-2.616,1.191,2.79,2.79,0,0,1-2.933-3.016,3.016,3.016,0,0,1,1.209-2.579,7.409,7.409,0,0,1,3.964-.813v-.615a1.69,1.69,0,0,0-.238-1.071,1.317,1.317,0,0,0-1.07-.4,5.572,5.572,0,0,0-1.605.278,7.286,7.286,0,0,1-.951.317c-.119,0-.159-.06-.2-.2l-.416-1.25c-.1-.278-.1-.357.416-.6a8.58,8.58,0,0,1,3.032-.536,3.169,3.169,0,0,1,2.972,1.27,4.069,4.069,0,0,1,.436,1.925v3.829a4.945,4.945,0,0,0,.3,1.964,2.876,2.876,0,0,1,.218.6.216.216,0,0,1-.158.2Zm-1.13-4.742c-1.387-.02-2.795.258-2.795,1.587a1.294,1.294,0,0,0,1.308,1.349,2.088,2.088,0,0,0,1.486-.754Z" transform="translate(-400.766 -96.961)"/><path class="k" d="M547.85,120.95c0-.179-.02-.278.376-.357l1.823-.377c.159-.04.317-.059.317.238v9.6c0,.218-.02.278-.278.278h-1.962c-.218,0-.277-.02-.277-.278v-3.869H545v3.869c0,.218-.02.278-.278.278h-1.962c-.218,0-.278-.06-.278-.278V120.95c0-.218-.04-.278.634-.417l1.566-.317c.159-.04.317-.059.317.238v3.75h2.854Z" transform="translate(-416.346 -96.958)"/><path class="k" d="M569.378,120.95c0-.179-.02-.278.376-.357l1.824-.377c.158-.04.317-.059.317.238v4.127c0,.556-.059,1.647-.1,2.143h.079a25.262,25.262,0,0,1,1.248-2.421l1.922-3.353c.238-.4.338-.357.674-.417l1.585-.317c.159-.04.318-.059.318.238v9.6c0,.218-.02.278-.278.278h-1.962c-.218,0-.278-.02-.278-.278v-3.77c0-.377.02-.814.1-2.143h-.08a23.518,23.518,0,0,1-1.249,2.421l-1.883,3.492c-.1.179-.119.278-.376.278h-1.962c-.218,0-.278-.02-.278-.278Z" transform="translate(-432.584 -96.958)"/><path class="k" d="M597.177,120.95c0-.179-.02-.278.377-.357l1.823-.377c.158-.04.317-.059.317.238v4.127c0,.556-.059,1.647-.1,2.143h.079a25.222,25.222,0,0,1,1.249-2.421l1.922-3.353c.238-.4.337-.357.674-.417l1.585-.317c.159-.04.317-.059.317.238v9.6c0,.218-.02.278-.278.278h-1.962c-.218,0-.278-.02-.278-.278v-3.77c0-.377.02-.814.1-2.143h-.08a23.526,23.526,0,0,1-1.248,2.421l-1.883,3.492c-.1.179-.119.278-.376.278h-1.962c-.218,0-.278-.02-.278-.278Z" transform="translate(-449.365 -96.958)"/></g></g></g></svg>