<svg version="1.2" baseProfile="tiny-ps" xmlns="http://www.w3.org/2000/svg" viewBox="0 0 290 68" width="290" height="68">
	<title>index</title>
	<defs>
		<radialGradient id="grd1" gradientUnits="userSpaceOnUse"  cx="28.851" cy="17.689" r="37.71">
			<stop offset="0" stop-color="#164960"  />
			<stop offset="0.46" stop-color="#164960"  />
			<stop offset="0.68" stop-color="#007185"  />
			<stop offset="0.92" stop-color="#009cb0"  />
			<stop offset="1" stop-color="#009cb0"  />
		</radialGradient>
		<linearGradient id="grd2" gradientUnits="userSpaceOnUse"  x1="10.334" y1="-1.54" x2="56.52" y2="69.581">
			<stop offset="0" stop-color="#c6c6c6"  />
			<stop offset="0.57" stop-color="#8f8a9d"  />
			<stop offset="0.72" stop-color="#525072"  />
			<stop offset="0.9" stop-color="#a49f9c"  />
			<stop offset="1" stop-color="#a49f9c"  />
		</linearGradient>
		<linearGradient id="grd3" gradientUnits="userSpaceOnUse"  x1="34.178" y1="6.77" x2="34.178" y2="35.96">
			<stop offset="0" stop-color="#164960"  />
			<stop offset="0.1" stop-color="#164156"  />
			<stop offset="0.2" stop-color="#173b4d"  />
			<stop offset="0.3" stop-color="#153644"  />
			<stop offset="0.4" stop-color="#172f3b"  />
			<stop offset="0.5" stop-color="#162931"  />
			<stop offset="0.6" stop-color="#172328"  />
			<stop offset="0.7" stop-color="#171e20"  />
			<stop offset="0.8" stop-color="#161a18"  />
			<stop offset="0.9" stop-color="#151511"  />
			<stop offset="1" stop-color="#13110c"  />
		</linearGradient>
		<linearGradient id="grd4" gradientUnits="userSpaceOnUse"  x1="7.914" y1="46.611" x2="58.936" y2="46.611">
			<stop offset="0" stop-color="#000000"  />
			<stop offset="1" stop-color="#ffffff"  />
		</linearGradient>
		<linearGradient id="grd5" gradientUnits="userSpaceOnUse"  x1="938.842" y1="-2419.671" x2="-828.678" y2="2436.551">
			<stop offset="0" stop-color="#164960"  />
			<stop offset="0.77" stop-color="#13110c"  />
			<stop offset="1" stop-color="#164960"  />
		</linearGradient>
		<radialGradient id="grd6" gradientUnits="userSpaceOnUse"  cx="0.415" cy="8.68" r="17.761">
			<stop offset="0" stop-color="#46bcd2"  />
			<stop offset="0.15" stop-color="#46bcd2"  />
			<stop offset="0.42" stop-color="#54c0d3"  />
			<stop offset="0.64" stop-color="#0e92b0"  />
			<stop offset="0.87" stop-color="#006b90"  />
			<stop offset="1" stop-color="#006b90"  />
		</radialGradient>
		<linearGradient id="grd7" gradientUnits="userSpaceOnUse"  x1="-148.427" y1="-312.233" x2="248.84" y2="467.448">
			<stop offset="0" stop-color="#164960"  />
			<stop offset="0.1" stop-color="#154358"  />
			<stop offset="0.2" stop-color="#193f51"  />
			<stop offset="0.3" stop-color="#1b3b4a"  />
			<stop offset="0.4" stop-color="#1c3844"  />
			<stop offset="0.5" stop-color="#1f343e"  />
			<stop offset="0.6" stop-color="#1f3037"  />
			<stop offset="0.7" stop-color="#202c30"  />
			<stop offset="0.8" stop-color="#212828"  />
			<stop offset="0.9" stop-color="#212322"  />
			<stop offset="1" stop-color="#241f1c"  />
		</linearGradient>
		<radialGradient id="grd8" gradientUnits="userSpaceOnUse"  cx="19.901" cy="25.002" r="58.615">
			<stop offset="0" stop-color="#ffffff"  />
			<stop offset="0.19" stop-color="#ffffff"  />
			<stop offset="0.61" stop-color="#aeb0b8"  />
			<stop offset="0.89" stop-color="#5e6c7a"  />
			<stop offset="0.96" stop-color="#6f777d"  />
			<stop offset="1" stop-color="#7c8082"  />
			<stop offset="1" stop-color="#818485"  />
		</radialGradient>
	</defs>
	<style>
		tspan { white-space:pre }
		.shp0 { fill: url(#grd1) } 
		.shp1 { fill: url(#grd2) } 
		.shp2 { fill: #184860 } 
		.shp3 { fill: url(#grd3) } 
		.shp4 { fill: url(#grd4) } 
		.shp5 { fill: url(#grd5) } 
		.shp6 { fill: url(#grd6) } 
		.shp7 { fill: url(#grd7) } 
		.shp8 { fill: #ffffff } 
		.shp9 { fill: url(#grd8) } 
		.shp10 { fill: #6e6866 } 
	</style>
	<g id="index.v.1.3">
		<g id="Group 128">
			<path id="Path 246" class="shp0" d="M7.92 34C7.92 48.07 19.34 59.49 33.41 59.49L33.41 59.49C47.48 59.49 58.9 48.07 58.9 34L58.9 34C58.9 19.93 47.48 8.51 33.41 8.51C19.38 8.51 7.92 19.93 7.92 34Z" />
			<path id="Path 247" fill-rule="evenodd" class="shp1" d="M0 34C0 15.58 14.96 0.59 33.45 0.59C51.86 0.59 66.86 15.58 66.86 34C66.86 52.42 51.9 67.41 33.45 67.41C14.96 67.41 0 52.45 0 34ZM6.96 34C6.96 48.65 18.8 60.49 33.45 60.49C48.1 60.49 59.94 48.61 59.94 34C59.94 19.39 48.06 7.51 33.45 7.51C18.84 7.51 6.96 19.39 6.96 34Z" />
			<path id="Path 248" class="shp2" d="M9.34 41.73L9.19 41.3C8.46 38.92 8.04 36.38 8.04 33.73C8.04 19.7 19.45 8.24 33.49 8.24C47.52 8.24 58.94 19.66 58.94 33.73L58.94 34L58.82 31.69C57.52 18.89 46.71 8.89 33.6 8.89C19.61 8.89 8.23 20.27 8.23 34.27C8.23 36.04 8.42 37.73 8.73 39.38L9.34 41.73Z" />
			<path id="Path 249" class="shp3" d="M26.68 21.35C26.68 25.5 30.06 28.85 34.18 28.85C38.33 28.85 41.68 25.46 41.68 21.35L41.68 21.35C41.68 17.2 38.29 13.85 34.18 13.85L34.18 13.85C30.03 13.85 26.68 17.24 26.68 21.35Z" />
			<path id="Path 250" class="shp4" d="M7.92 34.27L7.92 34.27L7.92 34.27L7.92 34.27L7.92 34.27C7.92 46.88 17.07 57.34 29.07 59.41L29.07 59.41L28.49 58.11C16.99 55.84 8.27 45.88 7.96 33.81L7.96 33.81C7.96 33.96 7.92 34.12 7.92 34.27L7.92 34.27ZM38.52 58.07L37.95 59.37C49.86 57.22 58.94 46.84 58.94 34.31L58.94 34.31C58.94 34.12 58.9 33.96 58.9 33.77C58.59 45.84 49.94 55.76 38.52 58.07Z" />
			<path id="Path 251" class="shp5" d="M49.67 14.7C49.56 14.51 49.48 14.35 49.4 14.28L49.4 14.28C49.52 14.39 49.6 14.55 49.67 14.7L49.67 14.7ZM50.9 28.85L50.9 28.85C52.86 23.31 50.71 16.58 49.67 14.7L49.67 14.7C52.32 19.04 52.56 26.27 50.94 29.31L50.94 29.31C46.37 39.34 42.56 48.61 38.75 58.99L37.91 59.14L50.9 28.85Z" />
			<path id="Path 252" class="shp6" d="M23.41 13.2C15.76 16.89 11.07 23.04 12.92 26.93L12.92 26.93C14.8 30.81 22.53 30.96 30.18 27.23L30.18 27.23C37.83 23.54 42.52 17.39 40.64 13.51L40.64 13.51C39.68 11.51 37.14 10.51 33.87 10.51C30.83 10.51 27.1 11.39 23.41 13.2L23.41 13.2Z" />
			<path id="Path 253" class="shp7" d="M19.34 12.78L19.34 12.78L33.53 50.8L33.64 50.15C28.83 37.42 24.76 27.16 19.99 12.35L19.34 12.78Z" />
			<path id="Path 254" class="shp8" d="M47.21 12.43L47.83 12.85L33.64 50.88L33.53 50.22C38.33 37.5 42.41 27.23 47.21 12.43Z" />
			<path id="Path 255" fill-rule="evenodd" class="shp9" d="M1.23 34C1.23 16.24 15.65 1.82 33.45 1.78C51.25 1.78 65.67 16.24 65.67 34C65.67 51.8 51.21 66.22 33.45 66.22C15.65 66.22 1.23 51.76 1.23 34ZM19.3 12.78L33.53 50.84L47.71 12.89C43.64 10.12 38.71 8.51 33.41 8.51C28.22 8.51 23.34 10.09 19.3 12.78ZM7.92 34C7.92 46.61 17.07 57.03 29.1 59.11L15.8 28.12C14.19 22.77 15.8 18.16 17.76 13.93C11.76 18.58 7.92 25.85 7.92 34ZM51.02 28.54L37.95 59.14C49.86 56.99 58.94 46.57 58.94 34.04C58.94 26.04 55.25 18.89 49.44 14.2C51.25 18.28 52.67 23.04 51.02 28.54ZM26.34 20.66C26.34 16.51 29.72 13.16 33.83 13.16C37.98 13.16 41.33 16.55 41.33 20.66C41.33 24.81 37.98 28.16 33.83 28.16C29.68 28.19 26.34 24.81 26.34 20.66Z" />
			<g id="Group 125">
				<path id="Path 256" class="shp10" d="M93.15 8.39C93.12 8.43 93.12 8.47 93.04 8.47C93 8.47 92.92 8.39 92.77 8.28C92.31 7.86 91.77 7.63 91.27 7.63C89.35 7.63 89.39 10.24 89.39 11.32C89.39 13.16 89.58 15.85 91.42 15.85C92.04 15.85 92.54 15.47 92.89 15.2C93.08 15.05 93.12 15.05 93.15 15.05C93.19 15.05 93.27 15.08 93.27 15.12L93.62 15.58C93.65 15.62 93.65 15.66 93.65 15.74C93.65 15.85 93.54 15.97 93.46 16.01C92.92 16.51 92.16 16.85 91.35 16.85C89.89 16.85 88.08 16.01 88.08 11.66C88.08 10.16 88.23 6.66 91.19 6.66C91.92 6.66 92.81 6.93 93.35 7.51C93.39 7.55 93.54 7.7 93.54 7.82C93.54 7.86 93.54 7.89 93.5 7.93L93.15 8.39Z" />
				<path id="Path 257" fill-rule="evenodd" class="shp10" d="M98.42 11.85C98.42 11.24 98.31 10.59 97.23 10.59C96.73 10.59 96.12 10.74 95.65 10.97C95.54 11.01 95.5 11.05 95.42 11.05C95.35 11.05 95.31 11.01 95.31 10.97L95.08 10.39C95 10.2 95.19 10.12 95.38 10.05C96 9.78 96.65 9.62 97.35 9.62C98.77 9.62 99.5 10.32 99.5 11.59L99.5 14.82C99.5 15.16 99.58 15.58 99.65 15.85C99.69 15.97 99.81 16.16 99.84 16.24C99.88 16.28 99.92 16.31 99.92 16.35C99.92 16.39 99.88 16.43 99.84 16.47L99.27 16.85C99.15 16.89 99.08 16.97 98.88 16.62C98.77 16.43 98.73 16.35 98.61 15.97L98.61 15.93L98.58 16.01C98.23 16.35 97.69 16.89 96.65 16.89C95.27 16.89 94.73 15.89 94.73 14.89C94.73 14.16 95 13.01 96.73 12.62C97.08 12.55 97.81 12.43 98.23 12.43L98.46 12.43L98.46 11.85L98.42 11.85ZM98.19 13.24C97.54 13.24 95.77 13.35 95.77 14.78C95.77 15.62 96.35 15.93 96.81 15.93C97.46 15.93 98.15 15.35 98.35 15.12L98.42 15.05L98.42 13.24L98.19 13.24Z" />
				<path id="Path 258" class="shp10" d="M104.46 13.05C104.57 13.35 104.65 13.78 104.69 14.01L104.73 14.01C104.77 13.78 104.88 13.28 105 13.05L106.11 9.93C106.11 9.89 106.15 9.82 106.23 9.82L107.23 9.82C107.26 9.82 107.34 9.82 107.34 9.93L107.73 16.55C107.73 16.58 107.73 16.66 107.61 16.66L106.8 16.66C106.69 16.66 106.69 16.62 106.69 16.55L106.5 11.59L106.5 11.05L106.5 11.05C106.46 11.32 106.42 11.47 106.38 11.59L105.19 15.05C105.15 15.2 105.11 15.2 105.04 15.2L104.46 15.2C104.38 15.2 104.34 15.2 104.3 15.05L103.11 11.59C103.11 11.55 103.07 11.43 103 11.05L102.96 11.05L102.96 11.59L102.8 16.55C102.8 16.58 102.8 16.66 102.69 16.66L101.88 16.66C101.77 16.66 101.77 16.58 101.77 16.55L102.15 9.93C102.15 9.89 102.15 9.82 102.27 9.82L103.27 9.82C103.3 9.82 103.34 9.82 103.38 9.93L104.46 13.05Z" />
				<path id="Path 259" fill-rule="evenodd" class="shp10" d="M115.18 13.24C115.18 16.08 113.57 16.85 112.34 16.85C111.11 16.85 109.49 16.08 109.49 13.24C109.49 10.39 111.11 9.62 112.34 9.62C113.57 9.62 115.18 10.39 115.18 13.24ZM112.3 15.97C113.92 15.97 113.95 13.97 113.95 13.24C113.95 12.51 113.88 10.51 112.3 10.51C110.72 10.47 110.65 12.47 110.65 13.24C110.65 13.97 110.72 15.97 112.3 15.97Z" />
				<path id="Path 260" fill-rule="evenodd" class="shp10" d="M117.18 11.66C117.18 11.36 117.18 10.93 116.84 10.32C116.8 10.24 116.72 10.16 116.72 10.12C116.72 10.05 116.76 10.05 116.8 10.01L117.41 9.62C117.49 9.59 117.57 9.55 117.65 9.66C117.8 9.82 117.95 10.16 118.03 10.43L118.15 10.36C118.53 10.05 119.22 9.59 120.03 9.59C120.76 9.59 122.37 9.93 122.37 13.16C122.37 16.39 120.72 16.81 119.8 16.81C118.99 16.81 118.41 16.43 118.26 16.31L118.26 19.24C118.26 19.28 118.26 19.39 118.15 19.39L117.45 19.58C117.34 19.62 117.18 19.66 117.18 19.47L117.18 11.66ZM119.76 15.89C121.14 15.89 121.22 14.55 121.22 13.16C121.22 11.89 121.11 10.59 119.8 10.59C119.26 10.59 118.64 11.01 118.26 11.28L118.26 15.43C118.64 15.66 119.26 15.89 119.76 15.89Z" />
				<path id="Path 261" fill-rule="evenodd" class="shp10" d="M128.87 16.05C128.87 16.08 128.87 16.08 128.87 16.12C128.87 16.2 128.79 16.28 128.33 16.47C127.91 16.66 127.37 16.85 126.72 16.85C125.33 16.85 123.6 16.05 123.6 13.24C123.6 10.93 124.83 9.62 126.45 9.62C127.64 9.62 129.03 10.24 129.03 13.16L129.03 13.24C129.03 13.43 128.95 13.47 128.87 13.47L124.8 13.47L124.8 13.55C124.8 15.2 125.8 15.89 126.76 15.89C127.33 15.89 127.87 15.66 128.33 15.39C128.37 15.35 128.45 15.35 128.49 15.31L128.53 15.31C128.53 15.31 128.56 15.31 128.6 15.39L128.87 16.05ZM127.64 11.39C127.37 10.7 126.83 10.51 126.37 10.51C125.6 10.51 124.83 11.05 124.8 12.59L127.87 12.59C127.87 12.47 127.87 11.93 127.64 11.39Z" />
				<path id="Path 262" class="shp10" d="M130.87 10.01C130.87 9.93 130.87 9.78 131.06 9.78L134.52 9.78C134.75 9.78 134.68 9.93 134.68 10.01L134.56 10.59C134.52 10.74 134.41 10.74 134.33 10.74L131.95 10.74L131.95 16.47C131.95 16.55 131.95 16.62 131.79 16.62L131.06 16.62C130.91 16.62 130.91 16.55 130.91 16.47L130.91 10.01L130.87 10.01Z" />
				<path id="Path 263" class="shp10" d="M140.98 10.01C141.02 10.01 141.06 10.05 141.06 10.09C141.1 10.16 141.06 10.2 141.06 10.28L139.29 16.12C138.94 17.2 138.68 18.12 138.41 18.62C137.98 19.47 137.21 19.66 136.71 19.66C136.45 19.66 136.21 19.62 135.95 19.54C135.64 19.47 135.25 19.28 135.02 19.12C134.87 19.01 134.91 18.93 134.91 18.85L135.18 18.28C135.18 18.24 135.22 18.2 135.29 18.2C135.37 18.2 135.45 18.28 135.56 18.35C135.75 18.47 136.21 18.78 136.68 18.78C136.83 18.78 136.98 18.74 137.14 18.66C137.41 18.51 137.6 18.16 137.79 17.58L138.1 16.7L137.6 16.7C137.45 16.7 137.41 16.62 137.41 16.58L135.18 10.28C135.14 10.12 135.22 10.09 135.25 10.05L135.79 9.82L135.91 9.78C135.95 9.78 136.02 9.74 136.06 9.74C136.1 9.74 136.18 9.74 136.21 9.86L138.02 15.24C138.18 15.78 138.25 16.05 138.29 16.2L138.29 16.24L138.33 16.24C138.37 15.97 138.41 15.74 138.56 15.24L139.98 9.82C139.98 9.74 140.06 9.7 140.14 9.7C140.17 9.7 140.25 9.7 140.29 9.74L140.98 10.01Z" />
				<path id="Path 264" class="shp10" d="M146.48 16.47C146.48 16.55 146.48 16.66 146.33 16.66L145.6 16.66C145.44 16.66 145.44 16.58 145.44 16.47L145.44 10.7L143.67 10.7L143.67 10.89C143.67 11.82 143.56 13.55 143.48 14.24C143.4 15.05 143.21 16.2 142.17 16.7C141.87 16.85 141.64 16.89 141.37 16.89L141.29 16.89C141.17 16.89 141.14 16.81 141.14 16.74L140.98 16.2C140.94 15.97 141.1 15.97 141.21 15.97L141.33 15.97C141.6 15.93 142.21 15.81 142.44 14.7C142.64 13.82 142.67 11.74 142.67 10.55L142.67 10.12C142.67 9.97 142.67 9.93 142.87 9.93L146.33 9.93C146.48 9.93 146.52 10.09 146.52 10.16L146.52 16.47L146.48 16.47Z" />
				<path id="Path 265" class="shp10" d="M148.86 9.97C148.86 9.86 148.9 9.82 148.98 9.82L149.29 9.74L149.75 9.62C149.82 9.62 149.86 9.62 149.86 9.62C149.98 9.62 149.98 9.74 149.98 9.74L149.98 13.58L149.94 14.97L149.98 14.97C150.44 14.08 150.56 13.85 150.67 13.66L152.86 9.86C152.86 9.82 152.9 9.82 152.94 9.78L153.71 9.59C153.75 9.59 153.82 9.59 153.82 9.59C153.94 9.59 153.94 9.7 153.94 9.7L153.94 16.43C153.94 16.58 153.86 16.58 153.78 16.58L153.05 16.58C152.98 16.58 152.9 16.58 152.9 16.43L152.9 12.82L152.94 11.43L152.9 11.43C152.48 12.28 152.25 12.7 152.21 12.74L150.02 16.55C149.98 16.62 149.9 16.62 149.86 16.62L149.13 16.62C148.98 16.62 148.98 16.55 148.98 16.47L148.98 9.97L148.86 9.97Z" />
				<path id="Path 266" fill-rule="evenodd" class="shp10" d="M156.32 11.66C156.32 11.36 156.32 10.93 155.98 10.32C155.94 10.24 155.86 10.16 155.86 10.12C155.86 10.05 155.9 10.05 155.94 10.01L156.55 9.62C156.63 9.59 156.71 9.55 156.78 9.66C156.94 9.82 157.09 10.16 157.17 10.43L157.28 10.36C157.67 10.05 158.36 9.59 159.17 9.59C159.9 9.59 161.51 9.93 161.51 13.16C161.51 16.39 159.86 16.81 158.94 16.81C158.13 16.81 157.55 16.43 157.4 16.31L157.4 19.24C157.4 19.28 157.4 19.39 157.28 19.39L156.59 19.58C156.48 19.62 156.32 19.66 156.32 19.47L156.32 11.66ZM158.9 15.89C160.28 15.89 160.36 14.55 160.36 13.16C160.36 11.89 160.24 10.59 158.94 10.59C158.4 10.59 157.78 11.01 157.4 11.28L157.4 15.43C157.78 15.66 158.4 15.89 158.9 15.89Z" />
				<path id="Path 267" class="shp10" d="M168.24 10.01C168.28 10.01 168.32 10.05 168.32 10.09C168.36 10.16 168.32 10.2 168.32 10.28L166.55 16.12C166.2 17.2 165.93 18.12 165.66 18.62C165.24 19.47 164.47 19.66 163.97 19.66C163.7 19.66 163.47 19.62 163.2 19.54C162.9 19.47 162.51 19.28 162.28 19.12C162.13 19.01 162.17 18.93 162.17 18.85L162.44 18.28C162.44 18.24 162.47 18.2 162.55 18.2C162.63 18.2 162.7 18.28 162.82 18.35C163.01 18.47 163.47 18.78 163.93 18.78C164.09 18.78 164.24 18.74 164.4 18.66C164.66 18.51 164.86 18.16 165.05 17.58L165.36 16.7L164.86 16.7C164.7 16.7 164.7 16.62 164.66 16.58L162.44 10.28C162.4 10.12 162.47 10.09 162.51 10.05L163.05 9.82L163.17 9.78C163.2 9.78 163.28 9.74 163.32 9.74C163.36 9.74 163.43 9.74 163.47 9.86L165.28 15.24C165.43 15.78 165.51 16.05 165.55 16.2L165.55 16.24L165.59 16.24C165.63 15.97 165.66 15.74 165.82 15.24L167.24 9.82C167.24 9.74 167.32 9.7 167.39 9.7C167.43 9.7 167.51 9.7 167.55 9.74L168.24 10.01Z" />
				<path id="Path 268" fill-rule="evenodd" class="shp10" d="M174.01 16.05C174.01 16.08 174.01 16.08 174.01 16.12C174.01 16.2 173.93 16.28 173.47 16.47C173.05 16.66 172.51 16.85 171.85 16.85C170.47 16.85 168.74 16.05 168.74 13.24C168.74 10.93 169.97 9.62 171.59 9.62C172.78 9.62 174.16 10.24 174.16 13.16L174.16 13.24C174.16 13.43 174.08 13.47 174.01 13.47L169.93 13.47L169.93 13.55C169.93 15.2 170.93 15.89 171.89 15.89C172.47 15.89 173.01 15.66 173.47 15.39C173.51 15.35 173.58 15.35 173.62 15.31L173.66 15.31C173.66 15.31 173.7 15.31 173.74 15.39L174.01 16.05ZM172.78 11.39C172.51 10.7 171.97 10.51 171.51 10.51C170.74 10.51 169.97 11.05 169.93 12.59L173.01 12.59C173.01 12.47 173.01 11.93 172.78 11.39Z" />
				<path id="Path 269" class="shp10" d="M178.62 13.05C178.74 13.35 178.81 13.78 178.85 14.01L178.89 14.01C178.93 13.78 179.04 13.28 179.16 13.05L180.27 9.93C180.27 9.89 180.31 9.82 180.39 9.82L181.39 9.82C181.43 9.82 181.5 9.82 181.5 9.93L181.89 16.55C181.89 16.58 181.89 16.66 181.77 16.66L180.97 16.66C180.85 16.66 180.85 16.62 180.85 16.55L180.7 11.59L180.7 11.05L180.66 11.05C180.62 11.32 180.58 11.47 180.54 11.59L179.35 15.05C179.31 15.2 179.27 15.2 179.2 15.2L178.62 15.2C178.54 15.2 178.51 15.2 178.47 15.05L177.28 11.59C177.28 11.55 177.24 11.43 177.16 11.05L177.12 11.05L177.12 11.59L176.97 16.55C176.97 16.58 176.97 16.66 176.85 16.66L176.05 16.66C175.93 16.66 175.93 16.58 175.93 16.55L176.31 9.93C176.31 9.89 176.31 9.82 176.43 9.82L177.43 9.82C177.47 9.82 177.51 9.82 177.54 9.93L178.62 13.05Z" />
				<path id="Path 270" fill-rule="evenodd" class="shp10" d="M186.16 10.59C185.66 10.59 185.04 10.74 184.58 10.97C184.46 11.01 184.43 11.05 184.35 11.05C184.27 11.05 184.23 11.01 184.23 10.97L184 10.39C183.93 10.2 184.12 10.12 184.31 10.05C184.93 9.78 185.58 9.62 186.27 9.62C187.69 9.62 188.42 10.32 188.42 11.59L188.42 14.82C188.42 15.16 188.5 15.58 188.58 15.85C188.62 15.97 188.73 16.16 188.77 16.24C188.81 16.28 188.85 16.31 188.85 16.35C188.85 16.39 188.81 16.43 188.77 16.47L188.19 16.85C188.08 16.89 188 16.97 187.81 16.62C187.69 16.43 187.66 16.35 187.54 15.97L187.54 15.93L187.46 16.01C187.12 16.35 186.58 16.89 185.54 16.89C184.16 16.89 183.62 15.89 183.62 14.89C183.62 14.16 183.89 13.01 185.62 12.62C185.96 12.55 186.69 12.43 187.12 12.43L187.35 12.43L187.35 11.85C187.35 11.24 187.23 10.59 186.16 10.59ZM187.12 13.24C186.46 13.24 184.7 13.35 184.7 14.78C184.7 15.62 185.27 15.93 185.73 15.93C186.39 15.93 187.04 15.35 187.27 15.12L187.35 15.05L187.35 13.24L187.12 13.24Z" />
				<path id="Path 271" fill-rule="evenodd" class="shp10" d="M194.92 9.82C195.08 9.82 195.08 9.89 195.08 10.01L195.08 16.51C195.08 16.66 195 16.7 194.92 16.7L194.19 16.7C194.04 16.7 194.04 16.62 194.04 16.51L194.04 13.74L193.27 13.74C192.85 13.74 192.54 13.78 192.35 14.51L192.12 15.31C191.88 16.08 191.77 16.47 191.23 16.7C191.08 16.78 190.81 16.85 190.35 16.85C190.27 16.85 190.19 16.85 190.15 16.74L189.96 16.08C189.92 15.89 190 15.89 190.15 15.89L190.31 15.85C190.54 15.81 190.65 15.78 190.73 15.7C190.85 15.62 190.92 15.39 190.96 15.31L191.31 14.24C191.39 14.01 191.54 13.58 192 13.39L192 13.35C191.08 13.2 190.58 12.47 190.58 11.7C190.58 11.28 190.73 9.82 193.04 9.82L194.92 9.82ZM193 10.7C192.73 10.7 191.62 10.7 191.62 11.74C191.62 12.28 191.96 12.85 193 12.85L194 12.85L194 10.7L193 10.7Z" />
				<path id="Path 272" fill-rule="evenodd" class="shp10" d="M205.99 13.24C205.99 16.08 204.38 16.85 203.15 16.85C201.92 16.85 200.3 16.08 200.3 13.24C200.3 10.39 201.92 9.62 203.15 9.62C204.38 9.62 205.99 10.39 205.99 13.24ZM203.15 15.97C204.76 15.97 204.8 13.97 204.8 13.24C204.8 12.51 204.73 10.51 203.15 10.51C201.54 10.47 201.5 12.47 201.5 13.24C201.5 13.97 201.57 15.97 203.15 15.97Z" />
				<path id="Path 273" fill-rule="evenodd" class="shp10" d="M207.99 11.66C207.99 11.36 207.99 10.93 207.69 10.32C207.61 10.24 207.57 10.16 207.57 10.12C207.57 10.05 207.61 10.05 207.65 10.01L208.26 9.62C208.34 9.59 208.42 9.55 208.49 9.66C208.65 9.82 208.8 10.16 208.88 10.43L208.99 10.36C209.38 10.05 210.07 9.59 210.88 9.59C211.61 9.59 213.22 9.93 213.22 13.16C213.22 16.39 211.57 16.81 210.65 16.81C209.84 16.81 209.26 16.43 209.11 16.31L209.11 19.24C209.11 19.28 209.11 19.39 208.99 19.39L208.3 19.58C208.19 19.62 207.99 19.66 207.99 19.47L207.99 11.66ZM210.57 15.89C211.95 15.89 212.03 14.55 212.03 13.16C212.03 11.89 211.92 10.59 210.61 10.59C210.07 10.59 209.45 11.01 209.07 11.28L209.07 15.43C209.45 15.66 210.07 15.89 210.57 15.89Z" />
				<path id="Path 274" class="shp10" d="M215.03 10.01C215.03 9.93 215.03 9.78 215.22 9.78L218.68 9.78C218.91 9.78 218.87 9.93 218.84 10.01L218.72 10.55C218.68 10.7 218.57 10.7 218.49 10.7L216.11 10.7L216.11 16.43C216.11 16.51 216.11 16.58 215.95 16.58L215.22 16.58C215.07 16.58 215.07 16.51 215.07 16.43L215.07 10.01L215.03 10.01Z" />
				<path id="Path 275" fill-rule="evenodd" class="shp10" d="M223.53 11.85C223.53 11.24 223.41 10.59 222.33 10.59C221.83 10.59 221.22 10.74 220.76 10.97C220.64 11.01 220.6 11.05 220.57 11.05C220.49 11.05 220.45 11.01 220.45 10.97L220.26 10.39C220.18 10.2 220.37 10.12 220.57 10.05C221.18 9.78 221.83 9.62 222.53 9.62C223.95 9.62 224.68 10.32 224.68 11.59L224.68 14.82C224.68 15.16 224.76 15.58 224.83 15.85C224.87 15.97 224.99 16.16 225.03 16.24C225.06 16.28 225.1 16.31 225.1 16.35C225.1 16.39 225.06 16.43 225.03 16.47L224.45 16.85C224.33 16.89 224.26 16.97 224.06 16.62C223.95 16.43 223.91 16.35 223.8 15.97L223.8 15.93L223.72 16.01C223.37 16.35 222.83 16.89 221.8 16.89C220.41 16.89 219.87 15.89 219.87 14.89C219.87 14.16 220.14 13.01 221.87 12.62C222.22 12.55 222.95 12.43 223.37 12.43L223.6 12.43L223.6 11.85L223.53 11.85ZM223.3 13.24C222.64 13.24 220.87 13.35 220.87 14.78C220.87 15.62 221.45 15.93 221.91 15.93C222.57 15.93 223.22 15.35 223.45 15.12L223.53 15.05L223.53 13.24L223.3 13.24Z" />
				<path id="Path 276" class="shp10" d="M227.99 16.47C227.99 16.55 227.99 16.66 227.79 16.66L227.06 16.66C226.91 16.66 226.87 16.58 226.87 16.47L226.87 9.97C226.87 9.86 226.91 9.82 226.99 9.82L227.29 9.74L227.76 9.62C227.79 9.62 227.87 9.62 227.87 9.62C227.99 9.62 227.99 9.74 227.99 9.74L227.99 12.7L230.75 12.7L230.75 10.01C230.75 9.89 230.79 9.86 230.87 9.86L231.64 9.66C231.68 9.66 231.75 9.66 231.75 9.66C231.87 9.66 231.87 9.78 231.87 9.78L231.87 16.51C231.87 16.58 231.87 16.7 231.68 16.7L230.95 16.7C230.87 16.7 230.79 16.7 230.79 16.51L230.79 13.58L227.99 13.58L227.99 16.47Z" />
				<path id="Path 277" class="shp10" d="M234.18 9.97C234.18 9.86 234.21 9.82 234.29 9.82L234.6 9.74L235.06 9.62C235.1 9.62 235.18 9.62 235.18 9.62C235.29 9.62 235.29 9.74 235.29 9.74L235.29 13.58L235.25 14.97L235.29 14.97C235.75 14.08 235.87 13.85 235.98 13.66L238.17 9.86C238.17 9.82 238.21 9.82 238.25 9.78L239.02 9.59C239.06 9.59 239.14 9.59 239.14 9.59C239.25 9.59 239.25 9.7 239.25 9.7L239.25 16.43C239.25 16.58 239.17 16.58 239.06 16.58L238.33 16.58C238.25 16.58 238.17 16.58 238.17 16.43L238.17 12.82L238.21 11.43L238.17 11.43C237.75 12.28 237.52 12.7 237.48 12.74L235.29 16.55C235.25 16.62 235.18 16.62 235.14 16.62L234.41 16.62C234.25 16.62 234.21 16.55 234.21 16.47L234.21 9.97L234.18 9.97Z" />
				<path id="Path 278" class="shp10" d="M242.56 12.89C242.56 12.78 242.6 12.7 242.75 12.7L243.02 12.7C243.71 12.7 244.4 12.39 244.4 11.59C244.4 11.12 244.25 10.51 243.25 10.51C242.63 10.51 242.29 10.74 241.83 11.12C241.75 11.2 241.71 11.24 241.67 11.24C241.63 11.24 241.63 11.2 241.6 11.2L241.25 10.62C241.21 10.55 241.17 10.47 241.48 10.28C242.13 9.82 242.79 9.66 243.4 9.66C244.9 9.66 245.52 10.55 245.52 11.55C245.52 11.7 245.48 12.66 244.48 13.09C245.17 13.28 245.71 13.85 245.71 14.74C245.71 16.12 244.67 16.93 243.17 16.93C242.79 16.93 242.06 16.85 241.25 16.39C241.13 16.31 241.06 16.28 241.06 16.2C241.06 16.16 241.06 16.16 241.06 16.12L241.33 15.55C241.33 15.55 241.36 15.51 241.4 15.47L241.44 15.47C241.48 15.47 241.56 15.51 241.6 15.55C242.13 15.85 242.63 16.05 243.21 16.05C244.1 16.05 244.56 15.51 244.56 14.82C244.56 13.66 243.4 13.66 243.17 13.66L242.79 13.66C242.67 13.66 242.6 13.62 242.6 13.47L242.6 12.89L242.56 12.89Z" />
				<path id="Path 279" fill-rule="evenodd" class="shp10" d="M250.82 11.85C250.82 11.24 250.71 10.59 249.63 10.59C249.13 10.59 248.52 10.74 248.06 10.97C247.94 11.01 247.9 11.05 247.82 11.05C247.75 11.05 247.71 11.01 247.71 10.97L247.48 10.39C247.4 10.2 247.59 10.12 247.79 10.05C248.4 9.78 249.05 9.62 249.75 9.62C251.17 9.62 251.9 10.32 251.9 11.59L251.9 14.82C251.9 15.16 251.98 15.58 252.05 15.85C252.09 15.97 252.21 16.16 252.25 16.24C252.28 16.28 252.28 16.31 252.28 16.35C252.28 16.39 252.25 16.43 252.21 16.47L251.59 16.85C251.48 16.89 251.4 16.97 251.21 16.62C251.09 16.43 251.05 16.35 250.94 15.97L250.94 15.93L250.9 16.01C250.55 16.35 250.02 16.89 248.98 16.89C247.59 16.89 247.06 15.89 247.06 14.89C247.06 14.16 247.32 13.01 249.05 12.62C249.4 12.55 250.13 12.43 250.55 12.43L250.78 12.43L250.78 11.85L250.82 11.85ZM250.59 13.24C249.94 13.24 248.17 13.35 248.17 14.78C248.17 15.62 248.75 15.93 249.21 15.93C249.86 15.93 250.55 15.35 250.75 15.12L250.82 15.05L250.82 13.24L250.59 13.24Z" />
				<path id="Path 280" class="shp10" d="M257.94 15.78L257.94 9.97C257.94 9.86 257.97 9.82 258.05 9.82L258.82 9.62C258.86 9.62 258.93 9.62 258.93 9.62C259.05 9.62 259.05 9.74 259.05 9.74L259.05 15.78L259.74 15.78C259.97 15.78 259.93 15.89 259.93 15.97L259.93 18.58C259.93 18.74 259.86 18.74 259.78 18.74L259.05 18.74C258.97 18.74 258.86 18.74 258.86 18.58L258.86 16.66L254.44 16.66C254.28 16.66 254.24 16.58 254.24 16.47L254.24 9.97C254.24 9.86 254.28 9.82 254.36 9.82L255.13 9.62C255.17 9.62 255.24 9.62 255.24 9.62C255.36 9.62 255.36 9.74 255.36 9.74L255.36 15.78L257.94 15.78Z" />
				<path id="Path 281" class="shp10" d="M261.47 9.97C261.47 9.86 261.51 9.82 261.59 9.82L261.9 9.74L262.36 9.62C262.4 9.62 262.47 9.62 262.47 9.62C262.59 9.62 262.59 9.74 262.59 9.74L262.59 13.58L262.55 14.97L262.59 14.97C263.05 14.08 263.16 13.85 263.28 13.66L265.47 9.86C265.47 9.82 265.51 9.82 265.55 9.78L266.32 9.59C266.36 9.59 266.43 9.59 266.43 9.59C266.55 9.59 266.55 9.7 266.55 9.7L266.55 16.43C266.55 16.58 266.47 16.58 266.39 16.58L265.66 16.58C265.59 16.58 265.51 16.58 265.51 16.43L265.51 12.82L265.55 11.43L265.51 11.43C265.09 12.28 264.86 12.7 264.82 12.74L262.63 16.55C262.59 16.62 262.51 16.62 262.47 16.62L261.74 16.62C261.59 16.62 261.59 16.55 261.59 16.47L261.59 9.97L261.47 9.97Z" />
				<path id="Path 282" fill-rule="evenodd" class="shp10" d="M273.01 9.82C273.16 9.82 273.16 9.89 273.16 10.01L273.16 16.51C273.16 16.66 273.08 16.7 273.01 16.7L272.28 16.7C272.12 16.7 272.12 16.62 272.12 16.51L272.12 13.74L271.35 13.74C270.93 13.74 270.62 13.78 270.43 14.51L270.2 15.31C269.97 16.08 269.85 16.47 269.32 16.7C269.16 16.78 268.89 16.85 268.43 16.85C268.35 16.85 268.28 16.85 268.24 16.74L268.05 16.08C268.01 15.89 268.09 15.89 268.24 15.89L268.39 15.85C268.62 15.81 268.74 15.78 268.82 15.7C268.93 15.62 269.01 15.39 269.05 15.31L269.39 14.24C269.47 14.01 269.62 13.58 270.08 13.39L270.08 13.35C269.16 13.2 268.66 12.47 268.66 11.7C268.66 11.28 268.82 9.82 271.12 9.82L273.01 9.82ZM271.12 10.7C270.85 10.7 269.74 10.7 269.74 11.74C269.74 12.28 270.08 12.85 271.12 12.85L272.12 12.85L272.12 10.7L271.12 10.7Z" />
			</g>
			<g id="Group 126">
				<path id="Path 283" class="shp10" d="M91.39 31.39C91.27 31.04 90.96 29.81 90.69 28.27L90.62 28.27C90.62 31 90.62 31.73 90.58 32.35L90.39 38.23C90.39 38.5 90.35 38.65 90.08 38.65L88.43 38.65C88.23 38.65 88.08 38.57 88.12 38.23L88.66 25.39C88.7 25.04 88.77 24.96 88.96 24.96L91.08 24.96C91.27 24.96 91.31 24.96 91.42 25.27L93.04 30.31C93.27 31.04 93.58 32.27 93.65 32.69L93.69 32.69C93.81 31.77 94.04 31.19 94.35 30.31L96.04 25.27C96.12 25.08 96.15 24.96 96.38 24.96L98.42 24.96C98.69 24.96 98.81 25 98.84 25.62L99.38 38.23C99.42 38.57 99.23 38.65 99.08 38.65L97.08 38.65C96.85 38.65 96.77 38.5 96.77 38.23L96.62 31.46C96.62 31.04 96.62 30.89 96.62 30.31L96.62 29.85L96.62 28.23L96.54 28.23C96.31 29.46 96.15 30.42 95.85 31.35L94.62 35.23C94.54 35.42 94.54 35.58 94.27 35.58L92.85 35.58C92.54 35.58 92.54 35.42 92.5 35.23L91.39 31.39Z" />
				<path id="Path 284" fill-rule="evenodd" class="shp10" d="M103.61 34.42L103.61 34.42C103.61 34.41 103.61 34.4 103.61 34.38L103.61 34.42ZM105.8 36.88C106.73 36.88 107.42 36.61 107.8 36.42C108.03 36.31 108.23 36.23 108.34 36.23C108.46 36.23 108.53 36.31 108.57 36.38L109.07 37.58C109.11 37.65 109.11 37.69 109.11 37.77C109.11 37.96 108.96 38.11 108.8 38.19C108.07 38.69 106.76 39 105.61 39C101.34 39 101.08 35.38 101.08 34C101.08 30.85 102.65 28.46 105.46 28.46C107.96 28.46 108.88 30.12 109.23 31.69C109.42 32.54 109.46 33.27 109.46 33.77C109.46 34.38 109.26 34.42 109 34.42L103.61 34.42C103.62 35.86 104.17 36.88 105.8 36.88ZM106.69 31.5C106.53 30.73 106.11 30.27 105.34 30.27C104.19 30.27 103.77 31.15 103.65 32.5L106.76 32.5C106.8 31.96 106.73 31.65 106.69 31.5Z" />
				<path id="Path 285" class="shp10" d="M116.03 38.61C115.68 38.61 115.68 38.46 115.68 38.34L115.68 34.5L115.07 34.5C114.15 34.5 114.03 34.92 113.92 35.46L113.53 37.11C113.3 38.04 112.92 38.38 112.49 38.57C112.11 38.77 111.19 38.92 110.8 38.92C110.42 38.92 110.42 38.73 110.38 38.61L110.03 37.34C109.92 36.96 110.11 36.92 110.26 36.92L110.69 36.84C110.99 36.77 111.11 36.81 111.38 36.08L111.76 34.96C111.96 34.38 112.15 34.08 112.34 33.92C112.49 33.73 112.8 33.54 113.22 33.46L113.22 33.38C112.38 33.23 112.11 32.54 111.99 32.12L111.76 31.35C111.53 30.5 111.46 30.5 110.96 30.42L110.65 30.35C110.46 30.31 110.34 30.16 110.38 30.04L110.76 28.58C110.8 28.46 110.84 28.39 111.07 28.39C111.42 28.39 111.99 28.5 112.38 28.66C113.22 29 113.53 29.77 113.65 30.35L113.92 31.5C114.03 32.04 114.15 32.46 115.07 32.46L115.68 32.46L115.68 29.16C115.68 28.92 115.65 28.89 116.34 28.73L117.91 28.43C118.07 28.39 118.22 28.35 118.22 28.66L118.22 32.5L118.84 32.5C119.76 32.5 119.87 32.08 119.99 31.54L120.26 30.39C120.41 29.81 120.68 29.08 121.53 28.69C121.87 28.54 122.49 28.43 122.84 28.43C123.07 28.43 123.14 28.54 123.14 28.62L123.53 30.08C123.57 30.23 123.45 30.35 123.26 30.39L122.95 30.46C122.45 30.58 122.37 30.58 122.14 31.39L121.91 32.15C121.8 32.58 121.57 33.27 120.68 33.42L120.68 33.5C121.11 33.58 121.41 33.81 121.57 33.96C121.76 34.15 121.91 34.42 122.14 35L122.53 36.11C122.76 36.84 122.87 36.81 123.22 36.88L123.64 36.96C123.8 36.96 123.95 37.04 123.87 37.38L123.53 38.65C123.49 38.77 123.45 38.96 123.1 38.96C122.72 38.96 121.84 38.77 121.41 38.61C120.99 38.42 120.61 38.08 120.37 37.15L119.99 35.5C119.87 34.96 119.76 34.54 118.84 34.54L118.22 34.54L118.22 38.38C118.22 38.54 118.22 38.65 117.88 38.65L116.03 38.65L116.03 38.61Z" />
				<path id="Path 286" fill-rule="evenodd" class="shp10" d="M127.68 42.07C127.68 42.27 127.72 42.34 127.29 42.42L125.45 42.8C125.37 42.84 125.26 42.84 125.18 42.77C125.1 42.69 125.1 42.53 125.1 42.38L125.1 32.31C125.1 30.58 124.95 29.92 124.8 29.5C124.72 29.31 124.72 29.23 124.72 29.19C124.72 29.08 124.83 29 124.95 28.96L126.45 28.46C126.76 28.35 126.99 28.31 127.18 28.89C127.26 29.08 127.29 29.23 127.37 29.42C128.22 28.62 129.06 28.39 129.87 28.39C130.87 28.39 131.72 28.62 132.41 29.62C133.22 30.77 133.37 32.39 133.37 33.58C133.37 34.85 133.29 36.31 132.37 37.58C131.68 38.5 130.83 38.92 129.49 38.92C129.1 38.92 128.53 38.88 127.6 38.42L127.6 42.07L127.68 42.07ZM129.1 36.96C129.56 36.96 130.18 36.84 130.56 36.11C130.64 35.96 130.87 35.38 130.87 33.54C130.87 32.69 130.72 31.65 130.45 31.12C130.18 30.65 129.79 30.39 129.22 30.39C128.56 30.39 128.06 30.73 127.68 31.15L127.68 36.58C128.26 36.92 128.79 36.96 129.1 36.96Z" />
				<path id="Path 287" fill-rule="evenodd" class="shp10" d="M137.18 34.42L137.18 34.42C137.18 34.41 137.18 34.4 137.18 34.38L137.18 34.42ZM139.37 36.88C140.29 36.88 140.98 36.61 141.37 36.42C141.6 36.31 141.79 36.23 141.9 36.23C142.02 36.23 142.1 36.31 142.14 36.38L142.64 37.58C142.67 37.65 142.67 37.69 142.67 37.77C142.67 37.96 142.52 38.11 142.37 38.19C141.64 38.69 140.33 39 139.18 39C134.91 39 134.64 35.38 134.64 34C134.64 30.85 136.21 28.46 139.02 28.46C141.52 28.46 142.44 30.12 142.79 31.69C142.98 32.54 143.02 33.27 143.02 33.77C143.02 34.38 142.83 34.42 142.56 34.42L137.18 34.42C137.19 35.86 137.73 36.88 139.37 36.88ZM140.25 31.5C140.1 30.73 139.67 30.27 138.91 30.27C137.75 30.27 137.33 31.15 137.21 32.5L140.33 32.5C140.33 31.96 140.29 31.65 140.25 31.5Z" />
				<path id="Path 288" class="shp10" d="M147.21 38.34C147.21 38.57 147.17 38.61 146.94 38.61L144.98 38.61C144.75 38.61 144.71 38.57 144.71 38.34L144.71 29.04C144.71 28.81 144.75 28.77 144.98 28.77L150.94 28.77C151.36 28.77 151.29 28.96 151.25 29.16L150.98 30.58C150.94 30.81 150.79 30.85 150.67 30.85L147.25 30.85L147.25 38.34L147.21 38.34Z" />
				<path id="Path 289" class="shp10" d="M152.32 29.19C152.32 29 152.29 28.92 152.71 28.85L154.55 28.46C154.71 28.43 154.86 28.39 154.86 28.69L154.86 32.85C154.86 33.42 154.78 34.5 154.75 35L154.82 35C155.36 33.81 155.71 33.23 156.09 32.58L158.01 29.19C158.24 28.81 158.36 28.85 158.71 28.77L160.32 28.46C160.47 28.43 160.63 28.39 160.63 28.69L160.63 38.34C160.63 38.57 160.59 38.61 160.36 38.61L158.4 38.61C158.17 38.61 158.13 38.57 158.13 38.34L158.13 34.54C158.13 34.15 158.17 33.73 158.24 32.39L158.17 32.39C157.48 33.92 157.17 34.35 156.9 34.81L155.02 38.31C154.9 38.5 154.9 38.57 154.63 38.57L152.67 38.57C152.44 38.57 152.4 38.54 152.4 38.31L152.4 29.19L152.32 29.19Z" />
				<path id="Path 290" fill-rule="evenodd" class="shp10" d="M166.66 38.96C164.47 38.96 162.32 37.46 162.32 33.69C162.32 29.92 164.43 28.43 166.66 28.43C168.86 28.43 171.01 29.92 171.01 33.69C171.01 37.42 168.86 38.96 166.66 38.96ZM166.66 30.42C165.09 30.42 165.01 32.19 165.01 33.69C165.01 35.19 165.09 36.96 166.66 36.96C168.24 36.96 168.32 35.19 168.32 33.69C168.32 32.19 168.24 30.42 166.66 30.42Z" />
				<path id="Path 291" class="shp10" d="M178.16 29.19C178.16 29 178.12 28.92 178.54 28.85L180.39 28.46C180.54 28.43 180.7 28.39 180.7 28.69L180.7 38.34C180.7 38.57 180.66 38.61 180.43 38.61L178.47 38.61C178.24 38.61 178.2 38.57 178.2 38.34L178.2 34.46L175.31 34.46L175.31 38.34C175.31 38.57 175.28 38.61 175.05 38.61L173.01 38.61C172.78 38.61 172.74 38.54 172.74 38.34L172.74 29.19C172.74 28.96 172.7 28.92 173.39 28.77L174.97 28.46C175.12 28.43 175.28 28.39 175.28 28.69L175.28 32.46L178.16 32.46L178.16 29.19Z" />
				<path id="Path 292" fill-rule="evenodd" class="shp10" d="M188.62 38.92C188.46 39 188.35 39.04 188.19 38.73C188 38.38 187.92 38.08 187.85 37.77C187.08 38.57 186.35 38.96 185.2 38.96C183.39 38.96 182.23 37.77 182.23 35.92C182.23 34.38 183.04 33.62 183.47 33.31C184.43 32.62 186.31 32.46 187.46 32.5L187.46 31.89C187.46 31.62 187.46 31.12 187.23 30.81C187.04 30.58 186.73 30.42 186.16 30.42C185.62 30.42 185.04 30.54 184.54 30.69C183.85 30.92 183.73 31 183.58 31C183.47 31 183.43 30.92 183.39 30.81L182.97 29.54C182.85 29.27 182.85 29.19 183.39 28.92C184.2 28.54 185.62 28.39 186.43 28.39C187.66 28.39 188.81 28.66 189.42 29.66C189.81 30.35 189.85 31.23 189.85 31.58L189.85 35.42C189.85 36 189.85 36.65 190.15 37.38C190.31 37.73 190.39 37.88 190.39 38C190.39 38.11 190.27 38.19 190.23 38.19L188.62 38.92ZM184.66 35.73C184.66 36.54 185.27 37.08 185.96 37.08C186.46 37.08 187 36.81 187.46 36.31L187.46 34.15C186.08 34.12 184.66 34.42 184.66 35.73Z" />
				<path id="Path 293" class="shp10" d="M195.58 30.77L195.58 31.04C195.58 32.19 195.5 35.23 194.88 36.81C194.08 38.84 192.23 38.96 191.77 38.96C191.42 38.96 191.38 38.81 191.35 38.65L190.96 37.19C190.89 36.88 191.12 36.88 191.23 36.84L191.58 36.77C192.27 36.61 192.73 36.27 192.92 35.23C193.15 34.15 193.19 31.12 193.19 29.92L193.19 29.04C193.19 28.81 193.23 28.77 193.46 28.77L199.57 28.77C199.8 28.77 199.84 28.85 199.84 29.04L199.84 38.34C199.84 38.57 199.84 38.61 199.57 38.61L197.61 38.61C197.38 38.61 197.34 38.54 197.34 38.34L197.34 30.77L195.58 30.77Z" />
				<path id="Path 294" fill-rule="evenodd" class="shp10" d="M202.42 38.61C202.19 38.61 202.15 38.57 202.15 38.34L202.15 29.19C202.15 28.92 202.11 28.92 202.8 28.77L204.38 28.46C204.53 28.43 204.69 28.39 204.69 28.69L204.69 32.19L205.8 32.19C206.92 32.19 208.03 32.23 208.92 33C209.69 33.65 209.88 34.5 209.88 35.35C209.88 36.08 209.76 37.11 208.84 37.84C207.92 38.61 206.57 38.65 205.5 38.65L202.42 38.65L202.42 38.61ZM205.65 36.61C206.38 36.61 207.34 36.54 207.34 35.38C207.34 34.19 206.3 34.15 205.88 34.15L204.65 34.15L204.65 36.61L205.65 36.61Z" />
				<path id="Path 295" class="shp10" d="M216.99 29.19C216.99 29 216.99 28.92 217.37 28.85L219.22 28.46C219.37 28.43 219.53 28.39 219.53 28.69L219.53 38.34C219.53 38.57 219.49 38.61 219.26 38.61L217.3 38.61C217.07 38.61 217.03 38.57 217.03 38.34L217.03 34.46L214.15 34.46L214.15 38.34C214.15 38.57 214.11 38.61 213.88 38.61L211.92 38.61C211.68 38.61 211.65 38.54 211.65 38.34L211.65 29.19C211.65 28.96 211.61 28.92 212.3 28.77L213.88 28.46C214.03 28.43 214.18 28.39 214.18 28.69L214.18 32.46L217.07 32.46L217.07 29.19L216.99 29.19Z" />
				<path id="Path 296" fill-rule="evenodd" class="shp10" d="M230.95 29.19C230.95 29 230.91 28.92 231.33 28.85L233.18 28.46C233.33 28.43 233.48 28.39 233.48 28.69L233.48 38.34C233.48 38.57 233.45 38.61 233.21 38.61L231.25 38.61C231.02 38.61 230.98 38.57 230.98 38.34L230.98 29.19L230.95 29.19ZM222.1 38.61C221.87 38.61 221.83 38.57 221.83 38.34L221.83 29.19C221.83 28.92 221.83 28.92 222.53 28.77L224.03 28.46C224.18 28.43 224.33 28.39 224.33 28.69L224.33 32.19L225.45 32.19C226.56 32.19 227.68 32.23 228.56 33C229.33 33.65 229.52 34.5 229.52 35.35C229.52 36.08 229.41 37.11 228.49 37.84C227.56 38.61 226.22 38.65 225.14 38.65L222.1 38.65L222.1 38.61ZM225.33 36.61C226.06 36.61 227.02 36.54 227.02 35.38C227.02 34.19 225.99 34.15 225.56 34.15L224.33 34.15L224.33 36.61L225.33 36.61Z" />
				<path id="Path 297" class="shp10" d="M242.56 24.39C242.63 24.43 242.75 24.5 242.75 24.7C242.75 25 242.63 25.46 242.4 25.89C241.94 26.62 241.06 27.16 239.94 27.16C238.83 27.16 237.94 26.62 237.48 25.89C237.25 25.5 237.14 25.04 237.14 24.7C237.14 24.47 237.25 24.39 237.33 24.39L238.48 24.23C238.6 24.2 238.71 24.16 238.79 24.27C238.87 24.35 238.87 24.47 238.94 24.66C239.1 25.23 239.37 25.5 239.98 25.5C240.56 25.5 240.87 25.2 241.02 24.66C241.1 24.43 241.1 24.31 241.17 24.27C241.25 24.16 241.4 24.2 241.48 24.23L242.56 24.39L242.56 24.39ZM235.75 29.19C235.75 29 235.71 28.92 236.14 28.85L237.98 28.46C238.14 28.43 238.29 28.39 238.29 28.69L238.29 32.85C238.29 33.42 238.21 34.5 238.17 35L238.25 35C238.79 33.81 239.14 33.23 239.52 32.58L241.44 29.19C241.67 28.81 241.79 28.85 242.13 28.77L243.71 28.46C243.86 28.43 244.02 28.39 244.02 28.69L244.02 38.34C244.02 38.57 244.02 38.61 243.75 38.61L241.83 38.61C241.6 38.61 241.56 38.57 241.56 38.34L241.56 34.54C241.56 34.15 241.6 33.73 241.67 32.39L241.6 32.39C240.9 33.92 240.6 34.35 240.33 34.81L238.44 38.31C238.33 38.5 238.33 38.57 238.06 38.57L236.06 38.57C235.83 38.57 235.79 38.54 235.79 38.31L235.79 29.19L235.75 29.19Z" />
				<path id="Path 298" class="shp10" d="M258.47 37.38C258.55 37.54 258.59 37.61 258.59 37.69C258.59 37.84 258.44 37.96 258.36 38.04C257.67 38.61 256.44 38.96 255.24 38.96C250.71 38.96 250.13 34.81 250.13 31.96C250.13 25.81 253.09 24.62 255.21 24.62C256.17 24.62 257.4 24.93 258.2 25.62C258.47 25.85 258.59 26 258.59 26.12C258.59 26.23 258.51 26.31 258.47 26.39L257.74 27.5C257.67 27.62 257.63 27.69 257.51 27.69C257.36 27.69 257.21 27.54 257.09 27.46C256.55 27.04 256.05 26.73 255.44 26.73C254.74 26.73 254.21 26.96 253.82 27.39C253.24 28 252.98 29.19 252.98 31.81C252.98 32.69 253.01 34.96 253.74 35.92C254.05 36.31 254.59 36.77 255.51 36.77C256.09 36.77 256.63 36.58 257.17 36.27C257.36 36.15 257.51 36.04 257.67 36.04C257.82 36.04 257.86 36.15 257.94 36.23L258.47 37.38Z" />
				<path id="Path 299" fill-rule="evenodd" class="shp10" d="M263.63 38.96C261.43 38.96 259.28 37.46 259.28 33.69C259.28 29.92 261.43 28.43 263.63 28.43C265.82 28.43 267.97 29.92 267.97 33.69C267.93 37.42 265.82 38.96 263.63 38.96ZM263.59 30.42C262.01 30.42 261.97 32.19 261.97 33.69C261.97 35.19 262.05 36.96 263.59 36.96C265.16 36.96 265.24 35.19 265.24 33.69C265.24 32.19 265.16 30.42 263.59 30.42Z" />
				<path id="Path 300" fill-rule="evenodd" class="shp10" d="M273.43 32.39C273.62 30.96 274.28 30.04 274.47 29.81C275.31 28.73 276.47 28.43 277.43 28.43C279.62 28.43 281.77 29.96 281.77 33.69C281.77 37.42 279.62 38.96 277.43 38.96C276.35 38.96 275.01 38.57 274.12 37.15C273.66 36.42 273.35 35.42 273.35 34.35L272.24 34.35L272.24 38.31C272.24 38.54 272.24 38.57 271.97 38.57L270.01 38.57C269.78 38.57 269.74 38.5 269.74 38.31L269.74 29.19C269.74 28.92 269.7 28.92 270.43 28.77L271.97 28.46C272.12 28.43 272.28 28.39 272.28 28.69L272.28 32.39L273.43 32.39ZM277.43 30.42C275.93 30.42 275.81 32.19 275.81 33.69C275.81 35.23 275.93 36.96 277.43 36.96C278.97 36.96 279.04 35.23 279.04 33.69C279.04 32.19 278.93 30.42 277.43 30.42Z" />
				<path id="Path 301" class="shp10" d="M283.04 29.81C283 29.73 283 29.69 283 29.62C283 29.35 283.35 29.16 283.5 29.04C283.93 28.81 284.85 28.39 286.35 28.39C287.04 28.39 288.08 28.46 288.88 29.19C289.31 29.58 289.77 30.19 289.77 31.12C289.77 32.15 289.31 33 288.38 33.35L288.38 33.42C289.27 33.65 290 34.38 290 35.69C290 37.77 288.35 38.96 286.08 38.96C285.19 38.96 284.12 38.73 283.43 38.38C283.12 38.23 282.73 38.08 282.73 37.77C282.73 37.69 282.77 37.61 282.81 37.54L283.23 36.5C283.27 36.38 283.35 36.35 283.46 36.35C283.62 36.35 283.77 36.46 284.04 36.58C284.69 36.92 285.19 37.08 285.92 37.08C287.27 37.08 287.5 36.15 287.5 35.65C287.5 34.46 286.23 34.46 285.62 34.46L285.19 34.46C284.96 34.46 284.92 34.38 284.92 34.19L284.92 32.89C284.92 32.65 285 32.62 285.19 32.62L285.66 32.62C286.35 32.62 287.35 32.54 287.35 31.39C287.35 30.73 286.85 30.27 286.04 30.27C285.27 30.27 284.69 30.58 284.5 30.69C284.19 30.89 284.08 30.96 283.96 30.96C283.85 30.96 283.77 30.85 283.77 30.81L283.04 29.81Z" />
			</g>
			<g id="Group 127">
				<path id="Path 302" class="shp10" d="M90.85 56.72C90.85 56.91 90.81 57.11 90.46 57.11L88.54 57.11C88.2 57.11 88.16 56.88 88.16 56.72L88.16 43.84C88.16 43.5 88.39 43.46 88.54 43.46L96.77 43.46C97.11 43.46 97.15 43.69 97.15 43.84L97.15 56.72C97.15 57.07 96.92 57.11 96.77 57.11L94.85 57.11C94.5 57.11 94.46 56.88 94.46 56.72L94.46 45.61L90.89 45.61L90.89 56.72L90.85 56.72Z" />
				<path id="Path 303" fill-rule="evenodd" class="shp10" d="M102.46 60.6C102.46 60.8 102.5 60.87 102.07 60.95L100.23 61.33C100.15 61.37 100.04 61.37 99.96 61.33C99.88 61.26 99.88 61.1 99.88 60.95L99.88 50.84C99.88 49.11 99.73 48.46 99.58 48.03C99.5 47.84 99.5 47.76 99.5 47.73C99.5 47.61 99.61 47.53 99.73 47.49L101.23 46.99C101.54 46.88 101.77 46.84 101.96 47.42C102.04 47.61 102.07 47.76 102.15 47.96C103 47.15 103.84 46.92 104.65 46.92C105.65 46.92 106.5 47.15 107.19 48.15C108 49.3 108.15 50.92 108.15 52.11C108.15 53.38 108.07 54.84 107.15 56.11C106.46 57.03 105.61 57.45 104.27 57.45C103.88 57.45 103.3 57.41 102.38 56.95L102.38 60.6L102.46 60.6ZM103.88 55.49C104.34 55.49 104.96 55.38 105.34 54.65C105.42 54.49 105.65 53.92 105.65 52.07C105.65 51.22 105.5 50.19 105.23 49.65C104.96 49.19 104.57 48.92 104 48.92C103.34 48.92 102.84 49.26 102.46 49.69L102.46 55.11C103.04 55.45 103.57 55.49 103.88 55.49Z" />
				<path id="Path 304" fill-rule="evenodd" class="shp10" d="M113.8 57.45C111.61 57.45 109.46 55.95 109.46 52.18C109.46 48.42 111.57 46.92 113.8 46.92C115.99 46.92 118.15 48.42 118.15 52.18C118.11 55.95 115.99 57.45 113.8 57.45ZM113.76 48.92C112.19 48.92 112.11 50.69 112.11 52.18C112.11 53.68 112.19 55.45 113.76 55.45C115.34 55.45 115.42 53.72 115.42 52.18C115.42 50.69 115.34 48.92 113.76 48.92Z" />
				<path id="Path 305" fill-rule="evenodd" class="shp10" d="M121.84 52.92L121.84 52.92C121.84 52.9 121.84 52.89 121.84 52.88L121.84 52.92ZM124.03 55.38C124.95 55.38 125.64 55.11 126.03 54.91C126.26 54.8 126.45 54.72 126.56 54.72C126.68 54.72 126.76 54.8 126.8 54.88L127.29 56.07C127.33 56.14 127.33 56.18 127.33 56.26C127.33 56.45 127.18 56.61 127.03 56.68C126.3 57.18 124.99 57.49 123.83 57.49C119.57 57.49 119.3 53.88 119.3 52.49C119.3 49.34 120.87 46.96 123.68 46.96C126.18 46.96 127.1 48.61 127.45 50.19C127.64 51.03 127.68 51.76 127.68 52.26C127.68 52.88 127.49 52.92 127.22 52.92L121.84 52.92C121.85 54.36 122.39 55.38 124.03 55.38ZM124.87 50.03C124.72 49.26 124.3 48.8 123.53 48.8C122.37 48.8 121.95 49.69 121.84 51.03L124.95 51.03C124.95 50.49 124.91 50.19 124.87 50.03Z" />
				<path id="Path 306" class="shp10" d="M129.72 57.14C129.37 57.14 129.37 56.99 129.37 56.88L129.37 47.73C129.37 47.46 129.33 47.46 130.03 47.3L131.56 46.99C131.72 46.96 131.87 46.92 131.87 47.23L131.87 51.03L132.75 51.03C133.68 51.03 133.79 50.61 133.91 50.07L134.18 48.92C134.25 48.57 134.45 47.99 134.91 47.57C135.48 47.07 136.37 46.96 136.75 46.96C137.02 46.96 137.06 47.03 137.1 47.15L137.48 48.61C137.52 48.76 137.41 48.88 137.21 48.92L136.91 48.99C136.52 49.07 136.33 49.11 136.1 49.92L135.87 50.69C135.75 51.11 135.48 51.8 134.64 51.95L134.64 52.03C135.6 52.22 135.79 52.95 136.02 53.57L136.41 54.68C136.56 55.15 136.64 55.38 137.1 55.45L137.52 55.53C137.68 55.53 137.83 55.61 137.75 55.95L137.41 57.22C137.37 57.38 137.33 57.53 136.91 57.53C136.52 57.53 135.6 57.45 135.06 57.11C134.6 56.8 134.37 56.3 134.22 55.72L133.83 54.07C133.72 53.53 133.6 53.11 132.68 53.11L131.87 53.11L131.87 56.95C131.87 57.11 131.87 57.22 131.52 57.22L129.72 57.22L129.72 57.14Z" />
				<path id="Path 307" class="shp10" d="M142.83 56.84C142.83 57.07 142.79 57.11 142.56 57.11L140.6 57.11C140.37 57.11 140.33 57.07 140.33 56.84L140.33 49.26L138.02 49.26C137.79 49.26 137.75 49.19 137.75 48.99L137.75 47.57C137.75 47.34 137.83 47.3 138.02 47.3L145.33 47.3C145.75 47.3 145.67 47.49 145.63 47.69L145.36 48.99C145.29 49.22 145.17 49.26 145.06 49.26L142.87 49.26L142.87 56.84L142.83 56.84Z" />
				<path id="Path 308" class="shp10" d="M146.48 47.69C146.48 47.49 146.44 47.42 146.86 47.34L148.71 46.96C148.86 46.92 149.02 46.88 149.02 47.19L149.02 51.34C149.02 51.92 148.94 52.99 148.9 53.49L148.98 53.49C149.52 52.3 149.86 51.72 150.25 51.07L152.17 47.69C152.4 47.3 152.52 47.34 152.86 47.26L154.48 46.96C154.63 46.92 154.78 46.88 154.78 47.19L154.78 56.84C154.78 57.07 154.75 57.11 154.52 57.11L152.55 57.11C152.32 57.11 152.29 57.11 152.29 56.84L152.29 53.03C152.29 52.65 152.32 52.22 152.4 50.88L152.32 50.88C151.63 52.42 151.32 52.84 151.06 53.3L149.17 56.8C149.06 56.99 149.06 57.07 148.79 57.07L146.83 57.07C146.6 57.07 146.56 57.07 146.56 56.8L146.56 47.69L146.48 47.69Z" />
				<path id="Path 309" fill-rule="evenodd" class="shp10" d="M159.74 60.6C159.74 60.8 159.78 60.87 159.36 60.95L157.51 61.33C157.44 61.37 157.32 61.37 157.24 61.33C157.17 61.26 157.17 61.1 157.17 60.95L157.17 50.84C157.17 49.11 157.01 48.46 156.86 48.03C156.78 47.84 156.78 47.76 156.78 47.73C156.78 47.61 156.9 47.53 157.01 47.49L158.55 46.99C158.86 46.88 159.05 46.84 159.28 47.42C159.36 47.61 159.4 47.76 159.47 47.96C160.32 47.15 161.17 46.92 161.97 46.92C162.97 46.92 163.82 47.15 164.51 48.15C165.32 49.3 165.47 50.92 165.47 52.11C165.47 53.38 165.4 54.84 164.47 56.11C163.78 57.03 162.93 57.45 161.59 57.45C161.2 57.45 160.63 57.41 159.71 56.95L159.71 60.6L159.74 60.6ZM161.17 55.49C161.63 55.49 162.24 55.38 162.63 54.65C162.7 54.49 162.93 53.92 162.93 52.07C162.93 51.22 162.78 50.19 162.51 49.65C162.24 49.19 161.86 48.92 161.28 48.92C160.63 48.92 160.13 49.26 159.74 49.69L159.74 55.11C160.32 55.45 160.86 55.49 161.17 55.49Z" />
				<path id="Path 310" fill-rule="evenodd" class="shp10" d="M171.05 57.45C168.86 57.45 166.7 55.95 166.7 52.18C166.7 48.42 168.86 46.92 171.05 46.92C173.24 46.92 175.39 48.42 175.39 52.18C175.39 55.95 173.24 57.45 171.05 57.45ZM171.05 48.92C169.47 48.92 169.39 50.69 169.39 52.18C169.39 53.68 169.47 55.45 171.05 55.45C172.62 55.45 172.7 53.72 172.7 52.18C172.7 50.69 172.62 48.92 171.05 48.92Z" />
				<path id="Path 311" fill-rule="evenodd" class="shp10" d="M177.39 57.14C177.16 57.14 177.12 57.14 177.12 56.88L177.12 47.57C177.12 47.34 177.16 47.3 177.39 47.3L180.43 47.3C181.58 47.3 182.89 47.3 183.66 47.84C184.12 48.15 184.66 48.76 184.66 49.76C184.66 50.76 184.08 51.65 183.04 51.95C184.12 52.18 184.96 52.99 184.96 54.38C184.96 55.07 184.73 55.95 183.89 56.49C182.93 57.14 181.77 57.14 180.58 57.14L177.39 57.14ZM180.74 51.15C182 51.15 182.16 50.42 182.16 50.07C182.16 49.19 181.31 49.11 180.7 49.11L179.7 49.11L179.7 51.15L180.74 51.15ZM180.77 55.26C181.5 55.26 182.47 55.15 182.47 54.07C182.47 52.95 181.35 52.92 181 52.92L179.7 52.92L179.7 55.26L180.77 55.26Z" />
				<path id="Path 312" class="shp10" d="M196.61 55.15L196.61 47.69C196.61 47.49 196.58 47.42 197 47.34L198.84 46.96C199 46.92 199.15 46.88 199.15 47.19L199.15 55.15L200.11 55.15C200.27 55.15 200.38 55.11 200.38 55.41L200.38 59.64C200.38 59.87 200.38 59.91 200.11 59.91L198.23 59.91C198 59.91 197.96 59.84 197.96 59.64L197.96 57.14L187.23 57.14C186.96 57.14 186.96 57.07 186.96 56.88L186.96 47.73C186.96 47.46 186.96 47.46 187.62 47.3L189.19 46.99C189.35 46.96 189.5 46.92 189.5 47.23L189.5 55.18L191.81 55.18L191.81 47.73C191.81 47.53 191.77 47.46 192.19 47.38L194.04 46.99C194.19 46.96 194.35 46.92 194.35 47.23L194.35 55.18L196.61 55.18L196.61 55.15Z" />
				<path id="Path 313" class="shp10" d="M201.73 47.69C201.73 47.49 201.73 47.42 202.11 47.34L203.96 46.96C204.11 46.92 204.26 46.88 204.26 47.19L204.26 51.34C204.26 51.92 204.19 52.99 204.15 53.49L204.23 53.49C204.76 52.3 205.11 51.72 205.5 51.07L207.42 47.69C207.65 47.3 207.76 47.34 208.11 47.26L209.72 46.96C209.88 46.92 210.03 46.88 210.03 47.19L210.03 56.84C210.03 57.07 209.99 57.11 209.76 57.11L207.8 57.11C207.57 57.11 207.53 57.11 207.53 56.84L207.53 53.03C207.53 52.65 207.57 52.22 207.65 50.88L207.57 50.88C206.88 52.42 206.57 52.84 206.3 53.3L204.42 56.8C204.3 56.99 204.3 57.07 204.03 57.07L202.07 57.07C201.84 57.07 201.8 57.07 201.8 56.8L201.8 47.69L201.73 47.69Z" />
				<path id="Path 314" class="shp10" d="M212.68 57.14C212.34 57.14 212.34 56.99 212.34 56.88L212.34 47.73C212.34 47.46 212.34 47.46 212.99 47.3L214.53 46.99C214.68 46.96 214.84 46.92 214.84 47.23L214.84 51.03L215.72 51.03C216.64 51.03 216.76 50.61 216.87 50.07L217.14 48.92C217.22 48.57 217.41 47.99 217.87 47.57C218.41 47.07 219.34 46.96 219.72 46.96C219.99 46.96 220.03 47.03 220.07 47.15L220.45 48.61C220.49 48.76 220.37 48.88 220.18 48.92L219.87 48.99C219.49 49.07 219.26 49.11 219.07 49.92L218.84 50.69C218.72 51.11 218.45 51.8 217.61 51.95L217.61 52.03C218.57 52.22 218.76 52.95 218.99 53.57L219.37 54.68C219.53 55.15 219.6 55.38 220.07 55.45L220.49 55.53C220.64 55.53 220.8 55.61 220.72 55.95L220.37 57.22C220.33 57.38 220.3 57.53 219.84 57.53C219.45 57.53 218.53 57.45 217.99 57.11C217.49 56.8 217.3 56.3 217.14 55.72L216.76 54.07C216.64 53.53 216.53 53.11 215.61 53.11L214.8 53.11L214.8 56.95C214.8 57.11 214.8 57.22 214.45 57.22L212.68 57.22L212.68 57.14Z" />
				<path id="Path 315" fill-rule="evenodd" class="shp10" d="M225.72 57.45C223.53 57.45 221.37 55.95 221.37 52.18C221.37 48.42 223.53 46.92 225.72 46.92C227.91 46.92 230.06 48.42 230.06 52.18C230.02 55.95 227.91 57.45 225.72 57.45ZM225.68 48.92C224.14 48.92 224.03 50.69 224.03 52.18C224.03 53.68 224.1 55.45 225.68 55.45C227.26 55.45 227.33 53.72 227.33 52.18C227.33 50.69 227.26 48.92 225.68 48.92Z" />
				<path id="Path 316" fill-rule="evenodd" class="shp10" d="M232.06 57.14C231.83 57.14 231.79 57.14 231.79 56.88L231.79 47.57C231.79 47.34 231.83 47.3 232.06 47.3L235.1 47.3C236.25 47.3 237.56 47.3 238.33 47.84C238.79 48.15 239.29 48.76 239.29 49.76C239.29 50.76 238.71 51.65 237.71 51.95C238.79 52.18 239.64 52.99 239.64 54.38C239.64 55.07 239.4 55.95 238.56 56.49C237.6 57.14 236.44 57.14 235.25 57.14L232.06 57.14ZM235.37 51.15C236.64 51.15 236.79 50.42 236.79 50.07C236.79 49.19 235.94 49.11 235.33 49.11L234.33 49.11L234.33 51.15L235.37 51.15ZM235.44 55.26C236.17 55.26 237.14 55.15 237.14 54.07C237.14 52.95 236.02 52.92 235.68 52.92L234.37 52.92L234.37 55.26L235.44 55.26Z" />
			</g>
		</g>
	</g>
</svg>